NTSomic-Regular.ufo
<glyph name="exclam" format="2">
  <advance width="240"/>
  <unicode hex="0021"/>
  <outline>
    <component base="period"/>
    <contour>
      <point x="81" y="170" type="line"/>
      <point x="159" y="170" type="line"/>
      <point x="162" y="700" type="line"/>
      <point x="78" y="700" type="line"/>
    </contour>
  </outline>
</glyph>
<glyph name="numbersign" format="2">
  <advance width="655"/>
  <unicode hex="0023"/>
  <outline>
    <contour>
      <point x="119" y="11" type="line"/>
      <point x="193" y="0" type="line"/>
      <point x="305" y="690" type="line"/>
      <point x="232" y="700" type="line"/>
    </contour>
    <contour>
      <point x="344" y="11" type="line"/>
      <point x="418" y="0" type="line"/>
      <point x="530" y="690" type="line"/>
      <point x="457" y="700" type="line"/>
    </contour>
    <contour>
      <point x="71" y="435" type="line"/>
      <point x="621" y="435" type="line"/>
      <point x="621" y="505" type="line"/>
      <point x="71" y="505" type="line"/>
    </contour>
    <contour>
      <point x="34" y="204" type="line"/>
      <point x="583" y="204" type="line"/>
      <point x="583" y="274" type="line"/>
      <point x="34" y="274" type="line"/>
    </contour>
  </outline>
</glyph>
<glyph name="dollar" format="2">
  <advance width="650"/>
  <unicode hex="0024"/>
  <outline>
    <contour>
      <point x="287" y="-100" type="line"/>
      <point x="365" y="-100" type="line"/>
      <point x="365" y="40" type="line"/>
      <point x="287" y="40" type="line"/>
    </contour>
    <contour>
      <point x="287" y="660" type="line"/>
      <point x="365" y="660" type="line"/>
      <point x="365" y="800" type="line"/>
      <point x="287" y="800" type="line"/>
    </contour>
    <contour>
      <point x="333" y="-16" type="curve" smooth="yes"/>
      <point x="488" y="-16"/>
      <point x="580" y="61"/>
      <point x="580" y="184" type="curve" smooth="yes"/>
      <point x="580" y="447"/>
      <point x="164" y="342"/>
      <point x="164" y="522" type="curve" smooth="yes"/>
      <point x="164" y="588"/>
      <point x="221" y="640"/>
      <point x="317" y="640" type="curve" smooth="yes"/>
      <point x="399" y="640"/>
      <point x="469" y="602"/>
      <point x="508" y="523" type="curve"/>
      <point x="576" y="562" type="line"/>
      <point x="530" y="660"/>
      <point x="434" y="716"/>
      <point x="318" y="716" type="curve" smooth="yes"/>
      <point x="177" y="716"/>
      <point x="84" y="633"/>
      <point x="84" y="515" type="curve" smooth="yes"/>
      <point x="84" y="267"/>
      <point x="498" y="372"/>
      <point x="498" y="180" type="curve" smooth="yes"/>
      <point x="498" y="107"/>
      <point x="438" y="62"/>
      <point x="335" y="62" type="curve" smooth="yes"/>
      <point x="234" y="62"/>
      <point x="159" y="106"/>
      <point x="120" y="189" type="curve"/>
      <point x="50" y="151" type="line"/>
      <point x="101" y="43"/>
      <point x="198" y="-16"/>
    </contour>
  </outline>
</glyph>
<glyph name="percent" format="2">
  <advance width="830"/>
  <unicode hex="0025"/>
  <outline>
    <contour>
      <point x="155" y="22" type="line"/>
      <point x="620" y="714" type="line"/>
      <point x="675" y="678" type="line"/>
      <point x="210" y="-14" type="line"/>
    </contour>
    <contour>
      <point x="207" y="346" type="curve" smooth="yes"/>
      <point x="301" y="346"/>
      <point x="368" y="426"/>
      <point x="368" y="528" type="curve" smooth="yes"/>
      <point x="368" y="630"/>
      <point x="301" y="710"/>
      <point x="207" y="710" type="curve" smooth="yes"/>
      <point x="113" y="710"/>
      <point x="46" y="630"/>
      <point x="46" y="528" type="curve" smooth="yes"/>
      <point x="46" y="426"/>
      <point x="113" y="346"/>
    </contour>
    <contour>
      <point x="207" y="414" type="curve" smooth="yes"/>
      <point x="157" y="414"/>
      <point x="116" y="458"/>
      <point x="116" y="528" type="curve" smooth="yes"/>
      <point x="116" y="598"/>
      <point x="157" y="642"/>
      <point x="207" y="642" type="curve" smooth="yes"/>
      <point x="257" y="642"/>
      <point x="298" y="598"/>
      <point x="298" y="528" type="curve" smooth="yes"/>
      <point x="298" y="458"/>
      <point x="257" y="414"/>
    </contour>
    <contour>
      <point x="623" y="-10" type="curve" smooth="yes"/>
      <point x="717" y="-10"/>
      <point x="784" y="70"/>
      <point x="784" y="172" type="curve" smooth="yes"/>
      <point x="784" y="274"/>
      <point x="717" y="354"/>
      <point x="623" y="354" type="curve" smooth="yes"/>
      <point x="529" y="354"/>
      <point x="462" y="274"/>
      <point x="462" y="172" type="curve" smooth="yes"/>
      <point x="462" y="70"/>
      <point x="529" y="-10"/>
    </contour>
    <contour>
      <point x="623" y="58" type="curve" smooth="yes"/>
      <point x="573" y="58"/>
      <point x="532" y="102"/>
      <point x="532" y="172" type="curve" smooth="yes"/>
      <point x="532" y="242"/>
      <point x="573" y="286"/>
      <point x="623" y="286" type="curve" smooth="yes"/>
      <point x="673" y="286"/>
      <point x="714" y="242"/>
      <point x="714" y="172" type="curve" smooth="yes"/>
      <point x="714" y="102"/>
      <point x="673" y="58"/>
    </contour>
  </outline>
</glyph>
<glyph name="ampersand" format="2">
  <advance width="658"/>
  <unicode hex="0026"/>
  <outline>
    <contour>
      <point x="306.359" y="716" type="curve" smooth="yes"/>
      <point x="208" y="716"/>
      <point x="133" y="654"/>
      <point x="133" y="549.295" type="curve" smooth="yes"/>
      <point x="133" y="498"/>
      <point x="151" y="453"/>
      <point x="230" y="365" type="curve" smooth="yes"/>
      <point x="568" y="-12" type="line"/>
      <point x="626" y="43" type="line"/>
      <point x="287" y="413" type="line" smooth="yes"/>
      <point x="229" y="477"/>
      <point x="209" y="513"/>
      <point x="209" y="552.716" type="curve" smooth="yes"/>
      <point x="209" y="606"/>
      <point x="245" y="643"/>
      <point x="307.083" y="643" type="curve" smooth="yes"/>
      <point x="370" y="643"/>
      <point x="407" y="605"/>
      <point x="407" y="551.065" type="curve" smooth="yes"/>
      <point x="407" y="384"/>
      <point x="52" y="429"/>
      <point x="52" y="187.456" type="curve" smooth="yes"/>
      <point x="52" y="53"/>
      <point x="162" y="-16"/>
      <point x="293.886" y="-16" type="curve" smooth="yes"/>
      <point x="447" y="-16"/>
      <point x="554" y="77"/>
      <point x="626" y="272" type="curve"/>
      <point x="560" y="295" type="line"/>
      <point x="518" y="187"/>
      <point x="436" y="62"/>
      <point x="297.632" y="62" type="curve" smooth="yes"/>
      <point x="211" y="62"/>
      <point x="136" y="111"/>
      <point x="136" y="194.949" type="curve" smooth="yes"/>
      <point x="136" y="375"/>
      <point x="481" y="330"/>
      <point x="481" y="552.517" type="curve" smooth="yes"/>
      <point x="481" y="661"/>
      <point x="399" y="716"/>
    </contour>
  </outline>
</glyph>
<glyph name="quotesingle" format="2">
  <advance width="201"/>
  <unicode hex="0027"/>
  <outline>
    <contour>
      <point x="63" y="700" type="line"/>
      <point x="135" y="700" type="line"/>
      <point x="130" y="470" type="line"/>
      <point x="68" y="470" type="line"/>
    </contour>
  </outline>
</glyph>
<glyph name="parenleft" format="2">
  <advance width="293"/>
  <unicode hex="0028"/>
  <outline>
    <contour>
      <point x="60" y="289" type="curve" smooth="yes"/>
      <point x="60" y="117"/>
      <point x="114" y="-43"/>
      <point x="222" y="-175" type="curve"/>
      <point x="281" y="-128" type="line"/>
      <point x="192" y="-6"/>
      <point x="138" y="126"/>
      <point x="138" y="289" type="curve" smooth="yes"/>
      <point x="138" y="452"/>
      <point x="192" y="584"/>
      <point x="281" y="706" type="curve"/>
      <point x="222" y="753" type="line"/>
      <point x="114" y="621"/>
      <point x="60" y="461"/>
    </contour>
  </outline>
</glyph>
<glyph name="parenright" format="2">
  <advance width="293"/>
  <unicode hex="0029"/>
  <outline>
    <contour>
      <point x="233" y="289" type="curve" smooth="yes"/>
      <point x="233" y="461"/>
      <point x="179" y="621"/>
      <point x="71" y="753" type="curve"/>
      <point x="12" y="706" type="line"/>
      <point x="101" y="584"/>
      <point x="155" y="452"/>
      <point x="155" y="289" type="curve" smooth="yes"/>
      <point x="155" y="126"/>
      <point x="101" y="-6"/>
      <point x="12" y="-128" type="curve"/>
      <point x="71" y="-175" type="line"/>
      <point x="179" y="-43"/>
      <point x="233" y="117"/>
    </contour>
  </outline>
</glyph>
<glyph name="asterisk" format="2">
  <advance width="416"/>
  <unicode hex="002A"/>
  <outline>
    <contour>
      <point x="178" y="396" type="line"/>
      <point x="237" y="396" type="line"/>
      <point x="231" y="548" type="line"/>
      <point x="237" y="700" type="line"/>
      <point x="178" y="700" type="line"/>
      <point x="184" y="548" type="line"/>
    </contour>
    <contour>
      <point x="100" y="446" type="line"/>
      <point x="208" y="527" type="line"/>
      <point x="208" y="567" type="line"/>
      <point x="193" y="567" type="line"/>
      <point x="67" y="497" type="line"/>
    </contour>
    <contour>
      <point x="349" y="598" type="line"/>
      <point x="316" y="649" type="line"/>
      <point x="208" y="569" type="line"/>
      <point x="208" y="529" type="line"/>
      <point x="223" y="529" type="line"/>
    </contour>
    <contour>
      <point x="67" y="598" type="line"/>
      <point x="193" y="529" type="line"/>
      <point x="208" y="529" type="line"/>
      <point x="208" y="569" type="line"/>
      <point x="100" y="649" type="line"/>
    </contour>
    <contour>
      <point x="316" y="446" type="line"/>
      <point x="349" y="497" type="line"/>
      <point x="223" y="567" type="line"/>
      <point x="208" y="567" type="line"/>
      <point x="208" y="527" type="line"/>
    </contour>
  </outline>
</glyph>
<glyph name="plus" format="2">
  <advance width="550"/>
  <unicode hex="002B"/>
  <outline>
    <contour>
      <point x="40" y="325" type="line"/>
      <point x="235" y="325" type="line"/>
      <point x="235" y="120" type="line"/>
      <point x="315" y="120" type="line"/>
      <point x="315" y="325" type="line"/>
      <point x="510" y="325" type="line"/>
      <point x="510" y="403" type="line"/>
      <point x="315" y="403" type="line"/>
      <point x="315" y="608" type="line"/>
      <point x="235" y="608" type="line"/>
      <point x="235" y="403" type="line"/>
      <point x="40" y="403" type="line"/>
    </contour>
  </outline>
</glyph>
<glyph name="comma" format="2">
  <advance width="221"/>
  <unicode hex="002C"/>
  <outline>
    <contour>
      <point x="48" y="57.6666" type="curve" smooth="yes"/>
      <point x="48" y="92"/>
      <point x="74" y="118"/>
      <point x="108.352" y="118" type="curve" smooth="yes"/>
      <point x="144" y="118"/>
      <point x="173" y="90"/>
      <point x="173" y="35.8083" type="curve" smooth="yes"/>
      <point x="173" y="-22"/>
      <point x="140" y="-85"/>
      <point x="89" y="-130" type="curve"/>
      <point x="53" y="-95" type="line"/>
      <point x="95" y="-58"/>
      <point x="114" y="-28"/>
      <point x="121" y="8" type="curve"/>
      <point x="127" y="4" type="line"/>
      <point x="123" y="0"/>
      <point x="114" y="-2"/>
      <point x="105.098" y="-2" type="curve" smooth="yes"/>
      <point x="73" y="-2"/>
      <point x="48" y="24"/>
    </contour>
  </outline>
</glyph>
<glyph name="hyphen" format="2">
  <advance width="363"/>
  <unicode hex="002D"/>
  <outline>
    <contour>
      <point x="56" y="232" type="line"/>
      <point x="307" y="232" type="line"/>
      <point x="307" y="306" type="line"/>
      <point x="56" y="306" type="line"/>
    </contour>
  </outline>
</glyph>
<glyph name="period" format="2">
  <advance width="218"/>
  <unicode hex="002E"/>
  <outline>
    <contour>
      <point x="109" y="-4" type="curve" smooth="yes"/>
      <point x="143" y="-4"/>
      <point x="170" y="23"/>
      <point x="170" y="57" type="curve" smooth="yes"/>
      <point x="170" y="91"/>
      <point x="143" y="118"/>
      <point x="109" y="118" type="curve" smooth="yes"/>
      <point x="75" y="118"/>
      <point x="48" y="91"/>
      <point x="48" y="57" type="curve" smooth="yes"/>
      <point x="48" y="23"/>
      <point x="75" y="-4"/>
    </contour>
  </outline>
</glyph>
<glyph name="slash" format="2">
  <advance width="445"/>
  <unicode hex="002F"/>
  <outline>
    <contour>
      <point x="103" y="-183" type="line"/>
      <point x="416" y="742" type="line"/>
      <point x="343" y="764" type="line"/>
      <point x="30" y="-161" type="line"/>
    </contour>
  </outline>
</glyph>
<glyph name="zero" format="2">
  <advance width="672"/>
  <unicode hex="0030"/>
  <outline>
    <contour>
      <point x="612" y="350" type="curve" smooth="yes"/>
      <point x="612" y="141"/>
      <point x="518" y="-16"/>
      <point x="337" y="-16" type="curve" smooth="yes"/>
      <point x="156" y="-16"/>
      <point x="60" y="141"/>
      <point x="60" y="350" type="curve" smooth="yes"/>
      <point x="60" y="559"/>
      <point x="156" y="716"/>
      <point x="337" y="716" type="curve" smooth="yes"/>
      <point x="518" y="716"/>
      <point x="612" y="559"/>
    </contour>
    <contour>
      <point x="144" y="350" type="curve" smooth="yes"/>
      <point x="144" y="196"/>
      <point x="202" y="64"/>
      <point x="337" y="64" type="curve" smooth="yes"/>
      <point x="472" y="64"/>
      <point x="528" y="196"/>
      <point x="528" y="350" type="curve" smooth="yes"/>
      <point x="528" y="504"/>
      <point x="472" y="636"/>
      <point x="337" y="636" type="curve" smooth="yes"/>
      <point x="202" y="636"/>
      <point x="144" y="504"/>
    </contour>
  </outline>
</glyph>
<glyph name="one" format="2">
  <advance width="387"/>
  <unicode hex="0031"/>
  <outline>
    <contour>
      <point x="215" y="0" type="line"/>
      <point x="295" y="0" type="line"/>
      <point x="295" y="700" type="line"/>
      <point x="214" y="700" type="line"/>
      <point x="22" y="571" type="line"/>
      <point x="60" y="505" type="line"/>
      <point x="231" y="620" type="line"/>
      <point x="215" y="632" type="line"/>
    </contour>
  </outline>
</glyph>
<glyph name="two" format="2">
  <advance width="563"/>
  <unicode hex="0032"/>
  <outline>
    <contour>
      <point x="37" y="0" type="line"/>
      <point x="515" y="0" type="line"/>
      <point x="515" y="80" type="line"/>
      <point x="121" y="80" type="line"/>
      <point x="123" y="61" type="line"/>
      <point x="367" y="257" type="line" smooth="yes"/>
      <point x="474" y="343"/>
      <point x="510" y="410"/>
      <point x="510" y="494.945" type="curve" smooth="yes"/>
      <point x="510" y="630"/>
      <point x="419" y="716"/>
      <point x="282.056" y="716" type="curve" smooth="yes"/>
      <point x="163" y="716"/>
      <point x="76" y="651"/>
      <point x="37" y="536" type="curve"/>
      <point x="114" y="511" type="line"/>
      <point x="147" y="596"/>
      <point x="202" y="636"/>
      <point x="278.705" y="636" type="curve" smooth="yes"/>
      <point x="367" y="636"/>
      <point x="426" y="583"/>
      <point x="426" y="493.96" type="curve" smooth="yes"/>
      <point x="426" y="436"/>
      <point x="401" y="380"/>
      <point x="316" y="311" type="curve" smooth="yes"/>
      <point x="37" y="86" type="line"/>
    </contour>
  </outline>
</glyph>
<glyph name="three" format="2">
  <advance width="568"/>
  <unicode hex="0033"/>
  <outline>
    <contour>
      <point x="278.44" y="-16" type="curve" smooth="yes"/>
      <point x="425" y="-16"/>
      <point x="522" y="70"/>
      <point x="522" y="196.321" type="curve" smooth="yes"/>
      <point x="522" y="294"/>
      <point x="464" y="363"/>
      <point x="367" y="384" type="curve"/>
      <point x="366" y="358" type="line"/>
      <point x="455" y="377"/>
      <point x="510" y="439"/>
      <point x="510" y="525.872" type="curve" smooth="yes"/>
      <point x="510" y="637"/>
      <point x="420" y="716"/>
      <point x="283.188" y="716" type="curve" smooth="yes"/>
      <point x="168" y="716"/>
      <point x="83" y="660"/>
      <point x="36" y="554" type="curve"/>
      <point x="111" y="520" type="line"/>
      <point x="146" y="599"/>
      <point x="200" y="636"/>
      <point x="280.378" y="636" type="curve" smooth="yes"/>
      <point x="370" y="636"/>
      <point x="426" y="590"/>
      <point x="426" y="516.582" type="curve" smooth="yes"/>
      <point x="426" y="453"/>
      <point x="384" y="409"/>
      <point x="313" y="409" type="curve" smooth="yes"/>
      <point x="184" y="409" type="line"/>
      <point x="184" y="329" type="line"/>
      <point x="314" y="329" type="line" smooth="yes"/>
      <point x="392" y="329"/>
      <point x="438" y="277"/>
      <point x="438" y="203.884" type="curve" smooth="yes"/>
      <point x="438" y="119"/>
      <point x="376" y="64"/>
      <point x="277.285" y="64" type="curve" smooth="yes"/>
      <point x="190" y="64"/>
      <point x="131" y="107"/>
      <point x="95" y="197" type="curve"/>
      <point x="20" y="164" type="line"/>
      <point x="65" y="46"/>
      <point x="154" y="-16"/>
    </contour>
  </outline>
</glyph>
<glyph name="four" format="2">
  <advance width="616"/>
  <unicode hex="0034"/>
  <outline>
    <contour>
      <point x="385" y="0" type="line"/>
      <point x="465" y="0" type="line"/>
      <point x="465" y="175" type="line"/>
      <point x="568" y="175" type="line"/>
      <point x="568" y="251" type="line"/>
      <point x="465" y="251" type="line"/>
      <point x="465" y="700" type="line"/>
      <point x="370" y="700" type="line"/>
      <point x="42" y="267" type="line"/>
      <point x="42" y="175" type="line"/>
      <point x="385" y="175" type="line"/>
    </contour>
    <contour>
      <point x="107" y="229" type="line"/>
      <point x="399" y="618" type="line"/>
      <point x="385" y="619" type="line"/>
      <point x="385" y="251" type="line"/>
      <point x="105" y="251" type="line"/>
    </contour>
  </outline>
</glyph>
<glyph name="five" format="2">
  <advance width="570"/>
  <unicode hex="0035"/>
  <outline>
    <contour>
      <point x="270.012" y="-16" type="curve" smooth="yes"/>
      <point x="161" y="-16"/>
      <point x="80" y="33"/>
      <point x="32" y="122" type="curve"/>
      <point x="100" y="162" type="line"/>
      <point x="139" y="94"/>
      <point x="195" y="60"/>
      <point x="269.199" y="60" type="curve" smooth="yes"/>
      <point x="371" y="60"/>
      <point x="439" y="124"/>
      <point x="439" y="221.083" type="curve" smooth="yes"/>
      <point x="439" y="316"/>
      <point x="374" y="377"/>
      <point x="270.643" y="377" type="curve" smooth="yes"/>
      <point x="210" y="377"/>
      <point x="163" y="356"/>
      <point x="128" y="312" type="curve"/>
      <point x="62" y="336" type="line"/>
      <point x="81" y="700" type="line"/>
      <point x="481" y="700" type="line"/>
      <point x="481" y="624" type="line"/>
      <point x="155" y="624" type="line"/>
      <point x="142" y="384" type="line"/>
      <point x="123" y="393" type="line"/>
      <point x="167" y="433"/>
      <point x="221" y="452"/>
      <point x="285.921" y="452" type="curve" smooth="yes"/>
      <point x="428" y="452"/>
      <point x="520" y="361"/>
      <point x="520" y="222.094" type="curve" smooth="yes"/>
      <point x="520" y="78"/>
      <point x="421" y="-16"/>
    </contour>
  </outline>
</glyph>
<glyph name="six" format="2">
  <advance width="609"/>
  <unicode hex="0036"/>
  <outline>
    <contour>
      <point x="323" y="64" type="curve" smooth="yes"/>
      <point x="228" y="64"/>
      <point x="164" y="131"/>
      <point x="164" y="221" type="curve" smooth="yes"/>
      <point x="164" y="311"/>
      <point x="227" y="374"/>
      <point x="322" y="374" type="curve" smooth="yes"/>
      <point x="416" y="374"/>
      <point x="483" y="311"/>
      <point x="483" y="221" type="curve" smooth="yes"/>
      <point x="483" y="131"/>
      <point x="417" y="64"/>
    </contour>
    <contour>
      <point x="323" y="-16" type="curve" smooth="yes"/>
      <point x="468" y="-16"/>
      <point x="567" y="82"/>
      <point x="567" y="219" type="curve" smooth="yes"/>
      <point x="567" y="353"/>
      <point x="472" y="448"/>
      <point x="334" y="448" type="curve" smooth="yes"/>
      <point x="241" y="448"/>
      <point x="167" y="404"/>
      <point x="133" y="321" type="curve"/>
      <point x="146" y="321" type="line"/>
      <point x="144" y="344"/>
      <point x="144" y="362"/>
      <point x="144" y="379" type="curve" smooth="yes"/>
      <point x="144" y="543"/>
      <point x="211" y="636"/>
      <point x="334" y="636" type="curve" smooth="yes"/>
      <point x="404" y="636"/>
      <point x="454" y="605"/>
      <point x="489" y="541" type="curve"/>
      <point x="560" y="582" type="line"/>
      <point x="509" y="673"/>
      <point x="437" y="716"/>
      <point x="336" y="716" type="curve" smooth="yes"/>
      <point x="160" y="716"/>
      <point x="60" y="587"/>
      <point x="60" y="347" type="curve" smooth="yes"/>
      <point x="60" y="114"/>
      <point x="154" y="-16"/>
    </contour>
  </outline>
</glyph>
<glyph name="seven" format="2">
  <advance width="529"/>
  <unicode hex="0037"/>
  <outline>
    <contour>
      <point x="130" y="0" type="line"/>
      <point x="220" y="0" type="line"/>
      <point x="505" y="621" type="line"/>
      <point x="505" y="700" type="line"/>
      <point x="34" y="700" type="line"/>
      <point x="34" y="622" type="line"/>
      <point x="415" y="622" type="line"/>
    </contour>
  </outline>
</glyph>
<glyph name="eight" format="2">
  <advance width="576"/>
  <unicode hex="0038"/>
  <outline>
    <contour>
      <point x="288" y="397" type="curve" smooth="yes"/>
      <point x="377" y="397"/>
      <point x="434" y="445"/>
      <point x="434" y="515" type="curve" smooth="yes"/>
      <point x="434" y="584"/>
      <point x="377" y="636"/>
      <point x="288" y="636" type="curve" smooth="yes"/>
      <point x="199" y="636"/>
      <point x="142" y="584"/>
      <point x="142" y="515" type="curve" smooth="yes"/>
      <point x="142" y="445"/>
      <point x="199" y="397"/>
    </contour>
    <contour>
      <point x="288" y="64" type="curve" smooth="yes"/>
      <point x="387" y="64"/>
      <point x="450" y="119"/>
      <point x="450" y="194" type="curve" smooth="yes"/>
      <point x="450" y="268"/>
      <point x="386" y="323"/>
      <point x="288" y="323" type="curve" smooth="yes"/>
      <point x="190" y="323"/>
      <point x="126" y="268"/>
      <point x="126" y="194" type="curve" smooth="yes"/>
      <point x="126" y="119"/>
      <point x="189" y="64"/>
    </contour>
    <contour>
      <point x="288" y="-16" type="curve" smooth="yes"/>
      <point x="141" y="-16"/>
      <point x="42" y="65"/>
      <point x="42" y="187" type="curve" smooth="yes"/>
      <point x="42" y="275"/>
      <point x="93" y="338"/>
      <point x="180" y="363" type="curve"/>
      <point x="180" y="354" type="line"/>
      <point x="101" y="380"/>
      <point x="58" y="442"/>
      <point x="58" y="521" type="curve" smooth="yes"/>
      <point x="58" y="636"/>
      <point x="150" y="716"/>
      <point x="288" y="716" type="curve" smooth="yes"/>
      <point x="426" y="716"/>
      <point x="518" y="636"/>
      <point x="518" y="521" type="curve" smooth="yes"/>
      <point x="518" y="442"/>
      <point x="475" y="380"/>
      <point x="396" y="354" type="curve"/>
      <point x="396" y="363" type="line"/>
      <point x="483" y="338"/>
      <point x="534" y="275"/>
      <point x="534" y="187" type="curve" smooth="yes"/>
      <point x="534" y="65"/>
      <point x="435" y="-16"/>
    </contour>
  </outline>
</glyph>
<glyph name="less" format="2">
  <advance width="527"/>
  <unicode hex="003C"/>
  <outline>
    <contour>
      <point x="68" y="318" type="line"/>
      <point x="458" y="106" type="line"/>
      <point x="489" y="175" type="line"/>
      <point x="134" y="364" type="line"/>
      <point x="134" y="346" type="line"/>
      <point x="489" y="535" type="line"/>
      <point x="458" y="604" type="line"/>
      <point x="68" y="392" type="line"/>
    </contour>
  </outline>
</glyph>
<glyph name="equal" format="2">
  <advance width="568"/>
  <unicode hex="003D"/>
  <outline>
    <contour>
      <point x="56" y="198" type="line"/>
      <point x="512" y="198" type="line"/>
      <point x="512" y="270" type="line"/>
      <point x="56" y="270" type="line"/>
    </contour>
    <contour>
      <point x="56" y="401" type="line"/>
      <point x="512" y="401" type="line"/>
      <point x="512" y="473" type="line"/>
      <point x="56" y="473" type="line"/>
    </contour>
  </outline>
</glyph>
<glyph name="greater" format="2">
  <advance width="527"/>
  <unicode hex="003E"/>
  <outline>
    <contour>
      <point x="459" y="318" type="line"/>
      <point x="459" y="392" type="line"/>
      <point x="69" y="604" type="line"/>
      <point x="38" y="535" type="line"/>
      <point x="393" y="346" type="line"/>
      <point x="393" y="364" type="line"/>
      <point x="38" y="175" type="line"/>
      <point x="69" y="106" type="line"/>
    </contour>
  </outline>
</glyph>
<glyph name="question" format="2">
  <advance width="567"/>
  <unicode hex="003F"/>
  <outline>
    <component base="period" xOffset="160"/>
    <contour>
      <point x="230" y="176" type="line"/>
      <point x="308" y="176" type="line"/>
      <point x="308" y="211" type="line" smooth="yes"/>
      <point x="308" y="280"/>
      <point x="331" y="316"/>
      <point x="403" y="360" type="curve" smooth="yes"/>
      <point x="474" y="404"/>
      <point x="513" y="461"/>
      <point x="513" y="532.535" type="curve" smooth="yes"/>
      <point x="513" y="643"/>
      <point x="420" y="716"/>
      <point x="286.758" y="716" type="curve" smooth="yes"/>
      <point x="162" y="716"/>
      <point x="72" y="652"/>
      <point x="36" y="540" type="curve"/>
      <point x="114" y="516" type="line"/>
      <point x="140" y="596"/>
      <point x="202" y="640"/>
      <point x="288" y="640" type="curve" smooth="yes"/>
      <point x="374" y="640"/>
      <point x="433" y="596"/>
      <point x="433" y="530.037" type="curve" smooth="yes"/>
      <point x="433" y="483"/>
      <point x="403" y="443"/>
      <point x="349" y="411" type="curve" smooth="yes"/>
      <point x="268" y="362"/>
      <point x="230" y="314"/>
      <point x="230" y="215" type="curve" smooth="yes"/>
    </contour>
  </outline>
</glyph>
<glyph name="at" format="2">
  <advance width="909"/>
  <unicode hex="0040"/>
  <outline>
    <contour>
      <point x="772" y="304.227" type="curve" smooth="yes"/>
      <point x="772" y="224"/>
      <point x="749" y="179"/>
      <point x="704.827" y="179" type="curve" smooth="yes"/>
      <point x="667" y="179"/>
      <point x="648" y="212"/>
      <point x="648" y="261" type="curve" smooth="yes"/>
      <point x="648" y="467" type="line"/>
      <point x="578" y="467" type="line"/>
      <point x="578" y="280" type="line"/>
      <point x="584" y="280" type="line"/>
      <point x="584" y="173"/>
      <point x="621" y="103"/>
      <point x="707.309" y="103" type="curve" smooth="yes"/>
      <point x="793" y="103"/>
      <point x="849" y="172"/>
      <point x="849" y="302.353" type="curve" smooth="yes"/>
      <point x="849" y="522"/>
      <point x="690" y="690"/>
      <point x="459.62" y="690" type="curve" smooth="yes"/>
      <point x="232" y="690"/>
      <point x="60" y="526"/>
      <point x="60" y="280.711" type="curve" smooth="yes"/>
      <point x="60" y="34"/>
      <point x="234" y="-130"/>
      <point x="467.622" y="-130" type="curve" smooth="yes"/>
      <point x="583" y="-130"/>
      <point x="683" y="-90"/>
      <point x="757" y="-14" type="curve"/>
      <point x="704" y="44" type="line"/>
      <point x="646" y="-20"/>
      <point x="562" y="-54"/>
      <point x="465.716" y="-54" type="curve" smooth="yes"/>
      <point x="276" y="-54"/>
      <point x="138" y="78"/>
      <point x="138" y="284.082" type="curve" smooth="yes"/>
      <point x="138" y="481"/>
      <point x="264" y="614"/>
      <point x="459.993" y="614" type="curve" smooth="yes"/>
      <point x="650" y="614"/>
      <point x="772" y="489"/>
    </contour>
    <contour>
      <point x="264" y="280.147" type="curve" smooth="yes"/>
      <point x="264" y="174"/>
      <point x="339" y="86"/>
      <point x="444.372" y="86" type="curve" smooth="yes"/>
      <point x="541" y="86"/>
      <point x="614" y="160"/>
      <point x="614" y="280" type="curve"/>
      <point x="609" y="280" type="line"/>
      <point x="609" y="390"/>
      <point x="548" y="474"/>
      <point x="444.912" y="474" type="curve" smooth="yes"/>
      <point x="340" y="474"/>
      <point x="264" y="387"/>
    </contour>
    <contour>
      <point x="336" y="280" type="curve" smooth="yes"/>
      <point x="336" y="352"/>
      <point x="386" y="406"/>
      <point x="457" y="406" type="curve" smooth="yes"/>
      <point x="528" y="406"/>
      <point x="578" y="352"/>
      <point x="578" y="280" type="curve" smooth="yes"/>
      <point x="578" y="209"/>
      <point x="529" y="154"/>
      <point x="457" y="154" type="curve" smooth="yes"/>
      <point x="386" y="154"/>
      <point x="336" y="209"/>
    </contour>
  </outline>
</glyph>
<glyph name="A" format="2">
  <advance width="662"/>
  <unicode hex="0041"/>
  <outline>
    <contour>
      <point x="149" y="188" type="line"/>
      <point x="513" y="188" type="line"/>
      <point x="513" y="262" type="line"/>
      <point x="149" y="262" type="line"/>
    </contour>
    <contour>
      <point x="379" y="700" type="line"/>
      <point x="283" y="700" type="line"/>
      <point x="26" y="0" type="line"/>
      <point x="118" y="0" type="line"/>
      <point x="334" y="622" type="line"/>
      <point x="326" y="622" type="line"/>
      <point x="542" y="0" type="line"/>
      <point x="636" y="0" type="line"/>
    </contour>
  </outline>
</glyph>
<glyph name="B" format="2">
  <advance width="637"/>
  <unicode hex="0042"/>
  <outline>
    <contour>
      <point x="92" y="700" type="line"/>
      <point x="92" y="0" type="line"/>
      <point x="377" y="0" type="line" smooth="yes"/>
      <point x="503" y="0"/>
      <point x="589" y="73"/>
      <point x="589" y="192" type="curve" smooth="yes"/>
      <point x="589" y="285"/>
      <point x="536" y="354"/>
      <point x="435" y="374" type="curve"/>
      <point x="435" y="362" type="line"/>
      <point x="517" y="387"/>
      <point x="559" y="442"/>
      <point x="559" y="522" type="curve" smooth="yes"/>
      <point x="559" y="633"/>
      <point x="480" y="700"/>
      <point x="361" y="700" type="curve" smooth="yes"/>
    </contour>
    <contour>
      <point x="174" y="401" type="line"/>
      <point x="174" y="622" type="line"/>
      <point x="355" y="622" type="line" smooth="yes"/>
      <point x="427" y="622"/>
      <point x="475" y="577"/>
      <point x="475" y="513" type="curve" smooth="yes"/>
      <point x="475" y="448"/>
      <point x="427" y="401"/>
      <point x="355" y="401" type="curve" smooth="yes"/>
    </contour>
    <contour>
      <point x="174" y="323" type="line"/>
      <point x="374" y="323" type="line" smooth="yes"/>
      <point x="453" y="323"/>
      <point x="505" y="273"/>
      <point x="505" y="201" type="curve" smooth="yes"/>
      <point x="505" y="128"/>
      <point x="453" y="78"/>
      <point x="374" y="78" type="curve" smooth="yes"/>
      <point x="174" y="78" type="line"/>
    </contour>
  </outline>
</glyph>
<glyph name="C" format="2">
  <advance width="760"/>
  <unicode hex="0043"/>
  <outline>
    <contour>
      <point x="416.906" y="-16" type="curve" smooth="yes"/>
      <point x="552" y="-16"/>
      <point x="663" y="49"/>
      <point x="720" y="162" type="curve"/>
      <point x="647" y="205" type="line"/>
      <point x="600" y="115"/>
      <point x="523" y="66"/>
      <point x="418.339" y="66" type="curve" smooth="yes"/>
      <point x="258" y="66"/>
      <point x="148" y="181"/>
      <point x="148" y="350" type="curve" smooth="yes"/>
      <point x="148" y="519"/>
      <point x="258" y="634"/>
      <point x="418.339" y="634" type="curve" smooth="yes"/>
      <point x="523" y="634"/>
      <point x="600" y="585"/>
      <point x="647" y="495" type="curve"/>
      <point x="720" y="538" type="line"/>
      <point x="663" y="651"/>
      <point x="552" y="716"/>
      <point x="416.906" y="716" type="curve" smooth="yes"/>
      <point x="211" y="716"/>
      <point x="60" y="565"/>
      <point x="60" y="350" type="curve" smooth="yes"/>
      <point x="60" y="135"/>
      <point x="211" y="-16"/>
    </contour>
  </outline>
</glyph>
<glyph name="D" format="2">
  <advance width="717"/>
  <unicode hex="0044"/>
  <outline>
    <contour>
      <point x="92" y="0" type="line"/>
      <point x="311" y="0" type="line" smooth="yes"/>
      <point x="520" y="0"/>
      <point x="657" y="150"/>
      <point x="657" y="350" type="curve" smooth="yes"/>
      <point x="657" y="550"/>
      <point x="520" y="700"/>
      <point x="311" y="700" type="curve" smooth="yes"/>
      <point x="92" y="700" type="line"/>
    </contour>
    <contour>
      <point x="310" y="620" type="line" smooth="yes"/>
      <point x="468" y="620"/>
      <point x="567" y="504"/>
      <point x="567" y="351" type="curve" smooth="yes"/>
      <point x="567" y="195"/>
      <point x="468" y="80"/>
      <point x="310" y="80" type="curve" smooth="yes"/>
      <point x="176" y="80" type="line"/>
      <point x="176" y="620" type="line"/>
    </contour>
  </outline>
</glyph>
<glyph name="E" format="2">
  <advance width="580"/>
  <unicode hex="0045"/>
  <outline>
    <contour>
      <point x="92" y="0" type="line"/>
      <point x="520" y="0" type="line"/>
      <point x="520" y="78" type="line"/>
      <point x="176" y="78" type="line"/>
      <point x="176" y="326" type="line"/>
      <point x="488" y="326" type="line"/>
      <point x="488" y="404" type="line"/>
      <point x="176" y="404" type="line"/>
      <point x="176" y="622" type="line"/>
      <point x="520" y="622" type="line"/>
      <point x="520" y="700" type="line"/>
      <point x="92" y="700" type="line"/>
    </contour>
  </outline>
</glyph>
<glyph name="F" format="2">
  <advance width="580"/>
  <unicode hex="0046"/>
  <outline>
    <contour>
      <point x="92" y="0" type="line"/>
      <point x="176" y="0" type="line"/>
      <point x="176" y="318" type="line"/>
      <point x="488" y="318" type="line"/>
      <point x="488" y="396" type="line"/>
      <point x="176" y="396" type="line"/>
      <point x="176" y="622" type="line"/>
      <point x="520" y="622" type="line"/>
      <point x="520" y="700" type="line"/>
      <point x="92" y="700" type="line"/>
    </contour>
  </outline>
</glyph>
<glyph name="G" format="2">
  <advance width="790"/>
  <unicode hex="0047"/>
  <outline>
    <contour>
      <point x="742" y="315.069" type="curve" smooth="yes"/>
      <point x="742" y="333"/>
      <point x="741" y="349"/>
      <point x="740" y="366" type="curve"/>
      <point x="351" y="366" type="line"/>
      <point x="351" y="288" type="line"/>
      <point x="664" y="288" type="line"/>
      <point x="658" y="289" type="line"/>
      <point x="654" y="152"/>
      <point x="561" y="64"/>
      <point x="417.948" y="64" type="curve" smooth="yes"/>
      <point x="253" y="64"/>
      <point x="146" y="181"/>
      <point x="146" y="350.605" type="curve" smooth="yes"/>
      <point x="146" y="521"/>
      <point x="254" y="636"/>
      <point x="415.045" y="636" type="curve" smooth="yes"/>
      <point x="518" y="636"/>
      <point x="601" y="589"/>
      <point x="644" y="504" type="curve"/>
      <point x="715" y="551" type="line"/>
      <point x="657" y="655"/>
      <point x="545" y="716"/>
      <point x="414.306" y="716" type="curve" smooth="yes"/>
      <point x="208" y="716"/>
      <point x="60" y="564"/>
      <point x="60" y="350.199" type="curve" smooth="yes"/>
      <point x="60" y="143"/>
      <point x="199" y="-16"/>
      <point x="417.863" y="-16" type="curve" smooth="yes"/>
      <point x="615" y="-16"/>
      <point x="742" y="113"/>
    </contour>
  </outline>
</glyph>
<glyph name="H" format="2">
  <advance width="716"/>
  <unicode hex="0048"/>
  <outline>
    <contour>
      <point x="92" y="0" type="line"/>
      <point x="176" y="0" type="line"/>
      <point x="176" y="332" type="line"/>
      <point x="540" y="332" type="line"/>
      <point x="540" y="0" type="line"/>
      <point x="624" y="0" type="line"/>
      <point x="624" y="700" type="line"/>
      <point x="540" y="700" type="line"/>
      <point x="540" y="410" type="line"/>
      <point x="176" y="410" type="line"/>
      <point x="176" y="700" type="line"/>
      <point x="92" y="700" type="line"/>
    </contour>
  </outline>
</glyph>
<glyph name="I" format="2">
  <advance width="270"/>
  <unicode hex="0049"/>
  <anchor x="135" y="700" name="top"/>
  <outline>
    <contour>
      <point x="92" y="0" type="line"/>
      <point x="178" y="0" type="line"/>
      <point x="178" y="700" type="line"/>
      <point x="92" y="700" type="line"/>
    </contour>
  </outline>
</glyph>
<glyph name="J" format="2">
  <advance width="583"/>
  <unicode hex="004A"/>
  <outline>
    <contour>
      <point x="275" y="68" type="curve" smooth="yes"/>
      <point x="356" y="68"/>
      <point x="411" y="127"/>
      <point x="411" y="220" type="curve" smooth="yes"/>
      <point x="411" y="700" type="line"/>
      <point x="497" y="700" type="line"/>
      <point x="497" y="209" type="line" smooth="yes"/>
      <point x="497" y="75"/>
      <point x="408" y="-14"/>
      <point x="275" y="-14" type="curve" smooth="yes"/>
      <point x="142" y="-14"/>
      <point x="53" y="75"/>
      <point x="53" y="229" type="curve" smooth="yes"/>
      <point x="53" y="253" type="line"/>
      <point x="139" y="260" type="line"/>
      <point x="139" y="236" type="line" smooth="yes"/>
      <point x="139" y="126"/>
      <point x="193" y="68"/>
    </contour>
  </outline>
</glyph>
<glyph name="K" format="2">
  <advance width="640"/>
  <unicode hex="004B"/>
  <outline>
    <contour>
      <point x="92" y="0" type="line"/>
      <point x="176" y="0" type="line"/>
      <point x="176" y="700" type="line"/>
      <point x="92" y="700" type="line"/>
    </contour>
    <contour>
      <point x="168" y="179" type="line"/>
      <point x="597" y="700" type="line"/>
      <point x="491" y="700" type="line"/>
      <point x="168" y="298" type="line"/>
    </contour>
    <contour>
      <point x="304" y="356" type="line"/>
      <point x="512" y="0" type="line"/>
      <point x="614" y="0" type="line"/>
      <point x="355" y="428" type="line"/>
    </contour>
  </outline>
</glyph>
<glyph name="L" format="2">
  <advance width="558"/>
  <unicode hex="004C"/>
  <outline>
    <contour>
      <point x="92" y="0" type="line"/>
      <point x="520" y="0" type="line"/>
      <point x="520" y="78" type="line"/>
      <point x="176" y="78" type="line"/>
      <point x="176" y="700" type="line"/>
      <point x="92" y="700" type="line"/>
    </contour>
  </outline>
</glyph>
<glyph name="M" format="2">
  <advance width="878"/>
  <unicode hex="004D"/>
  <outline>
    <contour>
      <point x="444" y="187" type="line"/>
      <point x="210" y="700" type="line"/>
      <point x="92" y="700" type="line"/>
      <point x="92" y="0" type="line"/>
      <point x="177" y="0" type="line"/>
      <point x="177" y="611" type="line"/>
      <point x="166" y="601" type="line"/>
      <point x="404" y="81" type="line"/>
      <point x="474" y="81" type="line"/>
      <point x="712" y="601" type="line"/>
      <point x="701" y="611" type="line"/>
      <point x="701" y="0" type="line"/>
      <point x="786" y="0" type="line"/>
      <point x="786" y="700" type="line"/>
      <point x="670" y="700" type="line"/>
      <point x="436" y="187" type="line"/>
    </contour>
  </outline>
</glyph>
<glyph name="N" format="2">
  <advance width="740"/>
  <unicode hex="004E"/>
  <outline>
    <contour>
      <point x="92" y="0" type="line"/>
      <point x="174" y="0" type="line"/>
      <point x="174" y="564" type="line"/>
      <point x="560" y="0" type="line"/>
      <point x="648" y="0" type="line"/>
      <point x="648" y="700" type="line"/>
      <point x="566" y="700" type="line"/>
      <point x="566" y="136" type="line"/>
      <point x="180" y="700" type="line"/>
      <point x="92" y="700" type="line"/>
    </contour>
  </outline>
</glyph>
<glyph name="O" format="2">
  <advance width="829"/>
  <unicode hex="004F"/>
  <outline>
    <contour>
      <point x="415" y="-16" type="curve" smooth="yes"/>
      <point x="619" y="-16"/>
      <point x="769" y="138"/>
      <point x="769" y="350" type="curve" smooth="yes"/>
      <point x="769" y="562"/>
      <point x="619" y="716"/>
      <point x="415" y="716" type="curve" smooth="yes"/>
      <point x="211" y="716"/>
      <point x="60" y="562"/>
      <point x="60" y="350" type="curve" smooth="yes"/>
      <point x="60" y="138"/>
      <point x="211" y="-16"/>
    </contour>
    <contour>
      <point x="415" y="66" type="curve" smooth="yes"/>
      <point x="258" y="66"/>
      <point x="148" y="182"/>
      <point x="148" y="350" type="curve" smooth="yes"/>
      <point x="148" y="518"/>
      <point x="258" y="634"/>
      <point x="415" y="634" type="curve" smooth="yes"/>
      <point x="572" y="634"/>
      <point x="681" y="518"/>
      <point x="681" y="350" type="curve" smooth="yes"/>
      <point x="681" y="182"/>
      <point x="572" y="66"/>
    </contour>
  </outline>
</glyph>
<glyph name="P" format="2">
  <advance width="633"/>
  <unicode hex="0050"/>
  <outline>
    <contour>
      <point x="92" y="0" type="line"/>
      <point x="174" y="0" type="line"/>
      <point x="174" y="258" type="line"/>
      <point x="364" y="258" type="line" smooth="yes"/>
      <point x="497" y="258"/>
      <point x="585" y="347"/>
      <point x="585" y="479" type="curve" smooth="yes"/>
      <point x="585" y="611"/>
      <point x="496" y="700"/>
      <point x="363" y="700" type="curve" smooth="yes"/>
      <point x="92" y="700" type="line"/>
    </contour>
    <contour>
      <point x="174" y="336" type="line"/>
      <point x="174" y="622" type="line"/>
      <point x="358" y="622" type="line" smooth="yes"/>
      <point x="443" y="622"/>
      <point x="501" y="566"/>
      <point x="501" y="480" type="curve" smooth="yes"/>
      <point x="501" y="393"/>
      <point x="444" y="336"/>
      <point x="358" y="336" type="curve" smooth="yes"/>
    </contour>
  </outline>
</glyph>
<glyph name="Q" format="2">
  <advance width="829"/>
  <unicode hex="0051"/>
  <outline>
    <contour>
      <point x="747" y="-3" type="line"/>
      <point x="531" y="267" type="line"/>
      <point x="475" y="221" type="line"/>
      <point x="692" y="-50" type="line"/>
    </contour>
    <contour>
      <point x="415" y="-16" type="curve" smooth="yes"/>
      <point x="619" y="-16"/>
      <point x="769" y="140"/>
      <point x="769" y="350" type="curve" smooth="yes"/>
      <point x="769" y="560"/>
      <point x="619" y="716"/>
      <point x="415" y="716" type="curve" smooth="yes"/>
      <point x="211" y="716"/>
      <point x="60" y="560"/>
      <point x="60" y="350" type="curve" smooth="yes"/>
      <point x="60" y="140"/>
      <point x="211" y="-16"/>
    </contour>
    <contour>
      <point x="415" y="66" type="curve" smooth="yes"/>
      <point x="258" y="66"/>
      <point x="148" y="183"/>
      <point x="148" y="350" type="curve" smooth="yes"/>
      <point x="148" y="514"/>
      <point x="258" y="634"/>
      <point x="415" y="634" type="curve" smooth="yes"/>
      <point x="572" y="634"/>
      <point x="681" y="514"/>
      <point x="681" y="350" type="curve" smooth="yes"/>
      <point x="681" y="183"/>
      <point x="572" y="66"/>
    </contour>
  </outline>
</glyph>
<glyph name="R" format="2">
  <advance width="629"/>
  <unicode hex="0052"/>
  <outline>
    <contour>
      <point x="92" y="0" type="line"/>
      <point x="175" y="0" type="line"/>
      <point x="175" y="265" type="line"/>
      <point x="359" y="265" type="line" smooth="yes"/>
      <point x="493" y="265"/>
      <point x="581" y="353"/>
      <point x="581" y="483" type="curve" smooth="yes"/>
      <point x="581" y="613"/>
      <point x="493" y="700"/>
      <point x="359" y="700" type="curve" smooth="yes"/>
      <point x="92" y="700" type="line"/>
    </contour>
    <contour>
      <point x="175" y="345" type="line"/>
      <point x="175" y="620" type="line"/>
      <point x="352" y="620" type="line" smooth="yes"/>
      <point x="439" y="620"/>
      <point x="497" y="566"/>
      <point x="497" y="483" type="curve" smooth="yes"/>
      <point x="497" y="400"/>
      <point x="440" y="345"/>
      <point x="352" y="345" type="curve" smooth="yes"/>
    </contour>
    <contour>
      <point x="302" y="292" type="line"/>
      <point x="504" y="0" type="line"/>
      <point x="603" y="0" type="line"/>
      <point x="372" y="328" type="line"/>
    </contour>
  </outline>
</glyph>
<glyph name="S" format="2">
  <advance width="619"/>
  <unicode hex="0053"/>
  <outline>
    <contour>
      <point x="312" y="-16" type="curve" smooth="yes"/>
      <point x="467" y="-16"/>
      <point x="565" y="66"/>
      <point x="565" y="197" type="curve" smooth="yes"/>
      <point x="565" y="461"/>
      <point x="150" y="346"/>
      <point x="150" y="523" type="curve" smooth="yes"/>
      <point x="150" y="591"/>
      <point x="211" y="636"/>
      <point x="302" y="636" type="curve" smooth="yes"/>
      <point x="386" y="636"/>
      <point x="449" y="597"/>
      <point x="486" y="522" type="curve"/>
      <point x="559" y="567" type="line"/>
      <point x="511" y="663"/>
      <point x="418" y="716"/>
      <point x="303" y="716" type="curve" smooth="yes"/>
      <point x="161" y="716"/>
      <point x="66" y="636"/>
      <point x="66" y="515" type="curve" smooth="yes"/>
      <point x="66" y="263"/>
      <point x="481" y="374"/>
      <point x="481" y="187" type="curve" smooth="yes"/>
      <point x="481" y="112"/>
      <point x="416" y="64"/>
      <point x="314" y="64" type="curve" smooth="yes"/>
      <point x="217" y="64"/>
      <point x="149" y="107"/>
      <point x="109" y="194" type="curve"/>
      <point x="34" y="150" type="line"/>
      <point x="86" y="41"/>
      <point x="181" y="-16"/>
    </contour>
  </outline>
</glyph>
<glyph name="T" format="2">
  <advance width="595"/>
  <unicode hex="0054"/>
  <outline>
    <contour>
      <point x="38" y="700" type="line"/>
      <point x="38" y="619" type="line"/>
      <point x="254" y="619" type="line"/>
      <point x="254" y="0" type="line"/>
      <point x="341" y="0" type="line"/>
      <point x="341" y="619" type="line"/>
      <point x="557" y="619" type="line"/>
      <point x="557" y="700" type="line"/>
    </contour>
  </outline>
</glyph>
<glyph name="U" format="2">
  <advance width="698"/>
  <unicode hex="0055"/>
  <outline>
    <contour>
      <point x="349" y="-16" type="curve" smooth="yes"/>
      <point x="503" y="-16"/>
      <point x="612" y="87"/>
      <point x="612" y="260" type="curve" smooth="yes"/>
      <point x="612" y="700" type="line"/>
      <point x="528" y="700" type="line"/>
      <point x="528" y="270" type="line" smooth="yes"/>
      <point x="528" y="137"/>
      <point x="456" y="64"/>
      <point x="349" y="64" type="curve" smooth="yes"/>
      <point x="242" y="64"/>
      <point x="170" y="137"/>
      <point x="170" y="270" type="curve" smooth="yes"/>
      <point x="170" y="700" type="line"/>
      <point x="86" y="700" type="line"/>
      <point x="86" y="260" type="line" smooth="yes"/>
      <point x="86" y="87"/>
      <point x="195" y="-16"/>
    </contour>
  </outline>
</glyph>
<glyph name="V" format="2">
  <advance width="662"/>
  <unicode hex="0056"/>
  <outline>
    <contour>
      <point x="282" y="0" type="line"/>
      <point x="380" y="0" type="line"/>
      <point x="636" y="700" type="line"/>
      <point x="543" y="700" type="line"/>
      <point x="325" y="82" type="line"/>
      <point x="339" y="82" type="line"/>
      <point x="120" y="700" type="line"/>
      <point x="26" y="700" type="line"/>
    </contour>
  </outline>
</glyph>
<glyph name="W" format="2">
  <advance width="1010"/>
  <unicode hex="0057"/>
  <outline>
    <contour>
      <point x="237" y="0" type="line"/>
      <point x="329" y="0" type="line"/>
      <point x="508" y="595" type="line"/>
      <point x="502" y="595" type="line"/>
      <point x="681" y="0" type="line"/>
      <point x="773" y="0" type="line"/>
      <point x="984" y="700" type="line"/>
      <point x="890" y="700" type="line"/>
      <point x="717" y="97" type="line"/>
      <point x="730" y="97" type="line"/>
      <point x="551" y="700" type="line"/>
      <point x="459" y="700" type="line"/>
      <point x="280" y="97" type="line"/>
      <point x="293" y="97" type="line"/>
      <point x="120" y="700" type="line"/>
      <point x="26" y="700" type="line"/>
    </contour>
  </outline>
</glyph>
<glyph name="X" format="2">
  <advance width="626"/>
  <unicode hex="0058"/>
  <outline>
    <contour>
      <point x="267" y="353" type="line"/>
      <point x="359" y="353" type="line"/>
      <point x="583" y="700" type="line"/>
      <point x="488" y="700" type="line"/>
      <point x="299" y="401" type="line"/>
      <point x="330" y="401" type="line"/>
      <point x="141" y="700" type="line"/>
      <point x="43" y="700" type="line"/>
    </contour>
    <contour>
      <point x="26" y="0" type="line"/>
      <point x="123" y="0" type="line"/>
      <point x="327" y="323" type="line"/>
      <point x="296" y="323" type="line"/>
      <point x="500" y="0" type="line"/>
      <point x="600" y="0" type="line"/>
      <point x="357" y="376" type="line"/>
      <point x="269" y="376" type="line"/>
    </contour>
  </outline>
</glyph>
<glyph name="Y" format="2">
  <advance width="612"/>
  <unicode hex="0059"/>
  <outline>
    <contour>
      <point x="263" y="0" type="line"/>
      <point x="349" y="0" type="line"/>
      <point x="349" y="288" type="line"/>
      <point x="586" y="700" type="line"/>
      <point x="488" y="700" type="line"/>
      <point x="300" y="358" type="line"/>
      <point x="312" y="358" type="line"/>
      <point x="124" y="700" type="line"/>
      <point x="26" y="700" type="line"/>
      <point x="263" y="288" type="line"/>
    </contour>
  </outline>
</glyph>
<glyph name="Z" format="2">
  <advance width="673"/>
  <unicode hex="005A"/>
  <outline>
    <contour>
      <point x="90" y="622" type="line"/>
      <point x="503" y="622" type="line"/>
      <point x="78" y="84" type="line"/>
      <point x="78" y="0" type="line"/>
      <point x="595" y="0" type="line"/>
      <point x="595" y="78" type="line"/>
      <point x="171" y="78" type="line"/>
      <point x="595" y="616" type="line"/>
      <point x="595" y="700" type="line"/>
      <point x="90" y="700" type="line"/>
    </contour>
  </outline>
</glyph>
<glyph name="bracketleft" format="2">
  <advance width="345"/>
  <unicode hex="005B"/>
  <outline>
    <contour>
      <point x="79" y="-172" type="line"/>
      <point x="305" y="-172" type="line"/>
      <point x="305" y="-98" type="line"/>
      <point x="157" y="-98" type="line"/>
      <point x="157" y="676" type="line"/>
      <point x="305" y="676" type="line"/>
      <point x="305" y="750" type="line"/>
      <point x="79" y="750" type="line"/>
    </contour>
  </outline>
</glyph>
<glyph name="bracketright" format="2">
  <advance width="345"/>
  <unicode hex="005D"/>
  <outline>
    <contour>
      <point x="266" y="-172" type="line"/>
      <point x="266" y="750" type="line"/>
      <point x="40" y="750" type="line"/>
      <point x="40" y="676" type="line"/>
      <point x="188" y="676" type="line"/>
      <point x="188" y="-98" type="line"/>
      <point x="40" y="-98" type="line"/>
      <point x="40" y="-172" type="line"/>
    </contour>
  </outline>
</glyph>
<glyph name="asciicircum" format="2">
  <advance width="572"/>
  <unicode hex="005E"/>
  <outline>
    <contour>
      <point x="114" y="277" type="line"/>
      <point x="328" y="700" type="line"/>
      <point x="240" y="700" type="line"/>
      <point x="26" y="277" type="line"/>
    </contour>
    <contour>
      <point x="455" y="277" type="line"/>
      <point x="543" y="277" type="line"/>
      <point x="328" y="700" type="line"/>
      <point x="240" y="700" type="line"/>
    </contour>
  </outline>
</glyph>
<glyph name="underscore" format="2">
  <advance width="580"/>
  <unicode hex="005F"/>
  <outline>
    <contour>
      <point x="50" y="-118" type="line"/>
      <point x="530" y="-118" type="line"/>
      <point x="530" y="-38" type="line"/>
      <point x="50" y="-38" type="line"/>
    </contour>
  </outline>
</glyph>
<glyph name="grave" format="2">
  <advance width="208"/>
  <unicode hex="0060"/>
  <outline>
    <contour>
      <point x="110" y="600" type="line"/>
      <point x="188" y="600" type="line"/>
      <point x="104" y="746" type="line"/>
      <point x="20" y="746" type="line"/>
    </contour>
  </outline>
</glyph>
<glyph name="a" format="2">
  <advance width="540"/>
  <unicode hex="0061"/>
  <anchor x="263" y="500" name="top"/>
  <outline>
    <contour>
      <point x="42" y="136.901" type="curve" smooth="yes"/>
      <point x="42" y="46"/>
      <point x="110" y="-14"/>
      <point x="215.036" y="-14" type="curve" smooth="yes"/>
      <point x="308" y="-14"/>
      <point x="376" y="33"/>
      <point x="408" y="118" type="curve"/>
      <point x="390" y="118" type="line"/>
      <point x="390" y="0" type="line"/>
      <point x="470" y="0" type="line"/>
      <point x="470" y="321" type="line" smooth="yes"/>
      <point x="470" y="437"/>
      <point x="387" y="514"/>
      <point x="262.28" y="514" type="curve" smooth="yes"/>
      <point x="168" y="514"/>
      <point x="94" y="470"/>
      <point x="56" y="391" type="curve"/>
      <point x="125" y="356" type="line"/>
      <point x="152" y="411"/>
      <point x="198" y="441"/>
      <point x="261.137" y="441" type="curve" smooth="yes"/>
      <point x="341" y="441"/>
      <point x="390" y="393"/>
      <point x="390" y="312" type="curve" smooth="yes"/>
      <point x="390" y="213" type="line" smooth="yes"/>
      <point x="390" y="128"/>
      <point x="320" y="59"/>
      <point x="227.198" y="59" type="curve" smooth="yes"/>
      <point x="164" y="59"/>
      <point x="124" y="91"/>
      <point x="124" y="141.184" type="curve" smooth="yes"/>
      <point x="124" y="195"/>
      <point x="170" y="226"/>
      <point x="256" y="230" type="curve" smooth="yes"/>
      <point x="423" y="238" type="line"/>
      <point x="417" y="306" type="line"/>
      <point x="250" y="298" type="line" smooth="yes"/>
      <point x="118" y="292"/>
      <point x="42" y="233"/>
    </contour>
  </outline>
</glyph>
<glyph name="b" format="2">
  <advance width="633"/>
  <unicode hex="0062"/>
  <outline>
    <contour>
      <point x="76" y="0" type="line"/>
      <point x="157" y="0" type="line"/>
      <point x="157" y="722" type="line"/>
      <point x="76" y="722" type="line"/>
    </contour>
    <contour>
      <point x="342.904" y="-14" type="curve" smooth="yes"/>
      <point x="483" y="-14"/>
      <point x="587" y="97"/>
      <point x="587" y="250" type="curve" smooth="yes"/>
      <point x="587" y="403"/>
      <point x="483" y="514"/>
      <point x="342.904" y="514" type="curve" smooth="yes"/>
      <point x="206" y="514"/>
      <point x="113" y="408"/>
      <point x="113" y="250" type="curve" smooth="yes"/>
      <point x="113" y="92"/>
      <point x="206" y="-14"/>
    </contour>
    <contour>
      <point x="331" y="62" type="curve" smooth="yes"/>
      <point x="228" y="62"/>
      <point x="157" y="142"/>
      <point x="157" y="250" type="curve" smooth="yes"/>
      <point x="157" y="358"/>
      <point x="228" y="438"/>
      <point x="331" y="438" type="curve" smooth="yes"/>
      <point x="434" y="438"/>
      <point x="505" y="358"/>
      <point x="505" y="250" type="curve" smooth="yes"/>
      <point x="505" y="142"/>
      <point x="434" y="62"/>
    </contour>
  </outline>
</glyph>
<glyph name="c" format="2">
  <advance width="560"/>
  <unicode hex="0063"/>
  <outline>
    <contour>
      <point x="304" y="-14" type="curve" smooth="yes"/>
      <point x="402" y="-14"/>
      <point x="479" y="32"/>
      <point x="520" y="116" type="curve"/>
      <point x="453" y="156" type="line"/>
      <point x="421" y="94"/>
      <point x="368" y="62"/>
      <point x="302" y="62" type="curve" smooth="yes"/>
      <point x="199" y="62"/>
      <point x="128" y="142"/>
      <point x="128" y="250" type="curve" smooth="yes"/>
      <point x="128" y="358"/>
      <point x="199" y="438"/>
      <point x="302" y="438" type="curve" smooth="yes"/>
      <point x="368" y="438"/>
      <point x="421" y="406"/>
      <point x="453" y="344" type="curve"/>
      <point x="520" y="384" type="line"/>
      <point x="479" y="468"/>
      <point x="402" y="514"/>
      <point x="304" y="514" type="curve" smooth="yes"/>
      <point x="151" y="514"/>
      <point x="46" y="402"/>
      <point x="46" y="250" type="curve" smooth="yes"/>
      <point x="46" y="98"/>
      <point x="151" y="-14"/>
    </contour>
  </outline>
</glyph>
<glyph name="e" format="2">
  <advance width="586"/>
  <unicode hex="0065"/>
  <outline>
    <contour>
      <point x="306" y="-14" type="curve" smooth="yes"/>
      <point x="155" y="-14"/>
      <point x="46" y="96"/>
      <point x="46" y="250" type="curve" smooth="yes"/>
      <point x="46" y="402"/>
      <point x="154" y="514"/>
      <point x="303" y="514" type="curve" smooth="yes"/>
      <point x="443" y="514"/>
      <point x="540" y="415"/>
      <point x="540" y="272" type="curve" smooth="yes"/>
      <point x="540" y="257"/>
      <point x="539" y="242"/>
      <point x="537" y="227" type="curve"/>
      <point x="110" y="227" type="line"/>
      <point x="110" y="299" type="line"/>
      <point x="466" y="299" type="line"/>
      <point x="458" y="292" type="line"/>
      <point x="458" y="378"/>
      <point x="393" y="440"/>
      <point x="302" y="440" type="curve" smooth="yes"/>
      <point x="199" y="440"/>
      <point x="128" y="360"/>
      <point x="128" y="251" type="curve" smooth="yes"/>
      <point x="128" y="140"/>
      <point x="202" y="62"/>
      <point x="308" y="62" type="curve" smooth="yes"/>
      <point x="371" y="62"/>
      <point x="424" y="89"/>
      <point x="456" y="139" type="curve"/>
      <point x="517" y="90" type="line"/>
      <point x="469" y="22"/>
      <point x="393" y="-14"/>
    </contour>
  </outline>
</glyph>
<glyph name="f" format="2">
  <advance width="355"/>
  <unicode hex="0066"/>
  <outline>
    <contour>
      <point x="16" y="500" type="line"/>
      <point x="16" y="426" type="line"/>
      <point x="324" y="426" type="line"/>
      <point x="324" y="500" type="line"/>
    </contour>
    <contour>
      <point x="182" y="539" type="line" smooth="yes"/>
      <point x="182" y="611"/>
      <point x="213" y="652"/>
      <point x="289" y="652" type="curve" smooth="yes"/>
      <point x="325" y="652" type="line"/>
      <point x="325" y="728" type="line"/>
      <point x="284" y="728" type="line" smooth="yes"/>
      <point x="162" y="728"/>
      <point x="102" y="657"/>
      <point x="102" y="542" type="curve" smooth="yes"/>
      <point x="102" y="0" type="line"/>
      <point x="182" y="0" type="line"/>
    </contour>
  </outline>
</glyph>
<glyph name="g" format="2">
  <advance width="513"/>
  <unicode hex="0067"/>
  <outline>
    <contour>
      <point x="127" y="233" type="line"/>
      <point x="84" y="208"/>
      <point x="65" y="172"/>
      <point x="65" y="134.871" type="curve" smooth="yes"/>
      <point x="65" y="89"/>
      <point x="94" y="52"/>
      <point x="142" y="39" type="curve"/>
      <point x="142" y="55" type="line"/>
      <point x="65" y="36"/>
      <point x="18" y="-12"/>
      <point x="18" y="-75.9711" type="curve" smooth="yes"/>
      <point x="18" y="-162"/>
      <point x="103" y="-214"/>
      <point x="247.017" y="-214" type="curve" smooth="yes"/>
      <point x="403" y="-214"/>
      <point x="500" y="-153"/>
      <point x="500" y="-55.1662" type="curve" smooth="yes"/>
      <point x="500" y="32"/>
      <point x="423" y="81"/>
      <point x="273.291" y="81.5988" type="curve" smooth="yes"/>
      <point x="173" y="82"/>
      <point x="136" y="104"/>
      <point x="136" y="144.245" type="curve" smooth="yes"/>
      <point x="136" y="169"/>
      <point x="150" y="188"/>
      <point x="180" y="198" type="curve"/>
    </contour>
    <contour>
      <point x="50" y="345" type="curve" smooth="yes"/>
      <point x="50" y="247"/>
      <point x="130" y="176"/>
      <point x="253" y="176" type="curve" smooth="yes"/>
      <point x="375" y="176"/>
      <point x="456" y="247"/>
      <point x="456" y="345" type="curve" smooth="yes"/>
      <point x="456" y="444"/>
      <point x="376" y="514"/>
      <point x="253" y="514" type="curve" smooth="yes"/>
      <point x="129" y="514"/>
      <point x="50" y="444"/>
    </contour>
    <contour>
      <point x="126" y="345" type="curve" smooth="yes"/>
      <point x="126" y="408"/>
      <point x="178" y="444"/>
      <point x="253" y="444" type="curve" smooth="yes"/>
      <point x="327" y="444"/>
      <point x="380" y="408"/>
      <point x="380" y="345" type="curve" smooth="yes"/>
      <point x="380" y="282"/>
      <point x="327" y="246"/>
      <point x="253" y="246" type="curve" smooth="yes"/>
      <point x="178" y="246"/>
      <point x="126" y="282"/>
    </contour>
    <contour>
      <point x="96" y="-67.264" type="curve" smooth="yes"/>
      <point x="96" y="-18"/>
      <point x="156" y="12"/>
      <point x="261.712" y="12" type="curve" smooth="yes"/>
      <point x="362" y="12"/>
      <point x="419" y="-15"/>
      <point x="419" y="-59.6219" type="curve" smooth="yes"/>
      <point x="419" y="-108"/>
      <point x="352" y="-141"/>
      <point x="245.937" y="-141" type="curve" smooth="yes"/>
      <point x="150" y="-141"/>
      <point x="96" y="-114"/>
    </contour>
    <contour>
      <point x="409" y="427" type="line"/>
      <point x="492" y="509" type="line"/>
      <point x="442" y="558" type="line"/>
      <point x="357" y="471" type="line"/>
    </contour>
  </outline>
</glyph>
<glyph name="h" format="2">
  <advance width="574"/>
  <unicode hex="0068"/>
  <outline>
    <contour>
      <point x="423" y="0" type="line"/>
      <point x="504" y="0" type="line"/>
      <point x="504" y="302" type="line" smooth="yes"/>
      <point x="504" y="431"/>
      <point x="432" y="514"/>
      <point x="317.471" y="514" type="curve" smooth="yes"/>
      <point x="236" y="514"/>
      <point x="173" y="472"/>
      <point x="141" y="395" type="curve"/>
      <point x="157" y="395" type="line"/>
      <point x="157" y="722" type="line"/>
      <point x="76" y="722" type="line"/>
      <point x="76" y="0" type="line"/>
      <point x="157" y="0" type="line"/>
      <point x="157" y="280" type="line" smooth="yes"/>
      <point x="157" y="377"/>
      <point x="216" y="438"/>
      <point x="299.096" y="438" type="curve" smooth="yes"/>
      <point x="378" y="438"/>
      <point x="423" y="383"/>
      <point x="423" y="290" type="curve" smooth="yes"/>
    </contour>
  </outline>
</glyph>
<glyph name="i" format="2">
  <advance width="233"/>
  <unicode hex="0069"/>
  <outline>
    <contour>
      <point x="76" y="500" type="line"/>
      <point x="157" y="500" type="line"/>
      <point x="157" y="0" type="line"/>
      <point x="76" y="0" type="line"/>
    </contour>
    <contour>
      <point x="117" y="611" type="line" smooth="yes"/>
      <point x="148" y="611"/>
      <point x="172" y="635"/>
      <point x="172" y="666" type="curve" smooth="yes"/>
      <point x="172" y="697"/>
      <point x="148" y="721"/>
      <point x="117" y="721" type="curve" smooth="yes"/>
      <point x="116" y="721" type="line" smooth="yes"/>
      <point x="85" y="721"/>
      <point x="61" y="697"/>
      <point x="61" y="666" type="curve" smooth="yes"/>
      <point x="61" y="635"/>
      <point x="85" y="611"/>
      <point x="116" y="611" type="curve" smooth="yes"/>
    </contour>
  </outline>
</glyph>
<glyph name="j" format="2">
  <advance width="233"/>
  <unicode hex="006A"/>
  <outline>
    <component base="dotaccent"/>
    <contour>
      <point x="76" y="0" type="line" smooth="yes"/>
      <point x="76" y="-96"/>
      <point x="51" y="-128"/>
      <point x="-21" y="-128" type="curve" smooth="yes"/>
      <point x="-41" y="-128" type="line"/>
      <point x="-41" y="-206" type="line"/>
      <point x="-12" y="-206" type="line" smooth="yes"/>
      <point x="100" y="-206"/>
      <point x="157" y="-141" name=".hr01"/>
      <point x="157" y="-12" type="curve" smooth="yes"/>
      <point x="157" y="500" type="line"/>
      <point x="76" y="500" type="line"/>
    </contour>
  </outline>
</glyph>
<glyph name="k" format="2">
  <advance width="522"/>
  <unicode hex="006B"/>
  <outline>
    <contour>
      <point x="157" y="722" type="line"/>
      <point x="76" y="722" type="line"/>
      <point x="76" y="0" type="line"/>
      <point x="157" y="0" type="line"/>
    </contour>
    <contour>
      <point x="407" y="0" type="line"/>
      <point x="502" y="0" type="line"/>
      <point x="292" y="296" type="line"/>
      <point x="237" y="246" type="line"/>
    </contour>
    <contour>
      <point x="397" y="500" type="line"/>
      <point x="150" y="237" type="line"/>
      <point x="150" y="132" type="line"/>
      <point x="500" y="500" type="line"/>
    </contour>
  </outline>
</glyph>
<glyph name="l" format="2">
  <advance width="233"/>
  <unicode hex="006C"/>
  <outline>
    <contour>
      <point x="157" y="0" type="line"/>
      <point x="157" y="722" type="line"/>
      <point x="76" y="722" type="line"/>
      <point x="76" y="0" type="line"/>
    </contour>
  </outline>
</glyph>
<glyph name="m" format="2">
  <advance width="861"/>
  <unicode hex="006D"/>
  <outline>
    <contour>
      <point x="393" y="0" type="line"/>
      <point x="474" y="0" type="line"/>
      <point x="474" y="297" type="line" smooth="yes"/>
      <point x="474" y="380"/>
      <point x="526" y="438"/>
      <point x="602" y="438" type="curve" smooth="yes"/>
      <point x="672" y="438"/>
      <point x="710" y="387"/>
      <point x="710" y="297" type="curve" smooth="yes"/>
      <point x="710" y="0" type="line"/>
      <point x="791" y="0" type="line"/>
      <point x="791" y="311" type="line" smooth="yes"/>
      <point x="791" y="437"/>
      <point x="726" y="514"/>
      <point x="617" y="514" type="curve" smooth="yes"/>
      <point x="537" y="514"/>
      <point x="476" y="471"/>
      <point x="441" y="394" type="curve"/>
      <point x="463" y="394" type="line"/>
      <point x="440" y="471"/>
      <point x="382" y="514"/>
      <point x="303" y="514" type="curve" smooth="yes"/>
      <point x="237" y="514"/>
      <point x="184" y="482"/>
      <point x="153" y="424" type="curve"/>
      <point x="157" y="423" type="line"/>
      <point x="157" y="500" type="line"/>
      <point x="76" y="500" type="line"/>
      <point x="76" y="0" type="line"/>
      <point x="157" y="0" type="line"/>
      <point x="157" y="297" type="line" smooth="yes"/>
      <point x="157" y="380"/>
      <point x="209" y="438"/>
      <point x="285" y="438" type="curve" smooth="yes"/>
      <point x="355" y="438"/>
      <point x="393" y="387"/>
      <point x="393" y="297" type="curve" smooth="yes"/>
    </contour>
  </outline>
</glyph>
<glyph name="n" format="2">
  <advance width="574"/>
  <unicode hex="006E"/>
  <outline>
    <contour>
      <point x="423" y="0" type="line"/>
      <point x="504" y="0" type="line"/>
      <point x="504" y="302" type="line" smooth="yes"/>
      <point x="504" y="431"/>
      <point x="432" y="514"/>
      <point x="317" y="514" type="curve" smooth="yes"/>
      <point x="236" y="514"/>
      <point x="173" y="472"/>
      <point x="141" y="395" type="curve"/>
      <point x="157" y="395" type="line"/>
      <point x="157" y="500" type="line"/>
      <point x="76" y="500" type="line"/>
      <point x="76" y="0" type="line"/>
      <point x="157" y="0" type="line"/>
      <point x="157" y="280" type="line" smooth="yes"/>
      <point x="157" y="377"/>
      <point x="216" y="438"/>
      <point x="299" y="438" type="curve" smooth="yes"/>
      <point x="378" y="438"/>
      <point x="423" y="383"/>
      <point x="423" y="290" type="curve" smooth="yes"/>
    </contour>
  </outline>
</glyph>
<glyph name="o" format="2">
  <advance width="608"/>
  <unicode hex="006F"/>
  <anchor x="304" y="500" name="top"/>
  <outline>
    <contour>
      <point x="304" y="-14" type="curve" smooth="yes"/>
      <point x="455" y="-14"/>
      <point x="562" y="100"/>
      <point x="562" y="250" type="curve" smooth="yes"/>
      <point x="562" y="400"/>
      <point x="455" y="514"/>
      <point x="304" y="514" type="curve" smooth="yes"/>
      <point x="153" y="514"/>
      <point x="46" y="400"/>
      <point x="46" y="250" type="curve" smooth="yes"/>
      <point x="46" y="100"/>
      <point x="153" y="-14"/>
    </contour>
    <contour>
      <point x="304" y="62" type="curve" smooth="yes"/>
      <point x="200" y="62"/>
      <point x="128" y="142"/>
      <point x="128" y="250" type="curve" smooth="yes"/>
      <point x="128" y="358"/>
      <point x="200" y="438"/>
      <point x="304" y="438" type="curve" smooth="yes"/>
      <point x="408" y="438"/>
      <point x="480" y="358"/>
      <point x="480" y="250" type="curve" smooth="yes"/>
      <point x="480" y="142"/>
      <point x="408" y="62"/>
    </contour>
  </outline>
</glyph>
<glyph name="p" format="2">
  <advance width="633"/>
  <unicode hex="0070"/>
  <outline>
    <contour>
      <point x="76" y="-200" type="line"/>
      <point x="157" y="-200" type="line"/>
      <point x="157" y="500" type="line"/>
      <point x="76" y="500" type="line"/>
    </contour>
    <contour>
      <point x="341.607" y="-14" type="curve" smooth="yes"/>
      <point x="481" y="-14"/>
      <point x="587" y="98"/>
      <point x="587" y="250" type="curve" smooth="yes"/>
      <point x="587" y="402"/>
      <point x="481" y="514"/>
      <point x="341.607" y="514" type="curve" smooth="yes"/>
      <point x="206" y="514"/>
      <point x="113" y="408"/>
      <point x="113" y="250" type="curve" smooth="yes"/>
      <point x="113" y="92"/>
      <point x="206" y="-14"/>
    </contour>
    <contour>
      <point x="331" y="62" type="curve" smooth="yes"/>
      <point x="228" y="62"/>
      <point x="157" y="142"/>
      <point x="157" y="250" type="curve" smooth="yes"/>
      <point x="157" y="358"/>
      <point x="228" y="438"/>
      <point x="331" y="438" type="curve" smooth="yes"/>
      <point x="434" y="438"/>
      <point x="505" y="358"/>
      <point x="505" y="250" type="curve" smooth="yes"/>
      <point x="505" y="142"/>
      <point x="434" y="62"/>
    </contour>
  </outline>
</glyph>
<glyph name="r" format="2">
  <advance width="352"/>
  <unicode hex="0072"/>
  <outline>
    <contour>
      <point x="76" y="500" type="line"/>
      <point x="157" y="500" type="line"/>
      <point x="157" y="0" type="line"/>
      <point x="76" y="0" type="line"/>
    </contour>
    <contour>
      <point x="330" y="506" type="line"/>
      <point x="330" y="430" type="line"/>
      <point x="304" y="430" type="line" smooth="yes"/>
      <point x="212" y="430"/>
      <point x="157" y="368"/>
      <point x="157" y="264" type="curve"/>
      <point x="125" y="264" type="line"/>
      <point x="133" y="427"/>
      <point x="191" y="506"/>
      <point x="302" y="506" type="curve" smooth="yes"/>
    </contour>
  </outline>
</glyph>
<glyph name="s" format="2">
  <advance width="493"/>
  <unicode hex="0073"/>
  <outline>
    <contour>
      <point x="251.943" y="-14" type="curve" smooth="yes"/>
      <point x="370" y="-14"/>
      <point x="446" y="46"/>
      <point x="446" y="141.81" type="curve" smooth="yes"/>
      <point x="446" y="335"/>
      <point x="137" y="254"/>
      <point x="137" y="369.107" type="curve" smooth="yes"/>
      <point x="137" y="410"/>
      <point x="176" y="443"/>
      <point x="243.208" y="443" type="curve" smooth="yes"/>
      <point x="304" y="443"/>
      <point x="347" y="416"/>
      <point x="377" y="363" type="curve"/>
      <point x="441" y="400" type="line"/>
      <point x="401" y="474"/>
      <point x="333" y="514"/>
      <point x="243.913" y="514" type="curve" smooth="yes"/>
      <point x="133" y="514"/>
      <point x="61" y="452"/>
      <point x="61" y="363.773" type="curve" smooth="yes"/>
      <point x="61" y="181"/>
      <point x="370" y="259"/>
      <point x="370" y="135.979" type="curve" smooth="yes"/>
      <point x="370" y="88"/>
      <point x="323" y="57"/>
      <point x="252.93" y="57" type="curve" smooth="yes"/>
      <point x="184" y="57"/>
      <point x="135" y="87"/>
      <point x="102" y="148" type="curve"/>
      <point x="38" y="110" type="line"/>
      <point x="78" y="29"/>
      <point x="152" y="-14"/>
    </contour>
  </outline>
</glyph>
<glyph name="t" format="2">
  <advance width="362"/>
  <unicode hex="0074"/>
  <outline>
    <contour>
      <point x="16" y="425" type="line"/>
      <point x="328" y="425" type="line"/>
      <point x="328" y="500" type="line"/>
      <point x="16" y="500" type="line"/>
    </contour>
    <contour>
      <point x="185" y="188" type="curve" smooth="yes"/>
      <point x="185" y="640" type="line"/>
      <point x="104" y="640" type="line"/>
      <point x="104" y="181" type="line" smooth="yes"/>
      <point x="104" y="57"/>
      <point x="165" y="-6"/>
      <point x="284" y="-6" type="curve" smooth="yes"/>
      <point x="330" y="-6" type="line"/>
      <point x="330" y="72" type="line"/>
      <point x="293" y="72" type="line" smooth="yes"/>
      <point x="220" y="72"/>
      <point x="185" y="109"/>
    </contour>
  </outline>
</glyph>
<glyph name="v" format="2">
  <advance width="508"/>
  <unicode hex="0076"/>
  <outline>
    <contour>
      <point x="213" y="0" type="line"/>
      <point x="295" y="0" type="line"/>
      <point x="488" y="500" type="line"/>
      <point x="402" y="500" type="line"/>
      <point x="249" y="83" type="line"/>
      <point x="260" y="83" type="line"/>
      <point x="107" y="500" type="line"/>
      <point x="20" y="500" type="line"/>
    </contour>
  </outline>
</glyph>
<glyph name="w" format="2">
  <advance width="792"/>
  <unicode hex="0077"/>
  <outline>
    <contour>
      <point x="184" y="0" type="line"/>
      <point x="266" y="0" type="line"/>
      <point x="400" y="402" type="line"/>
      <point x="392" y="402" type="line"/>
      <point x="526" y="0" type="line"/>
      <point x="608" y="0" type="line"/>
      <point x="772" y="500" type="line"/>
      <point x="689" y="500" type="line"/>
      <point x="563" y="84" type="line"/>
      <point x="571" y="84" type="line"/>
      <point x="434" y="500" type="line"/>
      <point x="360" y="500" type="line"/>
      <point x="223" y="84" type="line"/>
      <point x="230" y="84" type="line"/>
      <point x="104" y="500" type="line"/>
      <point x="20" y="500" type="line"/>
    </contour>
  </outline>
</glyph>
<glyph name="x" format="2">
  <advance width="504"/>
  <unicode hex="0078"/>
  <outline>
    <contour>
      <point x="20" y="0" type="line"/>
      <point x="111" y="0" type="line"/>
      <point x="260" y="219" type="line"/>
      <point x="243" y="219" type="line"/>
      <point x="392" y="0" type="line"/>
      <point x="484" y="0" type="line"/>
      <point x="292" y="266" type="line"/>
      <point x="212" y="266" type="line"/>
    </contour>
    <contour>
      <point x="212" y="240" type="line"/>
      <point x="292" y="240" type="line"/>
      <point x="472" y="500" type="line"/>
      <point x="383" y="500" type="line"/>
      <point x="244" y="288" type="line"/>
      <point x="261" y="288" type="line"/>
      <point x="122" y="500" type="line"/>
      <point x="32" y="500" type="line"/>
    </contour>
  </outline>
</glyph>
<glyph name="y" format="2">
  <advance width="506"/>
  <unicode hex="0079"/>
  <outline>
    <contour>
      <point x="133" y="-200" type="line"/>
      <point x="218" y="-200" type="line"/>
      <point x="486" y="500" type="line"/>
      <point x="402" y="500" type="line"/>
      <point x="257" y="102" type="line"/>
      <point x="104" y="500" type="line"/>
      <point x="20" y="500" type="line"/>
      <point x="216" y="9" type="line"/>
    </contour>
  </outline>
</glyph>
<glyph name="z" format="2">
  <advance width="495"/>
  <unicode hex="007A"/>
  <anchor x="252" y="500" name="top"/>
  <outline>
    <contour>
      <point x="46" y="0" type="line"/>
      <point x="449" y="0" type="line"/>
      <point x="449" y="74" type="line"/>
      <point x="137" y="74" type="line"/>
      <point x="449" y="422" type="line"/>
      <point x="449" y="500" type="line"/>
      <point x="55" y="500" type="line"/>
      <point x="55" y="426" type="line"/>
      <point x="357" y="426" type="line"/>
      <point x="46" y="78" type="line"/>
    </contour>
  </outline>
</glyph>
<glyph name="braceleft" format="2">
  <advance width="409"/>
  <unicode hex="007B"/>
  <outline>
    <contour>
      <point x="369" y="-172" type="line"/>
      <point x="337" y="-172" type="line" smooth="yes"/>
      <point x="208" y="-172"/>
      <point x="142" y="-88"/>
      <point x="142" y="43" type="curve" smooth="yes"/>
      <point x="142" y="177" type="line" smooth="yes"/>
      <point x="142" y="218"/>
      <point x="114" y="245"/>
      <point x="71" y="245" type="curve" smooth="yes"/>
      <point x="50" y="245" type="line"/>
      <point x="50" y="331" type="line"/>
      <point x="72" y="331" type="line" smooth="yes"/>
      <point x="114" y="331"/>
      <point x="142" y="359"/>
      <point x="142" y="400" type="curve" smooth="yes"/>
      <point x="142" y="534" type="line" smooth="yes"/>
      <point x="142" y="665"/>
      <point x="208" y="750"/>
      <point x="337" y="750" type="curve" smooth="yes"/>
      <point x="369" y="750" type="line"/>
      <point x="369" y="676" type="line"/>
      <point x="341" y="676" type="line" smooth="yes"/>
      <point x="262" y="676"/>
      <point x="220" y="619"/>
      <point x="220" y="530" type="curve" smooth="yes"/>
      <point x="220" y="379" type="line" smooth="yes"/>
      <point x="220" y="335"/>
      <point x="194" y="299"/>
      <point x="149" y="289" type="curve"/>
      <point x="194" y="279"/>
      <point x="220" y="241"/>
      <point x="220" y="198" type="curve" smooth="yes"/>
      <point x="220" y="48" type="line" smooth="yes"/>
      <point x="220" y="-41"/>
      <point x="262" y="-98"/>
      <point x="341" y="-98" type="curve" smooth="yes"/>
      <point x="369" y="-98" type="line"/>
    </contour>
  </outline>
</glyph>
<glyph name="bar" format="2">
  <advance width="294"/>
  <unicode hex="007C"/>
  <outline>
    <contour>
      <point x="186" y="-172" type="line"/>
      <point x="186" y="750" type="line"/>
      <point x="108" y="750" type="line"/>
      <point x="108" y="-172" type="line"/>
    </contour>
  </outline>
</glyph>
<glyph name="braceright" format="2">
  <advance width="409"/>
  <unicode hex="007D"/>
  <outline>
    <contour>
      <point x="40" y="-172" type="line"/>
      <point x="40" y="-98" type="line"/>
      <point x="68" y="-98" type="line" smooth="yes"/>
      <point x="147" y="-98"/>
      <point x="189" y="-41"/>
      <point x="189" y="48" type="curve" smooth="yes"/>
      <point x="189" y="198" type="line" smooth="yes"/>
      <point x="189" y="241"/>
      <point x="215" y="279"/>
      <point x="260" y="289" type="curve"/>
      <point x="215" y="299"/>
      <point x="189" y="335"/>
      <point x="189" y="379" type="curve" smooth="yes"/>
      <point x="189" y="530" type="line" smooth="yes"/>
      <point x="189" y="619"/>
      <point x="147" y="676"/>
      <point x="68" y="676" type="curve" smooth="yes"/>
      <point x="40" y="676" type="line"/>
      <point x="40" y="750" type="line"/>
      <point x="72" y="750" type="line" smooth="yes"/>
      <point x="201" y="750"/>
      <point x="267" y="665"/>
      <point x="267" y="534" type="curve" smooth="yes"/>
      <point x="267" y="400" type="line" smooth="yes"/>
      <point x="267" y="359"/>
      <point x="295" y="331"/>
      <point x="337" y="331" type="curve" smooth="yes"/>
      <point x="359" y="331" type="line"/>
      <point x="359" y="245" type="line"/>
      <point x="338" y="245" type="line" smooth="yes"/>
      <point x="295" y="245"/>
      <point x="267" y="218"/>
      <point x="267" y="177" type="curve" smooth="yes"/>
      <point x="267" y="43" type="line" smooth="yes"/>
      <point x="267" y="-88"/>
      <point x="201" y="-172"/>
      <point x="72" y="-172" type="curve" smooth="yes"/>
    </contour>
  </outline>
</glyph>
<glyph name="asciitilde" format="2">
  <advance width="578"/>
  <unicode hex="007E"/>
  <outline>
    <contour>
      <point x="42" y="317" type="curve"/>
      <point x="107" y="272" type="line"/>
      <point x="124" y="311"/>
      <point x="157" y="333"/>
      <point x="196" y="333" type="curve" smooth="yes"/>
      <point x="264" y="333"/>
      <point x="293" y="268"/>
      <point x="384" y="268" type="curve" smooth="yes"/>
      <point x="449" y="268"/>
      <point x="503" y="300"/>
      <point x="536" y="361" type="curve"/>
      <point x="471" y="404" type="line"/>
      <point x="457" y="364"/>
      <point x="419" y="344"/>
      <point x="382" y="344" type="curve" smooth="yes"/>
      <point x="316" y="344"/>
      <point x="285" y="409" name=".hr01"/>
      <point x="195" y="409" type="curve" smooth="yes"/>
      <point x="133" y="409"/>
      <point x="78" y="380"/>
    </contour>
  </outline>
</glyph>
<glyph name="cent" format="2">
  <advance width="560"/>
  <unicode hex="00A2"/>
  <outline>
    <contour>
      <point x="267" y="485" type="line"/>
      <point x="341" y="485" type="line"/>
      <point x="341" y="661" type="line"/>
      <point x="267" y="661" type="line"/>
    </contour>
    <contour>
      <point x="267" y="-152" type="line"/>
      <point x="341" y="-152" type="line"/>
      <point x="341" y="24" type="line"/>
      <point x="267" y="24" type="line"/>
    </contour>
    <contour>
      <point x="304" y="-14" type="curve" smooth="yes"/>
      <point x="402" y="-14"/>
      <point x="479" y="32"/>
      <point x="520" y="116" type="curve"/>
      <point x="453" y="156" type="line"/>
      <point x="421" y="94"/>
      <point x="368" y="62"/>
      <point x="302" y="62" type="curve" smooth="yes"/>
      <point x="199" y="62"/>
      <point x="128" y="142"/>
      <point x="128" y="250" type="curve" smooth="yes"/>
      <point x="128" y="358"/>
      <point x="199" y="438"/>
      <point x="302" y="438" type="curve" smooth="yes"/>
      <point x="368" y="438"/>
      <point x="421" y="406"/>
      <point x="453" y="344" type="curve"/>
      <point x="520" y="384" type="line"/>
      <point x="479" y="468"/>
      <point x="402" y="514"/>
      <point x="304" y="514" type="curve" smooth="yes"/>
      <point x="151" y="514"/>
      <point x="46" y="402"/>
      <point x="46" y="250" type="curve" smooth="yes"/>
      <point x="46" y="98"/>
      <point x="151" y="-14"/>
    </contour>
  </outline>
</glyph>
<glyph name="sterling" format="2">
  <advance width="575"/>
  <unicode hex="00A3"/>
  <outline>
    <contour>
      <point x="141" y="59" type="line"/>
      <point x="189" y="86"/>
      <point x="224" y="147"/>
      <point x="224" y="227" type="curve" smooth="yes"/>
      <point x="224" y="331"/>
      <point x="164" y="399"/>
      <point x="164" y="492" type="curve" smooth="yes"/>
      <point x="164" y="582"/>
      <point x="220" y="640"/>
      <point x="318" y="640" type="curve" smooth="yes"/>
      <point x="396" y="640"/>
      <point x="446" y="604"/>
      <point x="476" y="528" type="curve"/>
      <point x="548" y="558" type="line"/>
      <point x="512" y="660"/>
      <point x="432" y="716"/>
      <point x="319" y="716" type="curve" smooth="yes"/>
      <point x="174" y="716"/>
      <point x="82" y="624"/>
      <point x="82" y="492" type="curve" smooth="yes"/>
      <point x="82" y="384"/>
      <point x="143" y="337"/>
      <point x="143" y="225" type="curve" smooth="yes"/>
      <point x="143" y="135"/>
      <point x="103" y="81"/>
      <point x="35" y="72" type="curve"/>
    </contour>
    <contour>
      <point x="546" y="0" type="line"/>
      <point x="546" y="74" type="line"/>
      <point x="115" y="74" type="line"/>
      <point x="35" y="72" type="line"/>
      <point x="35" y="0" type="line"/>
    </contour>
    <contour>
      <point x="35" y="304" type="line"/>
      <point x="447" y="304" type="line"/>
      <point x="447" y="376" type="line"/>
      <point x="35" y="376" type="line"/>
    </contour>
  </outline>
</glyph>
<glyph name="yen" format="2">
  <advance width="580"/>
  <unicode hex="00A5"/>
  <outline>
    <contour>
      <point x="253" y="0" type="line"/>
      <point x="327" y="0" type="line"/>
      <point x="327" y="299" type="line"/>
      <point x="554" y="700" type="line"/>
      <point x="464" y="700" type="line"/>
      <point x="282" y="361" type="line"/>
      <point x="298" y="361" type="line"/>
      <point x="116" y="700" type="line"/>
      <point x="26" y="700" type="line"/>
      <point x="253" y="299" type="line"/>
    </contour>
    <contour>
      <point x="72" y="279" type="line"/>
      <point x="508" y="279" type="line"/>
      <point x="508" y="345" type="line"/>
      <point x="72" y="345" type="line"/>
    </contour>
    <contour>
      <point x="72" y="121" type="line"/>
      <point x="508" y="121" type="line"/>
      <point x="508" y="187" type="line"/>
      <point x="72" y="187" type="line"/>
    </contour>
  </outline>
</glyph>
<glyph name="section" format="2">
  <advance width="494"/>
  <unicode hex="00A7"/>
  <outline>
    <contour>
      <point x="362" y="216" type="line"/>
      <point x="420" y="253"/>
      <point x="449" y="290"/>
      <point x="449" y="347.056" type="curve" smooth="yes"/>
      <point x="449" y="533"/>
      <point x="141" y="459"/>
      <point x="141" y="575.496" type="curve" smooth="yes"/>
      <point x="141" y="618"/>
      <point x="182" y="648"/>
      <point x="247.104" y="648" type="curve" smooth="yes"/>
      <point x="310" y="648"/>
      <point x="357" y="620"/>
      <point x="385" y="566" type="curve"/>
      <point x="447" y="602" type="line"/>
      <point x="407" y="676"/>
      <point x="338" y="716"/>
      <point x="249.358" y="716" type="curve" smooth="yes"/>
      <point x="139" y="716"/>
      <point x="67" y="654"/>
      <point x="67" y="567.821" type="curve" smooth="yes"/>
      <point x="67" y="389"/>
      <point x="377" y="465"/>
      <point x="377" y="339.447" type="curve" smooth="yes"/>
      <point x="377" y="306"/>
      <point x="355" y="280"/>
      <point x="313" y="256" type="curve"/>
    </contour>
    <contour>
      <point x="245.398" y="-16" type="curve" smooth="yes"/>
      <point x="363" y="-16"/>
      <point x="439" y="43"/>
      <point x="439" y="137.28" type="curve" smooth="yes"/>
      <point x="439" y="328"/>
      <point x="128" y="242"/>
      <point x="128" y="371.207" type="curve" smooth="yes"/>
      <point x="128" y="412"/>
      <point x="159" y="439"/>
      <point x="205" y="460" type="curve"/>
      <point x="151" y="498" type="line"/>
      <point x="85" y="461"/>
      <point x="56" y="421"/>
      <point x="56" y="363.78" type="curve" smooth="yes"/>
      <point x="56" y="177"/>
      <point x="365" y="252"/>
      <point x="365" y="130.052" type="curve" smooth="yes"/>
      <point x="365" y="83"/>
      <point x="319" y="52"/>
      <point x="246.816" y="52" type="curve" smooth="yes"/>
      <point x="177" y="52"/>
      <point x="124" y="81"/>
      <point x="92" y="144" type="curve"/>
      <point x="31" y="108" type="line"/>
      <point x="71" y="27"/>
      <point x="145" y="-16"/>
    </contour>
  </outline>
</glyph>
<glyph name="dieresis" format="2">
  <advance width="384"/>
  <unicode hex="00A8"/>
  <outline>
    <contour>
      <point x="93" y="596" type="curve" smooth="yes"/>
      <point x="127" y="596"/>
      <point x="153" y="622"/>
      <point x="153" y="656" type="curve" smooth="yes"/>
      <point x="153" y="690"/>
      <point x="127" y="716"/>
      <point x="93" y="716" type="curve" smooth="yes"/>
      <point x="59" y="716"/>
      <point x="33" y="690"/>
      <point x="33" y="656" type="curve" smooth="yes"/>
      <point x="33" y="622"/>
      <point x="59" y="596"/>
    </contour>
    <contour>
      <point x="291" y="596" type="curve" smooth="yes"/>
      <point x="325" y="596"/>
      <point x="351" y="622"/>
      <point x="351" y="656" type="curve" smooth="yes"/>
      <point x="351" y="690"/>
      <point x="325" y="716"/>
      <point x="291" y="716" type="curve" smooth="yes"/>
      <point x="257" y="716"/>
      <point x="231" y="690"/>
      <point x="231" y="656" type="curve" smooth="yes"/>
      <point x="231" y="622"/>
      <point x="257" y="596"/>
    </contour>
  </outline>
</glyph>
<glyph name="copyright" format="2">
  <advance width="928"/>
  <unicode hex="00A9"/>
  <outline>
    <contour>
      <point x="464" y="-36" type="curve" smooth="yes"/>
      <point x="282" y="-36"/>
      <point x="156" y="101"/>
      <point x="156" y="280" type="curve" smooth="yes"/>
      <point x="156" y="459"/>
      <point x="282" y="596"/>
      <point x="464" y="596" type="curve" smooth="yes"/>
      <point x="646" y="596"/>
      <point x="772" y="459"/>
      <point x="772" y="280" type="curve" smooth="yes"/>
      <point x="772" y="101"/>
      <point x="646" y="-36"/>
    </contour>
    <contour>
      <point x="464" y="654" type="curve" smooth="yes"/>
      <point x="249" y="654"/>
      <point x="96" y="494"/>
      <point x="96" y="280" type="curve" smooth="yes"/>
      <point x="96" y="66"/>
      <point x="249" y="-94"/>
      <point x="464" y="-94" type="curve" smooth="yes"/>
      <point x="679" y="-94"/>
      <point x="832" y="66"/>
      <point x="832" y="280" type="curve" smooth="yes"/>
      <point x="832" y="494"/>
      <point x="679" y="654"/>
    </contour>
    <contour>
      <point x="466.752" y="85" type="curve" smooth="yes"/>
      <point x="540" y="85"/>
      <point x="598" y="119"/>
      <point x="629" y="184" type="curve"/>
      <point x="577" y="214" type="line"/>
      <point x="556" y="167"/>
      <point x="516" y="143"/>
      <point x="467.068" y="143" type="curve" smooth="yes"/>
      <point x="391" y="143"/>
      <point x="339" y="201"/>
      <point x="339" y="280" type="curve" smooth="yes"/>
      <point x="339" y="359"/>
      <point x="391" y="417"/>
      <point x="467.068" y="417" type="curve" smooth="yes"/>
      <point x="516" y="417"/>
      <point x="554" y="393"/>
      <point x="576" y="350" type="curve"/>
      <point x="628" y="380" type="line"/>
      <point x="596" y="443"/>
      <point x="540" y="475"/>
      <point x="468.099" y="475" type="curve" smooth="yes"/>
      <point x="353" y="475"/>
      <point x="276" y="393"/>
      <point x="276" y="280" type="curve" smooth="yes"/>
      <point x="276" y="167"/>
      <point x="353" y="85"/>
    </contour>
  </outline>
</glyph>
<glyph name="ordfeminine" format="2">
  <advance width="312"/>
  <unicode hex="00AA"/>
  <outline>
    <contour>
      <point x="28" y="426" type="curve" smooth="yes"/>
      <point x="28" y="376"/>
      <point x="65" y="340"/>
      <point x="126" y="340" type="curve" smooth="yes"/>
      <point x="197" y="340"/>
      <point x="240" y="388"/>
      <point x="242" y="465" type="curve"/>
      <point x="223" y="471" type="line"/>
      <point x="223" y="424"/>
      <point x="185" y="390"/>
      <point x="138" y="390" type="curve" smooth="yes"/>
      <point x="104" y="390"/>
      <point x="84" y="405"/>
      <point x="84" y="429" type="curve" smooth="yes"/>
      <point x="84" y="454"/>
      <point x="106" y="472"/>
      <point x="164" y="474" type="curve" smooth="yes"/>
      <point x="245" y="477" type="line"/>
      <point x="245" y="522" type="line"/>
      <point x="157" y="519" type="line" smooth="yes"/>
      <point x="72" y="516"/>
      <point x="28" y="481"/>
    </contour>
    <contour>
      <point x="223" y="349" type="line"/>
      <point x="279" y="349" type="line"/>
      <point x="279" y="526" type="line" smooth="yes"/>
      <point x="279" y="596"/>
      <point x="232" y="639"/>
      <point x="158" y="639" type="curve" smooth="yes"/>
      <point x="100" y="639"/>
      <point x="57" y="613"/>
      <point x="35" y="568" type="curve"/>
      <point x="84" y="544" type="line"/>
      <point x="98" y="574"/>
      <point x="125" y="589"/>
      <point x="157" y="589" type="curve" smooth="yes"/>
      <point x="198" y="589"/>
      <point x="223" y="565"/>
      <point x="223" y="527" type="curve" smooth="yes"/>
    </contour>
  </outline>
</glyph>
<glyph name="guillemotleft" format="2">
  <advance width="561"/>
  <unicode hex="00AB"/>
  <outline>
    <contour>
      <point x="250" y="250" type="line"/>
      <point x="453" y="503" type="line"/>
      <point x="513" y="459" type="line"/>
      <point x="344" y="250" type="line"/>
      <point x="513" y="41" type="line"/>
      <point x="453" y="-3" type="line"/>
    </contour>
    <contour>
      <point x="40" y="250" type="line"/>
      <point x="243" y="503" type="line"/>
      <point x="303" y="459" type="line"/>
      <point x="134" y="250" type="line"/>
      <point x="303" y="41" type="line"/>
      <point x="243" y="-3" type="line"/>
    </contour>
  </outline>
</glyph>
<glyph name="macron" format="2">
  <advance width="332"/>
  <unicode hex="00AF"/>
  <outline>
    <contour>
      <point x="30" y="611" type="line"/>
      <point x="302" y="611" type="line"/>
      <point x="302" y="677" type="line"/>
      <point x="30" y="677" type="line"/>
    </contour>
  </outline>
</glyph>
<glyph name="plusminus" format="2">
  <advance width="586"/>
  <unicode hex="00B1"/>
  <outline>
    <contour>
      <point x="58" y="395" type="line"/>
      <point x="254" y="395" type="line"/>
      <point x="254" y="189" type="line"/>
      <point x="332" y="189" type="line"/>
      <point x="332" y="395" type="line"/>
      <point x="528" y="395" type="line"/>
      <point x="528" y="471" type="line"/>
      <point x="332" y="471" type="line"/>
      <point x="332" y="677" type="line"/>
      <point x="254" y="677" type="line"/>
      <point x="254" y="471" type="line"/>
      <point x="58" y="471" type="line"/>
    </contour>
    <contour>
      <point x="58" y="33" type="line"/>
      <point x="528" y="33" type="line"/>
      <point x="528" y="107" type="line"/>
      <point x="58" y="107" type="line"/>
    </contour>
  </outline>
</glyph>
<glyph name="twosuperior" format="2">
  <advance width="315"/>
  <unicode hex="00B2"/>
  <outline>
    <contour>
      <point x="26" y="324" type="line"/>
      <point x="291" y="324" type="line"/>
      <point x="291" y="380" type="line"/>
      <point x="86" y="380" type="line"/>
      <point x="84" y="364" type="line"/>
      <point x="201" y="461" type="line" smooth="yes"/>
      <point x="264" y="514"/>
      <point x="288" y="549"/>
      <point x="288" y="594" type="curve" smooth="yes"/>
      <point x="288" y="663"/>
      <point x="238" y="709"/>
      <point x="157" y="709" type="curve" smooth="yes"/>
      <point x="93" y="709"/>
      <point x="46" y="679"/>
      <point x="18" y="622" type="curve"/>
      <point x="69" y="596" type="line"/>
      <point x="86" y="632"/>
      <point x="118" y="653"/>
      <point x="157" y="653" type="curve" smooth="yes"/>
      <point x="200" y="653"/>
      <point x="228" y="627"/>
      <point x="228" y="591" type="curve" smooth="yes"/>
      <point x="228" y="562"/>
      <point x="208" y="534"/>
      <point x="172" y="504" type="curve" smooth="yes"/>
      <point x="26" y="382" type="line"/>
    </contour>
  </outline>
</glyph>
<glyph name="threesuperior" format="2">
  <advance width="334"/>
  <unicode hex="00B3"/>
  <outline>
    <contour>
      <point x="168" y="315" type="curve" smooth="yes"/>
      <point x="252" y="315"/>
      <point x="310" y="360"/>
      <point x="310" y="429" type="curve" smooth="yes"/>
      <point x="310" y="476"/>
      <point x="284" y="510"/>
      <point x="236" y="521" type="curve"/>
      <point x="236" y="514" type="line"/>
      <point x="278" y="525"/>
      <point x="302" y="557"/>
      <point x="302" y="601" type="curve" smooth="yes"/>
      <point x="302" y="666"/>
      <point x="249" y="709"/>
      <point x="171" y="709" type="curve" smooth="yes"/>
      <point x="106" y="709"/>
      <point x="58" y="679"/>
      <point x="30" y="624" type="curve"/>
      <point x="82" y="598" type="line"/>
      <point x="98" y="635"/>
      <point x="129" y="653"/>
      <point x="169" y="653" type="curve" smooth="yes"/>
      <point x="212" y="653"/>
      <point x="242" y="630"/>
      <point x="242" y="593" type="curve" smooth="yes"/>
      <point x="242" y="563"/>
      <point x="220" y="545"/>
      <point x="187" y="545" type="curve" smooth="yes"/>
      <point x="111" y="545" type="line"/>
      <point x="111" y="491" type="line"/>
      <point x="187" y="491" type="line" smooth="yes"/>
      <point x="228" y="491"/>
      <point x="250" y="470"/>
      <point x="250" y="438" type="curve" smooth="yes"/>
      <point x="250" y="396"/>
      <point x="217" y="371"/>
      <point x="168" y="371" type="curve" smooth="yes"/>
      <point x="122" y="371"/>
      <point x="89" y="392"/>
      <point x="71" y="436" type="curve"/>
      <point x="18" y="410" type="line"/>
      <point x="46" y="348"/>
      <point x="96" y="315"/>
    </contour>
  </outline>
</glyph>
<glyph name="micro" format="2">
  <advance width="627"/>
  <unicode hex="00B5"/>
  <outline>
    <contour>
      <point x="129" y="91" type="line"/>
      <point x="154" y="22"/>
      <point x="210" y="-14"/>
      <point x="283" y="-14" type="curve" smooth="yes"/>
      <point x="362" y="-14"/>
      <point x="419" y="27"/>
      <point x="449" y="98" type="curve"/>
      <point x="440" y="99" type="line"/>
      <point x="461" y="24"/>
      <point x="511" y="-6"/>
      <point x="589" y="-6" type="curve" smooth="yes"/>
      <point x="605" y="-6" type="line"/>
      <point x="605" y="70" type="line"/>
      <point x="595" y="70" type="line" smooth="yes"/>
      <point x="533" y="70"/>
      <point x="502" y="107"/>
      <point x="502" y="182" type="curve" smooth="yes"/>
      <point x="502" y="500" type="line"/>
      <point x="422" y="500" type="line"/>
      <point x="422" y="219" type="line" smooth="yes"/>
      <point x="422" y="126"/>
      <point x="364" y="61"/>
      <point x="279" y="61" type="curve" smooth="yes"/>
      <point x="200" y="61"/>
      <point x="156" y="117"/>
      <point x="156" y="218" type="curve"/>
    </contour>
    <contour>
      <point x="76" y="-200" type="line"/>
      <point x="156" y="-200" type="line"/>
      <point x="156" y="500" type="line"/>
      <point x="76" y="500" type="line"/>
    </contour>
  </outline>
</glyph>
<glyph name="periodcentered" format="2">
  <advance width="230"/>
  <unicode hex="00B7"/>
  <outline>
    <contour>
      <point x="54" y="289" type="curve" smooth="yes"/>
      <point x="54" y="323"/>
      <point x="81" y="350"/>
      <point x="115" y="350" type="curve" smooth="yes"/>
      <point x="149" y="350"/>
      <point x="176" y="323"/>
      <point x="176" y="289" type="curve" smooth="yes"/>
      <point x="176" y="255"/>
      <point x="149" y="228"/>
      <point x="115" y="228" type="curve" smooth="yes"/>
      <point x="81" y="228"/>
      <point x="54" y="255"/>
    </contour>
  </outline>
</glyph>
<glyph name="cedilla" format="2">
  <advance width="282"/>
  <unicode hex="00B8"/>
  <outline>
    <contour>
      <point x="59.6071" y="-219" type="curve" smooth="yes"/>
      <point x="154" y="-219"/>
      <point x="200" y="-156"/>
      <point x="200" y="-81.2029" type="curve" smooth="yes"/>
      <point x="200" y="-43"/>
      <point x="188" y="-13"/>
      <point x="171" y="18" type="curve"/>
      <point x="112" y="-4" type="line"/>
      <point x="127" y="-32"/>
      <point x="136" y="-54"/>
      <point x="136" y="-79.9878" type="curve" smooth="yes"/>
      <point x="136" y="-125"/>
      <point x="109" y="-159"/>
      <point x="57.1506" y="-159" type="curve" smooth="yes"/>
      <point x="32" y="-159"/>
      <point x="13" y="-151"/>
      <point x="-9" y="-135" type="curve"/>
      <point x="-36" y="-190" type="line"/>
      <point x="-6" y="-209"/>
      <point x="22" y="-219"/>
    </contour>
  </outline>
</glyph>
<glyph name="onesuperior" format="2">
  <advance width="218"/>
  <unicode hex="00B9"/>
  <outline>
    <contour>
      <point x="106" y="324" type="line"/>
      <point x="166" y="324" type="line"/>
      <point x="166" y="700" type="line"/>
      <point x="105" y="700" type="line"/>
      <point x="2" y="630" type="line"/>
      <point x="30" y="581" type="line"/>
      <point x="116" y="641" type="line"/>
      <point x="106" y="643" type="line"/>
    </contour>
  </outline>
</glyph>
<glyph name="guillemotright" format="2">
  <advance width="561"/>
  <unicode hex="00BB"/>
  <outline>
    <contour>
      <point x="311" y="250" type="line"/>
      <point x="108" y="-3" type="line"/>
      <point x="48" y="41" type="line"/>
      <point x="217" y="250" type="line"/>
      <point x="48" y="459" type="line"/>
      <point x="108" y="503" type="line"/>
    </contour>
    <contour>
      <point x="521" y="250" type="line"/>
      <point x="318" y="-3" type="line"/>
      <point x="258" y="41" type="line"/>
      <point x="427" y="250" type="line"/>
      <point x="258" y="459" type="line"/>
      <point x="318" y="503" type="line"/>
    </contour>
  </outline>
</glyph>
<glyph name="AE" format="2">
  <advance width="970"/>
  <unicode hex="00C6"/>
  <outline>
    <contour>
      <point x="482" y="0" type="line"/>
      <point x="910" y="0" type="line"/>
      <point x="910" y="78" type="line"/>
      <point x="566" y="78" type="line"/>
      <point x="566" y="326" type="line"/>
      <point x="878" y="326" type="line"/>
      <point x="878" y="404" type="line"/>
      <point x="566" y="404" type="line"/>
      <point x="566" y="622" type="line"/>
      <point x="910" y="622" type="line"/>
      <point x="910" y="700" type="line"/>
      <point x="447" y="700" type="line"/>
      <point x="26" y="0" type="line"/>
      <point x="126" y="0" type="line"/>
      <point x="234" y="188" type="line"/>
      <point x="482" y="188" type="line"/>
    </contour>
    <contour>
      <point x="277" y="262" type="line"/>
      <point x="482" y="618" type="line"/>
      <point x="482" y="262" type="line"/>
    </contour>
  </outline>
</glyph>
<glyph name="Eth" format="2">
  <advance width="754"/>
  <unicode hex="00D0"/>
  <outline>
    <component base="D" xOffset="37"/>
    <contour>
      <point x="36" y="320" type="line"/>
      <point x="367" y="320" type="line"/>
      <point x="367" y="398" type="line"/>
      <point x="36" y="398" type="line"/>
    </contour>
  </outline>
</glyph>
<glyph name="multiply" format="2">
  <advance width="462"/>
  <unicode hex="00D7"/>
  <outline>
    <contour>
      <point x="37" y="503" type="line"/>
      <point x="179" y="365" type="line"/>
      <point x="30" y="220" type="line"/>
      <point x="85" y="164" type="line"/>
      <point x="230" y="313" type="line"/>
      <point x="370" y="170" type="line"/>
      <point x="425" y="225" type="line"/>
      <point x="283" y="363" type="line"/>
      <point x="432" y="508" type="line"/>
      <point x="377" y="564" type="line"/>
      <point x="232" y="415" type="line"/>
      <point x="92" y="558" type="line"/>
    </contour>
  </outline>
</glyph>
<glyph name="Oslash" format="2">
  <advance width="829"/>
  <unicode hex="00D8"/>
  <outline>
    <contour>
      <point x="415" y="-16" type="curve" smooth="yes"/>
      <point x="619" y="-16"/>
      <point x="769" y="138"/>
      <point x="769" y="350" type="curve" smooth="yes"/>
      <point x="769" y="562"/>
      <point x="619" y="716"/>
      <point x="415" y="716" type="curve" smooth="yes"/>
      <point x="211" y="716"/>
      <point x="60" y="562"/>
      <point x="60" y="350" type="curve" smooth="yes"/>
      <point x="60" y="138"/>
      <point x="211" y="-16"/>
    </contour>
    <contour>
      <point x="415" y="66" type="curve" smooth="yes"/>
      <point x="258" y="66"/>
      <point x="148" y="182"/>
      <point x="148" y="350" type="curve" smooth="yes"/>
      <point x="148" y="518"/>
      <point x="258" y="634"/>
      <point x="415" y="634" type="curve" smooth="yes"/>
      <point x="572" y="634"/>
      <point x="681" y="518"/>
      <point x="681" y="350" type="curve" smooth="yes"/>
      <point x="681" y="182"/>
      <point x="572" y="66"/>
    </contour>
    <contour>
      <point x="91" y="-25" type="line"/>
      <point x="205" y="89" type="line"/>
      <point x="219" y="105" type="line"/>
      <point x="659" y="545" type="line"/>
      <point x="676" y="560" type="line"/>
      <point x="791" y="675" type="line"/>
      <point x="739" y="727" type="line"/>
      <point x="623" y="611" type="line"/>
      <point x="604" y="590" type="line"/>
      <point x="167" y="153" type="line"/>
      <point x="150" y="138" type="line"/>
      <point x="39" y="27" type="line"/>
    </contour>
  </outline>
</glyph>
<glyph name="Thorn" format="2">
  <advance width="635"/>
  <unicode hex="00DE"/>
  <outline>
    <contour>
      <point x="92" y="0" type="line"/>
      <point x="176" y="0" type="line"/>
      <point x="176" y="145" type="line"/>
      <point x="366" y="145" type="line" smooth="yes"/>
      <point x="499" y="145"/>
      <point x="587" y="234"/>
      <point x="587" y="367" type="curve" smooth="yes"/>
      <point x="587" y="500"/>
      <point x="498" y="589"/>
      <point x="365" y="589" type="curve" smooth="yes"/>
      <point x="176" y="589" type="line"/>
      <point x="176" y="700" type="line"/>
      <point x="92" y="700" type="line"/>
    </contour>
    <contour>
      <point x="176" y="224" type="line"/>
      <point x="176" y="510" type="line"/>
      <point x="359" y="510" type="line" smooth="yes"/>
      <point x="444" y="510"/>
      <point x="501" y="453"/>
      <point x="501" y="366" type="curve" smooth="yes"/>
      <point x="501" y="280"/>
      <point x="443" y="224"/>
      <point x="359" y="224" type="curve" smooth="yes"/>
    </contour>
  </outline>
</glyph>
<glyph name="ae" format="2">
  <advance width="925"/>
  <unicode hex="00E6"/>
  <outline>
    <contour>
      <point x="653" y="-14" type="curve" smooth="yes"/>
      <point x="739" y="-14"/>
      <point x="814" y="22"/>
      <point x="861" y="90" type="curve"/>
      <point x="800" y="139" type="line"/>
      <point x="768" y="89"/>
      <point x="715" y="62"/>
      <point x="652" y="62" type="curve" smooth="yes"/>
      <point x="546" y="62"/>
      <point x="472" y="140"/>
      <point x="472" y="251" type="curve" smooth="yes"/>
      <point x="472" y="360"/>
      <point x="543" y="440"/>
      <point x="646" y="440" type="curve" smooth="yes"/>
      <point x="737" y="440"/>
      <point x="802" y="378"/>
      <point x="802" y="292" type="curve"/>
      <point x="810" y="300" type="line"/>
      <point x="454" y="300" type="line"/>
      <point x="454" y="230" type="line"/>
      <point x="881" y="230" type="line"/>
      <point x="883" y="245"/>
      <point x="884" y="257"/>
      <point x="884" y="272" type="curve" smooth="yes"/>
      <point x="884" y="415"/>
      <point x="788" y="514"/>
      <point x="650" y="514" type="curve" smooth="yes"/>
      <point x="503" y="514"/>
      <point x="396" y="402"/>
      <point x="396" y="250" type="curve" smooth="yes"/>
      <point x="396" y="96"/>
      <point x="504" y="-14"/>
    </contour>
    <contour>
      <point x="42" y="136.581" type="curve" smooth="yes"/>
      <point x="42" y="45"/>
      <point x="116" y="-14"/>
      <point x="221.248" y="-14" type="curve" smooth="yes"/>
      <point x="321" y="-14"/>
      <point x="397" y="39"/>
      <point x="432" y="128" type="curve"/>
      <point x="432" y="216" type="line"/>
      <point x="470" y="216" type="line"/>
      <point x="470" y="326" type="line" smooth="yes"/>
      <point x="470" y="439"/>
      <point x="387" y="514"/>
      <point x="262.987" y="514" type="curve" smooth="yes"/>
      <point x="168" y="514"/>
      <point x="94" y="470"/>
      <point x="56" y="391" type="curve"/>
      <point x="124" y="357" type="line"/>
      <point x="151" y="412"/>
      <point x="198" y="441"/>
      <point x="260.54" y="441" type="curve" smooth="yes"/>
      <point x="341" y="441"/>
      <point x="390" y="393"/>
      <point x="390" y="312" type="curve" smooth="yes"/>
      <point x="390" y="213" type="line" smooth="yes"/>
      <point x="390" y="128"/>
      <point x="320" y="59"/>
      <point x="227.8" y="59" type="curve" smooth="yes"/>
      <point x="166" y="59"/>
      <point x="124" y="90"/>
      <point x="124" y="140.213" type="curve" smooth="yes"/>
      <point x="124" y="195"/>
      <point x="174" y="226"/>
      <point x="271" y="231" type="curve" smooth="yes"/>
      <point x="417" y="238" type="line"/>
      <point x="417" y="306" type="line"/>
      <point x="265" y="299" type="line" smooth="yes"/>
      <point x="119" y="292"/>
      <point x="42" y="230"/>
    </contour>
  </outline>
</glyph>
<glyph name="eth" format="2">
  <advance width="594"/>
  <unicode hex="00F0"/>
  <outline>
    <contour>
      <point x="292.841" y="-14" type="curve" smooth="yes"/>
      <point x="448" y="-14"/>
      <point x="544" y="101"/>
      <point x="544" y="301.102" type="curve" smooth="yes"/>
      <point x="544" y="557"/>
      <point x="387" y="694"/>
      <point x="120" y="730" type="curve"/>
      <point x="110" y="661" type="line"/>
      <point x="348" y="628"/>
      <point x="461" y="524"/>
      <point x="471" y="345" type="curve"/>
      <point x="490" y="345" type="line"/>
      <point x="446" y="433"/>
      <point x="377" y="479"/>
      <point x="283.264" y="479" type="curve" smooth="yes"/>
      <point x="143" y="479"/>
      <point x="46" y="376"/>
      <point x="46" y="233.593" type="curve" smooth="yes"/>
      <point x="46" y="89"/>
      <point x="146" y="-14"/>
    </contour>
    <contour>
      <point x="292" y="60" type="curve" smooth="yes"/>
      <point x="196" y="60"/>
      <point x="124" y="133"/>
      <point x="124" y="234" type="curve" smooth="yes"/>
      <point x="124" y="334"/>
      <point x="196" y="407"/>
      <point x="292" y="407" type="curve" smooth="yes"/>
      <point x="387" y="407"/>
      <point x="459" y="334"/>
      <point x="459" y="234" type="curve" smooth="yes"/>
      <point x="459" y="133"/>
      <point x="387" y="60"/>
    </contour>
    <contour>
      <point x="163" y="538" type="line"/>
      <point x="204" y="494" type="line"/>
      <point x="446" y="720" type="line"/>
      <point x="405" y="764" type="line"/>
    </contour>
  </outline>
</glyph>
<glyph name="divide" format="2">
  <advance width="568"/>
  <unicode hex="00F7"/>
  <outline>
    <contour>
      <point x="56" y="311" type="line"/>
      <point x="512" y="311" type="line"/>
      <point x="512" y="383" type="line"/>
      <point x="56" y="383" type="line"/>
    </contour>
    <contour>
      <point x="228" y="165" type="curve" smooth="yes"/>
      <point x="228" y="197"/>
      <point x="252" y="221"/>
      <point x="284" y="221" type="curve" smooth="yes"/>
      <point x="316" y="221"/>
      <point x="340" y="197"/>
      <point x="340" y="165" type="curve" smooth="yes"/>
      <point x="340" y="133"/>
      <point x="316" y="109"/>
      <point x="284" y="109" type="curve" smooth="yes"/>
      <point x="252" y="109"/>
      <point x="228" y="133"/>
    </contour>
    <contour>
      <point x="228" y="529" type="curve" smooth="yes"/>
      <point x="228" y="561"/>
      <point x="252" y="585"/>
      <point x="284" y="585" type="curve" smooth="yes"/>
      <point x="316" y="585"/>
      <point x="340" y="561"/>
      <point x="340" y="529" type="curve" smooth="yes"/>
      <point x="340" y="497"/>
      <point x="316" y="473"/>
      <point x="284" y="473" type="curve" smooth="yes"/>
      <point x="252" y="473"/>
      <point x="228" y="497"/>
    </contour>
  </outline>
</glyph>
<glyph name="oslash" format="2">
  <advance width="608"/>
  <unicode hex="00F8"/>
  <outline>
    <component base="o"/>
    <contour>
      <point x="69" y="-32" type="line"/>
      <point x="168" y="67" type="line"/>
      <point x="187" y="87" type="line"/>
      <point x="483" y="383" type="line"/>
      <point x="494" y="389" type="line"/>
      <point x="588" y="483" type="line"/>
      <point x="539" y="532" type="line"/>
      <point x="448" y="441" type="line"/>
      <point x="434" y="425" type="line"/>
      <point x="137" y="128" type="line"/>
      <point x="121" y="118" type="line"/>
      <point x="20" y="17" type="line"/>
    </contour>
  </outline>
</glyph>
<glyph name="thorn" format="2">
  <advance width="638"/>
  <unicode hex="00FE"/>
  <outline>
    <contour>
      <point x="76" y="-200" type="line"/>
      <point x="158" y="-200" type="line"/>
      <point x="158" y="722" type="line"/>
      <point x="76" y="722" type="line"/>
    </contour>
    <contour>
      <point x="345" y="-14" type="curve" smooth="yes"/>
      <point x="489" y="-14"/>
      <point x="592" y="99"/>
      <point x="592" y="250" type="curve" smooth="yes"/>
      <point x="592" y="401"/>
      <point x="489" y="514"/>
      <point x="345" y="514" type="curve" smooth="yes"/>
      <point x="201" y="514"/>
      <point x="118" y="401"/>
      <point x="118" y="250" type="curve" smooth="yes"/>
      <point x="118" y="99"/>
      <point x="201" y="-14"/>
    </contour>
    <contour>
      <point x="334" y="62" type="curve" smooth="yes"/>
      <point x="230" y="62"/>
      <point x="158" y="142"/>
      <point x="158" y="250" type="curve" smooth="yes"/>
      <point x="158" y="358"/>
      <point x="230" y="438"/>
      <point x="334" y="438" type="curve" smooth="yes"/>
      <point x="438" y="438"/>
      <point x="510" y="358"/>
      <point x="510" y="250" type="curve" smooth="yes"/>
      <point x="510" y="142"/>
      <point x="438" y="62"/>
    </contour>
  </outline>
</glyph>
<glyph name="aogonek" format="2">
  <advance width="545"/>
  <unicode hex="0105"/>
  <outline>
    <contour>
      <point x="391" y="0" type="line"/>
      <point x="469" y="0" type="line"/>
      <point x="469" y="321" type="line" smooth="yes"/>
      <point x="469" y="438"/>
      <point x="384" y="514"/>
      <point x="262" y="514" type="curve" smooth="yes"/>
      <point x="167" y="514"/>
      <point x="91" y="468"/>
      <point x="56" y="390" type="curve"/>
      <point x="122" y="357" type="line"/>
      <point x="150" y="414"/>
      <point x="199" y="442"/>
      <point x="260" y="442" type="curve" smooth="yes"/>
      <point x="341" y="442"/>
      <point x="391" y="393"/>
      <point x="391" y="312" type="curve" smooth="yes"/>
    </contour>
    <contour>
      <point x="42" y="136" type="curve" smooth="yes"/>
      <point x="42" y="46"/>
      <point x="109" y="-14"/>
      <point x="214" y="-14" type="curve" smooth="yes"/>
      <point x="340" y="-14"/>
      <point x="411" y="74"/>
      <point x="418" y="194" type="curve"/>
      <point x="391" y="213" type="line"/>
      <point x="391" y="128"/>
      <point x="316" y="58"/>
      <point x="224" y="58" type="curve" smooth="yes"/>
      <point x="161" y="58"/>
      <point x="122" y="89"/>
      <point x="122" y="139" type="curve" smooth="yes"/>
      <point x="122" y="196"/>
      <point x="173" y="228"/>
      <point x="274" y="233" type="curve" smooth="yes"/>
      <point x="405" y="239" type="line"/>
      <point x="405" y="305" type="line"/>
      <point x="266" y="299" type="line" smooth="yes"/>
      <point x="119" y="293"/>
      <point x="42" y="233"/>
    </contour>
    <contour>
      <point x="296" y="-112.729" type="curve" smooth="yes"/>
      <point x="296" y="-177"/>
      <point x="340" y="-219"/>
      <point x="411.009" y="-219" type="curve" smooth="yes"/>
      <point x="442" y="-219"/>
      <point x="469" y="-211"/>
      <point x="492" y="-196" type="curve"/>
      <point x="473" y="-139" type="line"/>
      <point x="460" y="-151"/>
      <point x="438" y="-157"/>
      <point x="418.493" y="-157" type="curve" smooth="yes"/>
      <point x="382" y="-157"/>
      <point x="358" y="-136"/>
      <point x="358" y="-101.939" type="curve" smooth="yes"/>
      <point x="358" y="-62"/>
      <point x="391" y="-39"/>
      <point x="467" y="0" type="curve"/>
      <point x="426" y="35" type="line"/>
      <point x="334" y="-13"/>
      <point x="296" y="-53"/>
    </contour>
  </outline>
</glyph>
<glyph name="dcroat" format="2">
  <advance width="671"/>
  <unicode hex="0111"/>
  <outline>
    <contour>
      <point x="561" y="0" type="line"/>
      <point x="480" y="0" type="line"/>
      <point x="480" y="582" type="line"/>
      <point x="390" y="582" type="line"/>
      <point x="390" y="656" type="line"/>
      <point x="480" y="656" type="line"/>
      <point x="480" y="722" type="line"/>
      <point x="561" y="722" type="line"/>
      <point x="561" y="656" type="line"/>
      <point x="641" y="656" type="line"/>
      <point x="641" y="582" type="line"/>
      <point x="561" y="582" type="line"/>
    </contour>
    <contour>
      <point x="294.096" y="-14" type="curve" smooth="yes"/>
      <point x="154" y="-14"/>
      <point x="50" y="97"/>
      <point x="50" y="250" type="curve" smooth="yes"/>
      <point x="50" y="403"/>
      <point x="154" y="514"/>
      <point x="294.096" y="514" type="curve" smooth="yes"/>
      <point x="431" y="514"/>
      <point x="524" y="408"/>
      <point x="524" y="250" type="curve" smooth="yes"/>
      <point x="524" y="92"/>
      <point x="431" y="-14"/>
    </contour>
    <contour>
      <point x="306" y="62" type="curve" smooth="yes"/>
      <point x="409" y="62"/>
      <point x="480" y="142"/>
      <point x="480" y="250" type="curve" smooth="yes"/>
      <point x="480" y="358"/>
      <point x="409" y="438"/>
      <point x="306" y="438" type="curve" smooth="yes"/>
      <point x="203" y="438"/>
      <point x="132" y="358"/>
      <point x="132" y="250" type="curve" smooth="yes"/>
      <point x="132" y="142"/>
      <point x="203" y="62"/>
    </contour>
  </outline>
</glyph>
<glyph name="Eogonek" format="2">
  <advance width="580"/>
  <unicode hex="0118"/>
  <outline>
    <component base="E"/>
    <contour>
      <point x="339" y="-115.945" type="curve" smooth="yes"/>
      <point x="339" y="-175"/>
      <point x="382" y="-212"/>
      <point x="455.87" y="-212" type="curve" smooth="yes"/>
      <point x="488" y="-212"/>
      <point x="516" y="-205"/>
      <point x="542" y="-192" type="curve"/>
      <point x="523" y="-135" type="line"/>
      <point x="507" y="-144"/>
      <point x="488" y="-150"/>
      <point x="465.306" y="-150" type="curve" smooth="yes"/>
      <point x="426" y="-150"/>
      <point x="404" y="-132"/>
      <point x="404" y="-102.833" type="curve" smooth="yes"/>
      <point x="404" y="-64"/>
      <point x="443" y="-30"/>
      <point x="520" y="0" type="curve"/>
      <point x="446" y="20" type="line"/>
      <point x="371" y="-23"/>
      <point x="339" y="-65"/>
    </contour>
  </outline>
</glyph>
<glyph name="eogonek" format="2">
  <advance width="580"/>
  <unicode hex="0119"/>
  <outline>
    <component base="e"/>
    <contour>
      <point x="400.177" y="-212" type="curve" smooth="yes"/>
      <point x="430" y="-212"/>
      <point x="456" y="-205"/>
      <point x="481" y="-192" type="curve"/>
      <point x="462" y="-135" type="line"/>
      <point x="447" y="-144"/>
      <point x="430" y="-150"/>
      <point x="409.828" y="-150" type="curve" smooth="yes"/>
      <point x="373" y="-150"/>
      <point x="347" y="-130"/>
      <point x="347" y="-89.1997" type="curve" smooth="yes"/>
      <point x="347" y="-50"/>
      <point x="371" y="-24"/>
      <point x="439" y="21" type="curve"/>
      <point x="393" y="43" type="line"/>
      <point x="314" y="-6"/>
      <point x="282" y="-49"/>
      <point x="282" y="-104.481" type="curve" smooth="yes"/>
      <point x="282" y="-171"/>
      <point x="328" y="-212"/>
    </contour>
  </outline>
</glyph>
<glyph name="dotlessi" format="2">
  <advance width="234"/>
  <unicode hex="0131"/>
  <outline>
    <contour>
      <point x="76" y="500" type="line"/>
      <point x="158" y="500" type="line"/>
      <point x="158" y="0" type="line"/>
      <point x="76" y="0" type="line"/>
    </contour>
  </outline>
</glyph>
<glyph name="Lslash" format="2">
  <advance width="574"/>
  <unicode hex="0141"/>
  <outline>
    <component base="L" xOffset="16"/>
    <contour>
      <point x="10" y="224" type="line"/>
      <point x="410" y="424" type="line"/>
      <point x="410" y="506" type="line"/>
      <point x="10" y="306" type="line"/>
    </contour>
  </outline>
</glyph>
<glyph name="lslash" format="2">
  <advance width="314"/>
  <unicode hex="0142"/>
  <outline>
    <component base="l" xOffset="42"/>
    <contour>
      <point x="16" y="237" type="line"/>
      <point x="298" y="418" type="line"/>
      <point x="298" y="500" type="line"/>
      <point x="16" y="319" type="line"/>
    </contour>
  </outline>
</glyph>
<glyph name="OE" format="2">
  <advance width="1129"/>
  <unicode hex="0152"/>
  <outline>
    <contour>
      <point x="409" y="-16" type="curve" smooth="yes"/>
      <point x="500" y="-16"/>
      <point x="580" y="16"/>
      <point x="641" y="70" type="curve"/>
      <point x="641" y="0" type="line"/>
      <point x="1069" y="0" type="line"/>
      <point x="1069" y="78" type="line"/>
      <point x="725" y="78" type="line"/>
      <point x="725" y="326" type="line"/>
      <point x="1037" y="326" type="line"/>
      <point x="1037" y="404" type="line"/>
      <point x="725" y="404" type="line"/>
      <point x="725" y="622" type="line"/>
      <point x="1069" y="622" type="line"/>
      <point x="1069" y="700" type="line"/>
      <point x="641" y="700" type="line"/>
      <point x="641" y="630" type="line"/>
      <point x="580" y="684"/>
      <point x="500" y="716"/>
      <point x="409" y="716" type="curve" smooth="yes"/>
      <point x="209" y="716"/>
      <point x="60" y="562"/>
      <point x="60" y="350" type="curve" smooth="yes"/>
      <point x="60" y="138"/>
      <point x="209" y="-16"/>
    </contour>
    <contour>
      <point x="415" y="66" type="curve" smooth="yes"/>
      <point x="258" y="66"/>
      <point x="148" y="182"/>
      <point x="148" y="350" type="curve" smooth="yes"/>
      <point x="148" y="518"/>
      <point x="258" y="634"/>
      <point x="415" y="634" type="curve" smooth="yes"/>
      <point x="515" y="634"/>
      <point x="596" y="587"/>
      <point x="641" y="509" type="curve"/>
      <point x="641" y="191" type="line"/>
      <point x="596" y="113"/>
      <point x="515" y="66"/>
    </contour>
  </outline>
</glyph>
<glyph name="oe" format="2">
  <advance width="1014"/>
  <unicode hex="0153"/>
  <outline>
    <contour>
      <point x="301" y="-14" type="curve" smooth="yes"/>
      <point x="152" y="-14"/>
      <point x="46" y="100"/>
      <point x="46" y="250" type="curve" smooth="yes"/>
      <point x="46" y="400"/>
      <point x="152" y="514"/>
      <point x="301" y="514" type="curve" smooth="yes"/>
      <point x="450" y="514"/>
      <point x="556" y="400"/>
      <point x="556" y="250" type="curve" smooth="yes"/>
      <point x="556" y="100"/>
      <point x="450" y="-14"/>
    </contour>
    <contour>
      <point x="304" y="62" type="curve" smooth="yes"/>
      <point x="408" y="62"/>
      <point x="480" y="142"/>
      <point x="480" y="250" type="curve" smooth="yes"/>
      <point x="480" y="358"/>
      <point x="408" y="438"/>
      <point x="304" y="438" type="curve" smooth="yes"/>
      <point x="200" y="438"/>
      <point x="128" y="358"/>
      <point x="128" y="250" type="curve" smooth="yes"/>
      <point x="128" y="142"/>
      <point x="200" y="62"/>
    </contour>
    <contour>
      <point x="737" y="-14" type="curve" smooth="yes"/>
      <point x="587" y="-14"/>
      <point x="480" y="96"/>
      <point x="480" y="250" type="curve" smooth="yes"/>
      <point x="480" y="402"/>
      <point x="586" y="514"/>
      <point x="734" y="514" type="curve" smooth="yes"/>
      <point x="873" y="514"/>
      <point x="968" y="415"/>
      <point x="968" y="272" type="curve" smooth="yes"/>
      <point x="968" y="257"/>
      <point x="967" y="245"/>
      <point x="965" y="230" type="curve"/>
      <point x="538" y="230" type="line"/>
      <point x="538" y="300" type="line"/>
      <point x="894" y="300" type="line"/>
      <point x="886" y="292" type="line"/>
      <point x="886" y="378"/>
      <point x="821" y="440"/>
      <point x="730" y="440" type="curve" smooth="yes"/>
      <point x="627" y="440"/>
      <point x="556" y="360"/>
      <point x="556" y="251" type="curve" smooth="yes"/>
      <point x="556" y="140"/>
      <point x="630" y="62"/>
      <point x="736" y="62" type="curve" smooth="yes"/>
      <point x="799" y="62"/>
      <point x="852" y="89"/>
      <point x="884" y="139" type="curve"/>
      <point x="945" y="90" type="line"/>
      <point x="898" y="22"/>
      <point x="822" y="-14"/>
    </contour>
  </outline>
</glyph>
<glyph name="tcaron" format="2">
  <advance width="430"/>
  <unicode hex="0165"/>
  <outline>
    <component base="quoteright" xOffset="186"/>
    <contour>
      <point x="16" y="426" type="line"/>
      <point x="128" y="426" type="line"/>
      <point x="128" y="500" type="line"/>
      <point x="16" y="500" type="line"/>
    </contour>
    <contour>
      <point x="184" y="186" type="curve" smooth="yes" name=".hr01"/>
      <point x="184" y="640" type="line"/>
      <point x="104" y="640" type="line"/>
      <point x="104" y="181" type="line" smooth="yes"/>
      <point x="104" y="57"/>
      <point x="169" y="-6"/>
      <point x="284" y="-6" type="curve" smooth="yes"/>
      <point x="350" y="-6" type="line"/>
      <point x="350" y="70" type="line"/>
      <point x="292" y="70" type="line" smooth="yes"/>
      <point x="219" y="70"/>
      <point x="184" y="108"/>
    </contour>
  </outline>
</glyph>
<glyph name="Schwa" format="2">
  <advance width="799"/>
  <unicode hex="018F"/>
  <outline>
    <contour>
      <point x="389.44" y="-16" type="curve" smooth="yes"/>
      <point x="598" y="-16"/>
      <point x="739" y="133"/>
      <point x="739" y="350.615" type="curve" smooth="yes"/>
      <point x="739" y="569"/>
      <point x="597" y="716"/>
      <point x="386.856" y="716" type="curve" smooth="yes"/>
      <point x="256" y="716"/>
      <point x="151" y="659"/>
      <point x="88" y="555" type="curve"/>
      <point x="160" y="508" type="line"/>
      <point x="212" y="594"/>
      <point x="285" y="636"/>
      <point x="384.611" y="636" type="curve" smooth="yes"/>
      <point x="548" y="636"/>
      <point x="653" y="523"/>
      <point x="653" y="350.087" type="curve" smooth="yes"/>
      <point x="653" y="178"/>
      <point x="549" y="64"/>
      <point x="389.675" y="64" type="curve" smooth="yes"/>
      <point x="245" y="64"/>
      <point x="147" y="158"/>
      <point x="139" y="302" type="curve"/>
      <point x="133" y="301" type="line"/>
      <point x="694" y="301" type="line"/>
      <point x="694" y="377" type="line"/>
      <point x="55" y="377" type="line"/>
      <point x="54" y="360"/>
      <point x="53" y="344"/>
      <point x="53" y="326.487" type="curve" smooth="yes"/>
      <point x="53" y="123"/>
      <point x="188" y="-16"/>
    </contour>
  </outline>
</glyph>
<glyph name="dotlessj" format="2">
  <advance width="232"/>
  <unicode hex="0237"/>
  <anchor x="116" y="500" name="top"/>
  <outline>
    <contour>
      <point x="76" y="0" type="line" smooth="yes"/>
      <point x="76" y="-96"/>
      <point x="51" y="-128"/>
      <point x="-21" y="-128" type="curve" smooth="yes"/>
      <point x="-41" y="-128" type="line"/>
      <point x="-41" y="-206" type="line"/>
      <point x="-12" y="-206" type="line" smooth="yes"/>
      <point x="100" y="-206"/>
      <point x="156" y="-141"/>
      <point x="156" y="-12" type="curve" smooth="yes"/>
      <point x="156" y="500" type="line"/>
      <point x="76" y="500" type="line"/>
    </contour>
  </outline>
</glyph>
<glyph name="schwa" format="2">
  <advance width="584"/>
  <unicode hex="0259"/>
  <outline>
    <contour>
      <point x="282.976" y="-14" type="curve" smooth="yes"/>
      <point x="433" y="-14"/>
      <point x="538" y="95"/>
      <point x="538" y="252.13" type="curve" smooth="yes"/>
      <point x="538" y="407"/>
      <point x="436" y="514"/>
      <point x="282.049" y="514" type="curve" smooth="yes"/>
      <point x="194" y="514"/>
      <point x="121" y="479"/>
      <point x="69" y="411" type="curve"/>
      <point x="131" y="360" type="line"/>
      <point x="166" y="412"/>
      <point x="216" y="439"/>
      <point x="282.371" y="439" type="curve" smooth="yes"/>
      <point x="390" y="439"/>
      <point x="456" y="368"/>
      <point x="456" y="252.369" type="curve" smooth="yes"/>
      <point x="456" y="135"/>
      <point x="388" y="61"/>
      <point x="283.288" y="61" type="curve" smooth="yes"/>
      <point x="189" y="61"/>
      <point x="128" y="121"/>
      <point x="128" y="214" type="curve"/>
      <point x="120" y="210" type="line"/>
      <point x="474" y="210" type="line"/>
      <point x="474" y="282" type="line"/>
      <point x="48" y="282" type="line"/>
      <point x="46" y="267"/>
      <point x="44" y="248"/>
      <point x="44" y="227.44" type="curve" smooth="yes"/>
      <point x="44" y="85"/>
      <point x="140" y="-14"/>
    </contour>
  </outline>
</glyph>
<glyph name="circumflex" format="2">
  <advance width="380"/>
  <unicode hex="02C6"/>
  <outline>
    <contour>
      <point x="20" y="596" type="line"/>
      <point x="101" y="596" type="line"/>
      <point x="190" y="688" type="line"/>
      <point x="279" y="596" type="line"/>
      <point x="360" y="596" type="line"/>
      <point x="223" y="742" type="line"/>
      <point x="157" y="742" type="line"/>
    </contour>
  </outline>
</glyph>
<glyph name="caron" format="2">
  <advance width="380"/>
  <unicode hex="02C7"/>
  <outline>
    <contour>
      <point x="58" y="752" type="line"/>
      <point x="16" y="697" type="line"/>
      <point x="190" y="565" type="line"/>
      <point x="364" y="697" type="line"/>
      <point x="322" y="752" type="line"/>
      <point x="177" y="643" type="line"/>
      <point x="203" y="643" type="line"/>
    </contour>
  </outline>
</glyph>
<glyph name="macronmod" format="2">
  <advance width="352"/>
  <unicode hex="02C9"/>
  <anchor x="176" y="500" name="_top"/>
  <outline>
    <contour>
      <point x="30" y="642" type="line"/>
      <point x="322" y="642" type="line"/>
      <point x="322" y="704" type="line"/>
      <point x="30" y="704" type="line"/>
    </contour>
  </outline>
</glyph>
<glyph name="breve" format="2">
  <advance width="389"/>
  <unicode hex="02D8"/>
  <outline>
    <contour>
      <point x="194" y="607" type="curve" smooth="yes"/>
      <point x="287" y="607"/>
      <point x="349" y="660"/>
      <point x="359" y="746" type="curve"/>
      <point x="284" y="746" type="line"/>
      <point x="278" y="699"/>
      <point x="243" y="671"/>
      <point x="194" y="671" type="curve" smooth="yes"/>
      <point x="145" y="671"/>
      <point x="110" y="699"/>
      <point x="104" y="746" type="curve"/>
      <point x="29" y="746" type="line"/>
      <point x="39" y="660"/>
      <point x="101" y="607"/>
    </contour>
  </outline>
</glyph>
<glyph name="dotaccent" format="2">
  <advance width="233"/>
  <unicode hex="02D9"/>
  <outline>
    <contour>
      <point x="117" y="607" type="line" smooth="yes"/>
      <point x="149" y="607"/>
      <point x="174" y="632"/>
      <point x="174" y="664" type="curve" smooth="yes"/>
      <point x="174" y="696"/>
      <point x="149" y="721"/>
      <point x="117" y="721" type="curve" smooth="yes"/>
      <point x="116" y="721" type="line" smooth="yes"/>
      <point x="84" y="721"/>
      <point x="59" y="696"/>
      <point x="59" y="664" type="curve" smooth="yes"/>
      <point x="59" y="632"/>
      <point x="84" y="607"/>
      <point x="116" y="607" type="curve" smooth="yes"/>
    </contour>
  </outline>
</glyph>
<glyph name="ring" format="2">
  <advance width="286"/>
  <unicode hex="02DA"/>
  <outline>
    <contour>
      <point x="143" y="584" type="curve" smooth="yes"/>
      <point x="78" y="584"/>
      <point x="30" y="630"/>
      <point x="30" y="694" type="curve" smooth="yes"/>
      <point x="30" y="758"/>
      <point x="78" y="804"/>
      <point x="143" y="804" type="curve" smooth="yes"/>
      <point x="208" y="804"/>
      <point x="256" y="758"/>
      <point x="256" y="694" type="curve" smooth="yes"/>
      <point x="256" y="630"/>
      <point x="208" y="584"/>
    </contour>
    <contour>
      <point x="143" y="636" type="curve" smooth="yes"/>
      <point x="176" y="636"/>
      <point x="200" y="661"/>
      <point x="200" y="694" type="curve" smooth="yes"/>
      <point x="200" y="727"/>
      <point x="176" y="752"/>
      <point x="143" y="752" type="curve" smooth="yes"/>
      <point x="110" y="752"/>
      <point x="86" y="727"/>
      <point x="86" y="694" type="curve" smooth="yes"/>
      <point x="86" y="661"/>
      <point x="110" y="636"/>
    </contour>
  </outline>
</glyph>
<glyph name="ogonek" format="2">
  <advance width="260"/>
  <unicode hex="02DB"/>
  <outline>
    <contour>
      <point x="41" y="-112.729" type="curve" smooth="yes"/>
      <point x="41" y="-53"/>
      <point x="79" y="-13"/>
      <point x="171" y="35" type="curve"/>
      <point x="212" y="0" type="line"/>
      <point x="136" y="-39"/>
      <point x="103" y="-62"/>
      <point x="103" y="-101.939" type="curve" smooth="yes"/>
      <point x="103" y="-136"/>
      <point x="127" y="-157"/>
      <point x="163.493" y="-157" type="curve" smooth="yes"/>
      <point x="183" y="-157"/>
      <point x="205" y="-151"/>
      <point x="218" y="-139" type="curve"/>
      <point x="237" y="-196" type="line"/>
      <point x="214" y="-211"/>
      <point x="187" y="-219"/>
      <point x="156.009" y="-219" type="curve" smooth="yes"/>
      <point x="85" y="-219"/>
      <point x="41" y="-177"/>
    </contour>
  </outline>
</glyph>
<glyph name="tilde" format="2">
  <advance width="400"/>
  <unicode hex="02DC"/>
  <anchor x="200" y="500" name="_top"/>
  <outline>
    <contour>
      <point x="85" y="591" type="curve"/>
      <point x="21" y="604" type="line"/>
      <point x="34" y="678"/>
      <point x="74" y="720"/>
      <point x="133.905" y="720" type="curve" smooth="yes"/>
      <point x="209" y="720"/>
      <point x="222" y="654"/>
      <point x="265.357" y="654" type="curve" smooth="yes"/>
      <point x="288" y="654"/>
      <point x="307" y="672"/>
      <point x="315" y="715" type="curve"/>
      <point x="379" y="702" type="line"/>
      <point x="366" y="628"/>
      <point x="325" y="586"/>
      <point x="265.539" y="586" type="curve" smooth="yes"/>
      <point x="191" y="586"/>
      <point x="179" y="652"/>
      <point x="134.986" y="652" type="curve" smooth="yes"/>
      <point x="112" y="652"/>
      <point x="93" y="634"/>
    </contour>
  </outline>
</glyph>
<glyph name="Djecyr" format="2">
  <advance width="753"/>
  <unicode hex="0402"/>
  <outline>
    <contour>
      <point x="190" y="0" type="line"/>
      <point x="277" y="0" type="line"/>
      <point x="277" y="619" type="line"/>
      <point x="582" y="619" type="line"/>
      <point x="582" y="700" type="line"/>
      <point x="42" y="700" type="line"/>
      <point x="42" y="619" type="line"/>
      <point x="190" y="619" type="line"/>
    </contour>
    <contour>
      <point x="248" y="257" type="line"/>
      <point x="286" y="316"/>
      <point x="362" y="354"/>
      <point x="439" y="354" type="curve" smooth="yes"/>
      <point x="552" y="354"/>
      <point x="619" y="275"/>
      <point x="619" y="151" type="curve" smooth="yes"/>
      <point x="619" y="28"/>
      <point x="554" y="-48"/>
      <point x="431" y="-67" type="curve"/>
      <point x="444" y="-148" type="line"/>
      <point x="613" y="-122"/>
      <point x="705" y="-18"/>
      <point x="705" y="151" type="curve" smooth="yes"/>
      <point x="705" y="319"/>
      <point x="613" y="432"/>
      <point x="451" y="432" type="curve" smooth="yes"/>
      <point x="367" y="432"/>
      <point x="297" y="402"/>
      <point x="240" y="350" type="curve"/>
    </contour>
  </outline>
</glyph>
<glyph name="Eukrcyr" format="2">
  <advance width="776"/>
  <unicode hex="0404"/>
  <outline>
    <contour>
      <point x="541" y="316" type="line"/>
      <point x="541" y="392" type="line"/>
      <point x="104" y="392" type="line"/>
      <point x="104" y="316" type="line"/>
    </contour>
    <contour>
      <point x="419" y="-16" type="curve" smooth="yes"/>
      <point x="556" y="-16"/>
      <point x="663" y="52"/>
      <point x="722" y="162" type="curve"/>
      <point x="647" y="206" type="line"/>
      <point x="600" y="113"/>
      <point x="519" y="66"/>
      <point x="419" y="66" type="curve" smooth="yes"/>
      <point x="259" y="66"/>
      <point x="148" y="183"/>
      <point x="148" y="350" type="curve" smooth="yes"/>
      <point x="148" y="517"/>
      <point x="259" y="634"/>
      <point x="419" y="634" type="curve" smooth="yes"/>
      <point x="519" y="634"/>
      <point x="600" y="587"/>
      <point x="647" y="494" type="curve"/>
      <point x="722" y="538" type="line"/>
      <point x="663" y="648"/>
      <point x="556" y="716"/>
      <point x="419" y="716" type="curve" smooth="yes"/>
      <point x="212" y="716"/>
      <point x="60" y="559"/>
      <point x="60" y="350" type="curve" smooth="yes"/>
      <point x="60" y="141"/>
      <point x="212" y="-16"/>
    </contour>
  </outline>
</glyph>
<glyph name="Ljecyr" format="2">
  <advance width="1070"/>
  <unicode hex="0409"/>
  <outline>
    <contour>
      <point x="36" y="-8" type="line"/>
      <point x="36" y="80" type="line"/>
      <point x="44" y="80" type="line" smooth="yes"/>
      <point x="127" y="80"/>
      <point x="163" y="140"/>
      <point x="163" y="445" type="curve" smooth="yes"/>
      <point x="163" y="700" type="line"/>
      <point x="609" y="700" type="line"/>
      <point x="609" y="455" type="line"/>
      <point x="792" y="455" type="line" smooth="yes"/>
      <point x="930" y="455"/>
      <point x="1022" y="363"/>
      <point x="1022" y="227" type="curve" smooth="yes"/>
      <point x="1022" y="91"/>
      <point x="930" y="0"/>
      <point x="792" y="0" type="curve" smooth="yes"/>
      <point x="527" y="0" type="line"/>
      <point x="527" y="620" type="line"/>
      <point x="243" y="620" type="line"/>
      <point x="243" y="413" type="line" smooth="yes"/>
      <point x="243" y="98"/>
      <point x="187" y="-8"/>
      <point x="54" y="-8" type="curve" smooth="yes"/>
    </contour>
    <contour>
      <point x="609" y="377" type="line"/>
      <point x="609" y="78" type="line"/>
      <point x="781" y="78" type="line" smooth="yes"/>
      <point x="880" y="78"/>
      <point x="938" y="140"/>
      <point x="938" y="226" type="curve" smooth="yes"/>
      <point x="938" y="314"/>
      <point x="880" y="377"/>
      <point x="781" y="377" type="curve" smooth="yes"/>
    </contour>
  </outline>
</glyph>
<glyph name="Njecyr" format="2">
  <advance width="1073"/>
  <unicode hex="040A"/>
  <outline>
    <contour>
      <point x="92" y="0" type="line"/>
      <point x="179" y="0" type="line"/>
      <point x="179" y="357" type="line"/>
      <point x="529" y="357" type="line"/>
      <point x="529" y="0" type="line"/>
      <point x="795" y="0" type="line" smooth="yes"/>
      <point x="933" y="0"/>
      <point x="1025" y="87"/>
      <point x="1025" y="217" type="curve" smooth="yes"/>
      <point x="1025" y="347"/>
      <point x="933" y="435"/>
      <point x="795" y="435" type="curve" smooth="yes"/>
      <point x="612" y="435" type="line"/>
      <point x="612" y="700" type="line"/>
      <point x="529" y="700" type="line"/>
      <point x="529" y="437" type="line"/>
      <point x="179" y="437" type="line"/>
      <point x="179" y="700" type="line"/>
      <point x="92" y="700" type="line"/>
    </contour>
    <contour>
      <point x="612" y="80" type="line"/>
      <point x="612" y="355" type="line"/>
      <point x="784" y="355" type="line" smooth="yes"/>
      <point x="883" y="355"/>
      <point x="941" y="297"/>
      <point x="941" y="216" type="curve" smooth="yes"/>
      <point x="941" y="137"/>
      <point x="883" y="80"/>
      <point x="784" y="80" type="curve" smooth="yes"/>
    </contour>
  </outline>
</glyph>
<glyph name="Tshecyr" format="2">
  <advance width="777"/>
  <unicode hex="040B"/>
  <outline>
    <contour>
      <point x="189" y="0" type="line"/>
      <point x="276" y="0" type="line"/>
      <point x="276" y="619" type="line"/>
      <point x="582" y="619" type="line"/>
      <point x="582" y="700" type="line"/>
      <point x="42" y="700" type="line"/>
      <point x="42" y="619" type="line"/>
      <point x="189" y="619" type="line"/>
    </contour>
    <contour>
      <point x="608" y="0" type="line"/>
      <point x="695" y="0" type="line"/>
      <point x="695" y="183" type="line" smooth="yes"/>
      <point x="695" y="343"/>
      <point x="605" y="432"/>
      <point x="457" y="432" type="curve" smooth="yes"/>
      <point x="370" y="432"/>
      <point x="298" y="401"/>
      <point x="240" y="350" type="curve"/>
      <point x="248" y="257" type="line"/>
      <point x="285" y="313"/>
      <point x="360" y="354"/>
      <point x="446" y="354" type="curve" smooth="yes"/>
      <point x="550" y="354"/>
      <point x="608" y="287"/>
      <point x="608" y="178" type="curve" smooth="yes"/>
    </contour>
  </outline>
</glyph>
<glyph name="Dzhecyr" format="2">
  <advance width="740"/>
  <unicode hex="040F"/>
  <outline>
    <contour>
      <point x="92" y="700" type="line"/>
      <point x="92" y="0" type="line"/>
      <point x="329" y="0" type="line"/>
      <point x="329" y="-148" type="line"/>
      <point x="415" y="-148" type="line"/>
      <point x="415" y="0" type="line"/>
      <point x="648" y="0" type="line"/>
      <point x="648" y="700" type="line"/>
      <point x="562" y="700" type="line"/>
      <point x="562" y="78" type="line"/>
      <point x="178" y="78" type="line"/>
      <point x="178" y="700" type="line"/>
    </contour>
  </outline>
</glyph>
<glyph name="Becyr" format="2">
  <advance width="596"/>
  <unicode hex="0411"/>
  <outline>
    <contour>
      <point x="78" y="700" type="line"/>
      <point x="502" y="700" type="line"/>
      <point x="502" y="622" type="line"/>
      <point x="160" y="622" type="line"/>
      <point x="160" y="410" type="line"/>
      <point x="345" y="410" type="line" smooth="yes"/>
      <point x="476" y="410"/>
      <point x="560" y="330"/>
      <point x="560" y="205" type="curve" smooth="yes"/>
      <point x="560" y="79"/>
      <point x="477" y="0"/>
      <point x="345" y="0" type="curve" smooth="yes"/>
      <point x="78" y="0" type="line"/>
    </contour>
    <contour>
      <point x="160" y="332" type="line"/>
      <point x="160" y="78" type="line"/>
      <point x="344" y="78" type="line" smooth="yes"/>
      <point x="419" y="78"/>
      <point x="476" y="131"/>
      <point x="476" y="206" type="curve" smooth="yes"/>
      <point x="476" y="278"/>
      <point x="419" y="332"/>
      <point x="344" y="332" type="curve" smooth="yes"/>
    </contour>
  </outline>
</glyph>
<glyph name="Gecyr" format="2">
  <advance width="540"/>
  <unicode hex="0413"/>
  <outline>
    <contour>
      <point x="92" y="0" type="line"/>
      <point x="176" y="0" type="line"/>
      <point x="176" y="622" type="line"/>
      <point x="502" y="622" type="line"/>
      <point x="502" y="700" type="line"/>
      <point x="92" y="700" type="line"/>
    </contour>
  </outline>
</glyph>
<glyph name="Decyr" format="2">
  <advance width="753"/>
  <unicode hex="0414"/>
  <outline>
    <contour>
      <point x="36" y="-154" type="line"/>
      <point x="122" y="-154" type="line"/>
      <point x="122" y="0" type="line"/>
      <point x="623" y="0" type="line"/>
      <point x="623" y="-154" type="line"/>
      <point x="709" y="-154" type="line"/>
      <point x="709" y="81" type="line"/>
      <point x="613" y="81" type="line"/>
      <point x="613" y="700" type="line"/>
      <point x="162" y="700" type="line"/>
      <point x="162" y="541" type="line" smooth="yes"/>
      <point x="162" y="276"/>
      <point x="143" y="145"/>
      <point x="98" y="81" type="curve"/>
      <point x="36" y="81" type="line"/>
    </contour>
    <contour>
      <point x="192" y="81" type="line"/>
      <point x="232" y="166"/>
      <point x="248" y="294"/>
      <point x="248" y="521" type="curve" smooth="yes"/>
      <point x="248" y="619" type="line"/>
      <point x="526" y="619" type="line"/>
      <point x="526" y="81" type="line"/>
    </contour>
  </outline>
</glyph>
<glyph name="Zhecyr" format="2">
  <advance width="907"/>
  <unicode hex="0416"/>
  <outline>
    <contour>
      <point x="410" y="0" type="line"/>
      <point x="497" y="0" type="line"/>
      <point x="497" y="326" type="line"/>
      <point x="631" y="326" type="line"/>
      <point x="631" y="407" type="line"/>
      <point x="497" y="407" type="line"/>
      <point x="497" y="700" type="line"/>
      <point x="410" y="700" type="line"/>
      <point x="410" y="407" type="line"/>
      <point x="276" y="407" type="line"/>
      <point x="276" y="326" type="line"/>
      <point x="410" y="326" type="line"/>
    </contour>
    <contour>
      <point x="26" y="0" type="line"/>
      <point x="128" y="0" type="line"/>
      <point x="345" y="366" type="line"/>
      <point x="139" y="700" type="line"/>
      <point x="37" y="700" type="line"/>
      <point x="249" y="368" type="line"/>
    </contour>
    <contour>
      <point x="779" y="0" type="line"/>
      <point x="881" y="0" type="line"/>
      <point x="658" y="368" type="line"/>
      <point x="870" y="700" type="line"/>
      <point x="768" y="700" type="line"/>
      <point x="561" y="366" type="line"/>
    </contour>
  </outline>
</glyph>
<glyph name="Zecyr" format="2">
  <advance width="610"/>
  <unicode hex="0417"/>
  <outline>
    <contour>
      <point x="299.197" y="-16" type="curve" smooth="yes"/>
      <point x="457" y="-16"/>
      <point x="562" y="70"/>
      <point x="562" y="196.373" type="curve" smooth="yes"/>
      <point x="562" y="287"/>
      <point x="508" y="349"/>
      <point x="405" y="375" type="curve"/>
      <point x="405" y="356" type="line"/>
      <point x="498" y="377"/>
      <point x="551" y="439"/>
      <point x="551" y="522.375" type="curve" smooth="yes"/>
      <point x="551" y="634"/>
      <point x="456" y="716"/>
      <point x="306.724" y="716" type="curve" smooth="yes"/>
      <point x="189" y="716"/>
      <point x="98" y="665"/>
      <point x="47" y="569" type="curve"/>
      <point x="122" y="527" type="line"/>
      <point x="161" y="599"/>
      <point x="222" y="635"/>
      <point x="304.625" y="635" type="curve" smooth="yes"/>
      <point x="402" y="635"/>
      <point x="466" y="585"/>
      <point x="466" y="512.226" type="curve" smooth="yes"/>
      <point x="466" y="446"/>
      <point x="413" y="401"/>
      <point x="333" y="401" type="curve" smooth="yes"/>
      <point x="189" y="401" type="line"/>
      <point x="189" y="319" type="line"/>
      <point x="335" y="319" type="line" smooth="yes"/>
      <point x="419" y="319"/>
      <point x="477" y="270"/>
      <point x="477" y="197.776" type="curve" smooth="yes"/>
      <point x="477" y="119"/>
      <point x="408" y="65"/>
      <point x="300.423" y="65" type="curve" smooth="yes"/>
      <point x="209" y="65"/>
      <point x="145" y="104"/>
      <point x="99" y="190" type="curve"/>
      <point x="23" y="149" type="line"/>
      <point x="78" y="39"/>
      <point x="173" y="-16"/>
    </contour>
  </outline>
</glyph>
<glyph name="Icyr" format="2">
  <advance width="724"/>
  <unicode hex="0418"/>
  <outline>
    <contour>
      <point x="632" y="0" type="line"/>
      <point x="632" y="700" type="line"/>
      <point x="541" y="700" type="line"/>
      <point x="169" y="123" type="line"/>
      <point x="180" y="121" type="line"/>
      <point x="180" y="700" type="line"/>
      <point x="92" y="700" type="line"/>
      <point x="92" y="0" type="line"/>
      <point x="183" y="0" type="line"/>
      <point x="555" y="577" type="line"/>
      <point x="544" y="579" type="line"/>
      <point x="544" y="0" type="line"/>
    </contour>
  </outline>
</glyph>
<glyph name="Kacyr" format="2">
  <advance width="645"/>
  <unicode hex="041A"/>
  <outline>
    <contour>
      <point x="92" y="0" type="line"/>
      <point x="179" y="0" type="line"/>
      <point x="179" y="326" type="line"/>
      <point x="318" y="326" type="line"/>
      <point x="318" y="407" type="line"/>
      <point x="179" y="407" type="line"/>
      <point x="179" y="700" type="line"/>
      <point x="92" y="700" type="line"/>
    </contour>
    <contour>
      <point x="350" y="367" type="line"/>
      <point x="617" y="700" type="line"/>
      <point x="510" y="700" type="line"/>
      <point x="247" y="365" type="line"/>
      <point x="511" y="0" type="line"/>
      <point x="619" y="0" type="line"/>
    </contour>
  </outline>
</glyph>
<glyph name="Elcyr" format="2">
  <advance width="719"/>
  <unicode hex="041B"/>
  <outline>
    <contour>
      <point x="42" y="-8" type="line"/>
      <point x="60" y="-8" type="line" smooth="yes"/>
      <point x="193" y="-8"/>
      <point x="249" y="98"/>
      <point x="249" y="413" type="curve" smooth="yes"/>
      <point x="249" y="620" type="line"/>
      <point x="543" y="620" type="line"/>
      <point x="543" y="0" type="line"/>
      <point x="627" y="0" type="line"/>
      <point x="627" y="700" type="line"/>
      <point x="169" y="700" type="line"/>
      <point x="169" y="445" type="line" smooth="yes"/>
      <point x="169" y="140"/>
      <point x="133" y="80"/>
      <point x="50" y="80" type="curve" smooth="yes"/>
      <point x="42" y="80" type="line"/>
    </contour>
  </outline>
</glyph>
<glyph name="Pecyr" format="2">
  <advance width="716"/>
  <unicode hex="041F"/>
  <outline>
    <contour>
      <point x="92" y="0" type="line"/>
      <point x="179" y="0" type="line"/>
      <point x="179" y="619" type="line"/>
      <point x="537" y="619" type="line"/>
      <point x="537" y="0" type="line"/>
      <point x="624" y="0" type="line"/>
      <point x="624" y="700" type="line"/>
      <point x="92" y="700" type="line"/>
    </contour>
  </outline>
</glyph>
<glyph name="Ucyr" format="2">
  <advance width="601"/>
  <unicode hex="0423"/>
  <anchor x="302" y="700" name="top"/>
  <outline>
    <contour>
      <point x="175" y="0" type="line"/>
      <point x="263" y="0" type="line"/>
      <point x="575" y="700" type="line"/>
      <point x="481" y="700" type="line"/>
      <point x="301" y="281" type="line"/>
      <point x="291" y="261" type="line"/>
    </contour>
    <contour>
      <point x="270" y="209" type="line"/>
      <point x="317" y="296" type="line"/>
      <point x="121" y="700" type="line"/>
      <point x="26" y="700" type="line"/>
    </contour>
  </outline>
</glyph>
<glyph name="Efcyr" format="2">
  <advance width="888"/>
  <unicode hex="0424"/>
  <outline>
    <contour>
      <point x="402" y="-14" type="line"/>
      <point x="486" y="-14" type="line"/>
      <point x="486" y="714" type="line"/>
      <point x="402" y="714" type="line"/>
    </contour>
    <contour>
      <point x="460" y="49" type="line"/>
      <point x="484" y="49" type="line" smooth="yes"/>
      <point x="692" y="49"/>
      <point x="828" y="167"/>
      <point x="828" y="350" type="curve" smooth="yes"/>
      <point x="828" y="533"/>
      <point x="692" y="651"/>
      <point x="484" y="651" type="curve" smooth="yes"/>
      <point x="460" y="651" type="line"/>
      <point x="460" y="571" type="line"/>
      <point x="484" y="571" type="line" smooth="yes"/>
      <point x="642" y="571"/>
      <point x="742" y="486"/>
      <point x="742" y="350" type="curve" smooth="yes"/>
      <point x="742" y="214"/>
      <point x="642" y="129"/>
      <point x="484" y="129" type="curve" smooth="yes"/>
      <point x="460" y="129" type="line"/>
    </contour>
    <contour>
      <point x="428" y="49" type="line"/>
      <point x="428" y="129" type="line"/>
      <point x="404" y="129" type="line" smooth="yes"/>
      <point x="246" y="129"/>
      <point x="146" y="214"/>
      <point x="146" y="350" type="curve" smooth="yes"/>
      <point x="146" y="486"/>
      <point x="246" y="571"/>
      <point x="404" y="571" type="curve" smooth="yes"/>
      <point x="428" y="571" type="line"/>
      <point x="428" y="651" type="line"/>
      <point x="404" y="651" type="line" smooth="yes"/>
      <point x="196" y="651"/>
      <point x="60" y="533"/>
      <point x="60" y="350" type="curve" smooth="yes"/>
      <point x="60" y="167"/>
      <point x="196" y="49"/>
      <point x="404" y="49" type="curve" smooth="yes"/>
    </contour>
  </outline>
</glyph>
<glyph name="Tsecyr" format="2">
  <advance width="760"/>
  <unicode hex="0426"/>
  <outline>
    <contour>
      <point x="92" y="700" type="line"/>
      <point x="92" y="0" type="line" name=".hr01"/>
      <point x="632" y="0" type="line"/>
      <point x="632" y="-148" type="line"/>
      <point x="718" y="-148" type="line" name=".hr02"/>
      <point x="718" y="81" type="line"/>
      <point x="624" y="81" type="line"/>
      <point x="624" y="700" type="line"/>
      <point x="537" y="700" type="line"/>
      <point x="537" y="81" type="line"/>
      <point x="179" y="81" type="line"/>
      <point x="179" y="700" type="line"/>
    </contour>
  </outline>
</glyph>
<glyph name="Checyr" format="2">
  <advance width="694"/>
  <unicode hex="0427"/>
  <outline>
    <contour>
      <point x="545" y="435" type="line"/>
      <point x="516" y="379"/>
      <point x="428" y="334"/>
      <point x="337" y="334" type="curve" smooth="yes"/>
      <point x="226" y="334"/>
      <point x="166" y="401"/>
      <point x="166" y="518" type="curve" smooth="yes"/>
      <point x="166" y="700" type="line"/>
      <point x="82" y="700" type="line"/>
      <point x="82" y="512" type="line" smooth="yes"/>
      <point x="82" y="343"/>
      <point x="176" y="254"/>
      <point x="328" y="254" type="curve" smooth="yes"/>
      <point x="419" y="254"/>
      <point x="493" y="286"/>
      <point x="553" y="340" type="curve"/>
    </contour>
    <contour>
      <point x="602" y="0" type="line"/>
      <point x="602" y="700" type="line"/>
      <point x="518" y="700" type="line"/>
      <point x="518" y="0" type="line"/>
    </contour>
  </outline>
</glyph>
<glyph name="Shacyr" format="2">
  <advance width="950"/>
  <unicode hex="0428"/>
  <outline>
    <contour>
      <point x="92" y="0" type="line"/>
      <point x="858" y="0" type="line"/>
      <point x="858" y="700" type="line"/>
      <point x="774" y="700" type="line"/>
      <point x="774" y="78" type="line"/>
      <point x="517" y="78" type="line"/>
      <point x="517" y="700" type="line"/>
      <point x="433" y="700" type="line"/>
      <point x="433" y="78" type="line"/>
      <point x="176" y="78" type="line"/>
      <point x="176" y="700" type="line"/>
      <point x="92" y="700" type="line"/>
    </contour>
  </outline>
</glyph>
<glyph name="Shchacyr" format="2">
  <advance width="1003"/>
  <unicode hex="0429"/>
  <outline>
    <contour>
      <point x="92" y="0" type="line"/>
      <point x="875" y="0" type="line"/>
      <point x="875" y="-154" type="line"/>
      <point x="961" y="-154" type="line"/>
      <point x="961" y="80" type="line"/>
      <point x="861" y="80" type="line"/>
      <point x="861" y="700" type="line"/>
      <point x="774" y="700" type="line"/>
      <point x="774" y="80" type="line"/>
      <point x="520" y="80" type="line"/>
      <point x="520" y="700" type="line"/>
      <point x="433" y="700" type="line"/>
      <point x="433" y="80" type="line"/>
      <point x="179" y="80" type="line"/>
      <point x="179" y="700" type="line"/>
      <point x="92" y="700" type="line"/>
    </contour>
  </outline>
</glyph>
<glyph name="Hardcyr" format="2">
  <advance width="763"/>
  <unicode hex="042A"/>
  <outline>
    <contour>
      <point x="42" y="700" type="line"/>
      <point x="291" y="700" type="line"/>
      <point x="291" y="455" type="line"/>
      <point x="484" y="455" type="line" smooth="yes"/>
      <point x="622" y="455"/>
      <point x="715" y="363"/>
      <point x="715" y="227" type="curve" smooth="yes"/>
      <point x="715" y="91"/>
      <point x="622" y="0"/>
      <point x="484" y="0" type="curve" smooth="yes"/>
      <point x="209" y="0" type="line"/>
      <point x="209" y="618" type="line"/>
      <point x="42" y="618" type="line"/>
    </contour>
    <contour>
      <point x="291" y="377" type="line"/>
      <point x="291" y="78" type="line"/>
      <point x="475" y="78" type="line" smooth="yes"/>
      <point x="574" y="78"/>
      <point x="631" y="139"/>
      <point x="631" y="226" type="curve" smooth="yes"/>
      <point x="631" y="315"/>
      <point x="574" y="377"/>
      <point x="475" y="377" type="curve" smooth="yes"/>
    </contour>
  </outline>
</glyph>
<glyph name="Ylongcyr" format="2">
  <advance width="879"/>
  <unicode hex="042B"/>
  <outline>
    <contour>
      <point x="92" y="700" type="line"/>
      <point x="174" y="700" type="line"/>
      <point x="174" y="455" type="line"/>
      <point x="367" y="455" type="line" smooth="yes"/>
      <point x="505" y="455"/>
      <point x="597" y="363"/>
      <point x="597" y="227" type="curve" smooth="yes"/>
      <point x="597" y="91"/>
      <point x="505" y="0"/>
      <point x="367" y="0" type="curve" smooth="yes"/>
      <point x="92" y="0" type="line"/>
    </contour>
    <contour>
      <point x="174" y="377" type="line"/>
      <point x="174" y="78" type="line"/>
      <point x="356" y="78" type="line" smooth="yes"/>
      <point x="455" y="78"/>
      <point x="513" y="140"/>
      <point x="513" y="226" type="curve" smooth="yes"/>
      <point x="513" y="314"/>
      <point x="455" y="377"/>
      <point x="356" y="377" type="curve" smooth="yes"/>
    </contour>
    <contour>
      <point x="787" y="700" type="line"/>
      <point x="787" y="0" type="line"/>
      <point x="701" y="0" type="line"/>
      <point x="701" y="700" type="line"/>
    </contour>
  </outline>
</glyph>
<glyph name="Softcyr" format="2">
  <advance width="636"/>
  <unicode hex="042C"/>
  <outline>
    <contour>
      <point x="92" y="0" type="line"/>
      <point x="92" y="700" type="line"/>
      <point x="179" y="700" type="line"/>
      <point x="179" y="444" type="line"/>
      <point x="356" y="444" type="line" smooth="yes"/>
      <point x="497" y="444"/>
      <point x="588" y="354"/>
      <point x="588" y="222" type="curve" smooth="yes"/>
      <point x="588" y="90"/>
      <point x="497" y="0"/>
      <point x="356" y="0" type="curve" smooth="yes"/>
    </contour>
    <contour>
      <point x="179" y="81" type="line"/>
      <point x="346" y="81" type="line" smooth="yes"/>
      <point x="440" y="81"/>
      <point x="500" y="135"/>
      <point x="500" y="222" type="curve" smooth="yes"/>
      <point x="500" y="309"/>
      <point x="440" y="363"/>
      <point x="346" y="363" type="curve" smooth="yes"/>
      <point x="179" y="363" type="line"/>
    </contour>
  </outline>
</glyph>
<glyph name="Ereversedcyr" format="2">
  <advance width="762"/>
  <unicode hex="042D"/>
  <outline>
    <contour>
      <point x="221" y="315" type="line"/>
      <point x="655" y="315" type="line"/>
      <point x="655" y="393" type="line"/>
      <point x="221" y="393" type="line"/>
    </contour>
    <contour>
      <point x="343" y="-16" type="curve" smooth="yes"/>
      <point x="550" y="-16"/>
      <point x="702" y="141"/>
      <point x="702" y="350" type="curve" smooth="yes"/>
      <point x="702" y="559"/>
      <point x="550" y="716"/>
      <point x="343" y="716" type="curve" smooth="yes"/>
      <point x="206" y="716"/>
      <point x="99" y="648"/>
      <point x="40" y="538" type="curve"/>
      <point x="115" y="494" type="line"/>
      <point x="162" y="587"/>
      <point x="243" y="634"/>
      <point x="343" y="634" type="curve" smooth="yes"/>
      <point x="503" y="634"/>
      <point x="614" y="517"/>
      <point x="614" y="350" type="curve" smooth="yes"/>
      <point x="614" y="183"/>
      <point x="503" y="66"/>
      <point x="343" y="66" type="curve" smooth="yes"/>
      <point x="243" y="66"/>
      <point x="162" y="113"/>
      <point x="115" y="206" type="curve"/>
      <point x="40" y="162" type="line"/>
      <point x="99" y="52"/>
      <point x="206" y="-16"/>
    </contour>
  </outline>
</glyph>
<glyph name="Yucyr" format="2">
  <advance width="1103"/>
  <unicode hex="042E"/>
  <outline>
    <contour>
      <point x="92" y="0" type="line"/>
      <point x="178" y="0" type="line"/>
      <point x="178" y="328" type="line"/>
      <point x="385" y="328" type="line"/>
      <point x="385" y="410" type="line"/>
      <point x="178" y="410" type="line"/>
      <point x="178" y="700" type="line"/>
      <point x="92" y="700" type="line"/>
    </contour>
    <contour>
      <point x="689" y="714" type="curve" smooth="yes"/>
      <point x="486" y="714"/>
      <point x="334" y="558"/>
      <point x="334" y="350" type="curve" smooth="yes"/>
      <point x="334" y="142"/>
      <point x="486" y="-14"/>
      <point x="689" y="-14" type="curve" smooth="yes"/>
      <point x="892" y="-14"/>
      <point x="1043" y="142"/>
      <point x="1043" y="350" type="curve" smooth="yes"/>
      <point x="1043" y="558"/>
      <point x="892" y="714"/>
    </contour>
    <contour>
      <point x="689" y="632" type="curve" smooth="yes"/>
      <point x="843" y="632"/>
      <point x="955" y="511"/>
      <point x="955" y="350" type="curve" smooth="yes"/>
      <point x="955" y="184"/>
      <point x="843" y="68"/>
      <point x="689" y="68" type="curve" smooth="yes"/>
      <point x="535" y="68"/>
      <point x="422" y="184"/>
      <point x="422" y="350" type="curve" smooth="yes"/>
      <point x="422" y="511"/>
      <point x="535" y="632"/>
    </contour>
  </outline>
</glyph>
<glyph name="Yacyr" format="2">
  <advance width="634"/>
  <unicode hex="042F"/>
  <outline>
    <contour>
      <point x="323" y="290" type="line"/>
      <point x="254" y="326" type="line"/>
      <point x="26" y="0" type="line"/>
      <point x="124" y="0" type="line"/>
    </contour>
    <contour>
      <point x="542" y="0" type="line"/>
      <point x="542" y="700" type="line"/>
      <point x="280" y="700" type="line" smooth="yes"/>
      <point x="146" y="700"/>
      <point x="55" y="611"/>
      <point x="55" y="479" type="curve" smooth="yes"/>
      <point x="55" y="345"/>
      <point x="146" y="256"/>
      <point x="280" y="256" type="curve" smooth="yes"/>
      <point x="459" y="256" type="line"/>
      <point x="459" y="0" type="line"/>
    </contour>
    <contour>
      <point x="459" y="336" type="line"/>
      <point x="283" y="336" type="line" smooth="yes"/>
      <point x="197" y="336"/>
      <point x="139" y="391"/>
      <point x="139" y="478" type="curve" smooth="yes"/>
      <point x="139" y="562"/>
      <point x="198" y="620"/>
      <point x="283" y="620" type="curve" smooth="yes"/>
      <point x="459" y="620" type="line"/>
    </contour>
  </outline>
</glyph>
<glyph name="becyr" format="2">
  <advance width="611"/>
  <unicode hex="0431"/>
  <outline>
    <contour>
      <point x="314.219" y="-14" type="curve" smooth="yes"/>
      <point x="464" y="-14"/>
      <point x="565" y="90"/>
      <point x="565" y="242.02" type="curve" smooth="yes"/>
      <point x="565" y="391"/>
      <point x="468" y="495"/>
      <point x="326.862" y="495" type="curve" smooth="yes"/>
      <point x="229" y="495"/>
      <point x="156" y="445"/>
      <point x="120" y="356" type="curve"/>
      <point x="133" y="356" type="line"/>
      <point x="133" y="539"/>
      <point x="195" y="614"/>
      <point x="359" y="627" type="curve" smooth="yes"/>
      <point x="526" y="640" type="line"/>
      <point x="522" y="718" type="line"/>
      <point x="352" y="704" type="line" smooth="yes"/>
      <point x="143" y="687"/>
      <point x="56" y="576"/>
      <point x="56" y="329" type="curve" smooth="yes"/>
      <point x="56" y="299" type="line" smooth="yes"/>
      <point x="56" y="105"/>
      <point x="154" y="-14"/>
    </contour>
    <contour>
      <point x="314.5" y="61" type="curve" smooth="yes"/>
      <point x="215" y="61"/>
      <point x="145" y="135"/>
      <point x="145" y="241" type="curve" smooth="yes"/>
      <point x="145" y="347"/>
      <point x="215" y="421"/>
      <point x="314.5" y="421" type="curve" smooth="yes"/>
      <point x="414" y="421"/>
      <point x="484" y="347"/>
      <point x="484" y="241" type="curve" smooth="yes"/>
      <point x="484" y="135"/>
      <point x="414" y="61"/>
    </contour>
  </outline>
</glyph>
<glyph name="vecyr" format="2">
  <advance width="506"/>
  <unicode hex="0432"/>
  <outline>
    <contour>
      <point x="76" y="0" type="line"/>
      <point x="310" y="0" type="line" smooth="yes"/>
      <point x="406" y="0"/>
      <point x="468" y="55"/>
      <point x="468" y="139.381" type="curve" smooth="yes"/>
      <point x="468" y="208"/>
      <point x="427" y="257"/>
      <point x="362" y="268" type="curve"/>
      <point x="365" y="259" type="line"/>
      <point x="416" y="274"/>
      <point x="448" y="312"/>
      <point x="448" y="369.256" type="curve" smooth="yes"/>
      <point x="448" y="447"/>
      <point x="389" y="500"/>
      <point x="302" y="500" type="curve" smooth="yes"/>
      <point x="76" y="500" type="line"/>
    </contour>
    <contour>
      <point x="152" y="294" type="line"/>
      <point x="152" y="430" type="line"/>
      <point x="300" y="430" type="line" smooth="yes"/>
      <point x="344" y="430"/>
      <point x="371" y="401"/>
      <point x="371" y="362" type="curve" smooth="yes"/>
      <point x="371" y="322"/>
      <point x="344" y="294"/>
      <point x="300" y="294" type="curve" smooth="yes"/>
    </contour>
    <contour>
      <point x="152" y="70" type="line"/>
      <point x="152" y="226" type="line"/>
      <point x="308" y="226" type="line" smooth="yes"/>
      <point x="354" y="226"/>
      <point x="390" y="197"/>
      <point x="390" y="148" type="curve" smooth="yes"/>
      <point x="390" y="98"/>
      <point x="354" y="70"/>
      <point x="308" y="70" type="curve" smooth="yes"/>
    </contour>
  </outline>
</glyph>
<glyph name="gecyr" format="2">
  <advance width="402"/>
  <unicode hex="0433"/>
  <outline>
    <contour>
      <point x="76" y="500" type="line"/>
      <point x="382" y="500" type="line"/>
      <point x="382" y="426" type="line"/>
      <point x="156" y="426" type="line"/>
      <point x="156" y="0" type="line"/>
      <point x="76" y="0" type="line"/>
    </contour>
  </outline>
</glyph>
<glyph name="decyr" format="2">
  <advance width="597"/>
  <unicode hex="0434"/>
  <outline>
    <contour>
      <point x="28" y="-130" type="line"/>
      <point x="102" y="-130" type="line"/>
      <point x="102" y="0" type="line" name=".hr01"/>
      <point x="495" y="0" type="line"/>
      <point x="495" y="-130" type="line"/>
      <point x="569" y="-130" type="line"/>
      <point x="569" y="74" type="line"/>
      <point x="491" y="74" type="line" name=".hr02"/>
      <point x="491" y="500" type="line"/>
      <point x="127" y="500" type="line"/>
      <point x="127" y="411" type="line" smooth="yes"/>
      <point x="127" y="197"/>
      <point x="113" y="114"/>
      <point x="86" y="74" type="curve"/>
      <point x="28" y="74" type="line" name=".hr03"/>
    </contour>
    <contour>
      <point x="166" y="74" type="line"/>
      <point x="189" y="127"/>
      <point x="201" y="207"/>
      <point x="201" y="368" type="curve" smooth="yes"/>
      <point x="201" y="426" type="line"/>
      <point x="411" y="426" type="line"/>
      <point x="411" y="74" type="line"/>
    </contour>
  </outline>
</glyph>
<glyph name="zhecyr" format="2">
  <advance width="755"/>
  <unicode hex="0436"/>
  <anchor x="378" y="500" name="top"/>
  <outline>
    <contour>
      <point x="337" y="0" type="line"/>
      <point x="418" y="0" type="line"/>
      <point x="418" y="222" type="line"/>
      <point x="538" y="222" type="line"/>
      <point x="538" y="296" type="line"/>
      <point x="418" y="296" type="line"/>
      <point x="418" y="500" type="line"/>
      <point x="337" y="500" type="line"/>
      <point x="337" y="296" type="line"/>
      <point x="217" y="296" type="line"/>
      <point x="217" y="222" type="line"/>
      <point x="337" y="222" type="line"/>
    </contour>
    <contour>
      <point x="475" y="260" type="line"/>
      <point x="643" y="0" type="line"/>
      <point x="735" y="0" type="line"/>
      <point x="565" y="262" type="line"/>
      <point x="724" y="500" type="line"/>
      <point x="634" y="500" type="line"/>
    </contour>
    <contour>
      <point x="280" y="260" type="line"/>
      <point x="121" y="500" type="line"/>
      <point x="31" y="500" type="line"/>
      <point x="190" y="262" type="line"/>
      <point x="20" y="0" type="line"/>
      <point x="112" y="0" type="line"/>
    </contour>
  </outline>
</glyph>
<glyph name="zecyr" format="2">
  <advance width="469"/>
  <unicode hex="0437"/>
  <outline>
    <contour>
      <point x="233" y="-14" type="curve" smooth="yes"/>
      <point x="350" y="-14"/>
      <point x="431" y="45"/>
      <point x="431" y="139" type="curve" smooth="yes"/>
      <point x="431" y="211"/>
      <point x="383" y="260"/>
      <point x="306" y="268" type="curve"/>
      <point x="306" y="250" type="line"/>
      <point x="380" y="264"/>
      <point x="419" y="306"/>
      <point x="419" y="370" type="curve" smooth="yes"/>
      <point x="419" y="456"/>
      <point x="348" y="514"/>
      <point x="237" y="514" type="curve" smooth="yes"/>
      <point x="142" y="514"/>
      <point x="71" y="472"/>
      <point x="32" y="388" type="curve"/>
      <point x="101" y="357" type="line"/>
      <point x="126" y="414"/>
      <point x="171" y="444"/>
      <point x="234" y="444" type="curve" smooth="yes"/>
      <point x="301" y="444"/>
      <point x="344" y="411"/>
      <point x="344" y="364" type="curve" smooth="yes"/>
      <point x="344" y="321"/>
      <point x="308" y="295"/>
      <point x="254" y="295" type="curve" smooth="yes"/>
      <point x="148" y="295" type="line"/>
      <point x="148" y="224" type="line"/>
      <point x="254" y="224" type="line" smooth="yes"/>
      <point x="313" y="224"/>
      <point x="355" y="193"/>
      <point x="355" y="143" type="curve" smooth="yes"/>
      <point x="355" y="90"/>
      <point x="306" y="56"/>
      <point x="233" y="56" type="curve" smooth="yes"/>
      <point x="163" y="56"/>
      <point x="115" y="87"/>
      <point x="88" y="153" type="curve"/>
      <point x="18" y="123" type="line"/>
      <point x="57" y="32"/>
      <point x="129" y="-14"/>
    </contour>
  </outline>
</glyph>
<glyph name="icyr" format="2">
  <advance width="578"/>
  <unicode hex="0438"/>
  <outline>
    <contour>
      <point x="157" y="500" type="line"/>
      <point x="157" y="118" type="line"/>
      <point x="420" y="500" type="line"/>
      <point x="502" y="500" type="line"/>
      <point x="502" y="0" type="line"/>
      <point x="421" y="0" type="line"/>
      <point x="421" y="382" type="line"/>
      <point x="158" y="0" type="line"/>
      <point x="76" y="0" type="line"/>
      <point x="76" y="500" type="line"/>
    </contour>
  </outline>
</glyph>
<glyph name="kacyr" format="2">
  <advance width="522"/>
  <unicode hex="043A"/>
  <outline>
    <contour>
      <point x="157" y="500" type="line"/>
      <point x="76" y="500" type="line"/>
      <point x="76" y="0" type="line"/>
      <point x="157" y="0" type="line"/>
      <point x="157" y="221" type="line"/>
      <point x="275" y="221" type="line"/>
      <point x="275" y="295" type="line"/>
      <point x="157" y="295" type="line"/>
    </contour>
    <contour>
      <point x="210" y="260" type="line"/>
      <point x="406" y="0" type="line"/>
      <point x="502" y="0" type="line"/>
      <point x="302" y="263" type="line"/>
      <point x="497" y="500" type="line"/>
      <point x="403" y="500" type="line"/>
    </contour>
  </outline>
</glyph>
<glyph name="elcyr" format="2">
  <advance width="562"/>
  <unicode hex="043B"/>
  <outline>
    <contour>
      <point x="24" y="-4" type="line"/>
      <point x="44" y="-4" type="line" smooth="yes"/>
      <point x="162" y="-4"/>
      <point x="203" y="74"/>
      <point x="203" y="295" type="curve" smooth="yes"/>
      <point x="203" y="425" type="line"/>
      <point x="405" y="425" type="line"/>
      <point x="405" y="0" type="line"/>
      <point x="486" y="0" type="line"/>
      <point x="486" y="500" type="line"/>
      <point x="123" y="500" type="line"/>
      <point x="123" y="316" type="line" smooth="yes"/>
      <point x="123" y="129"/>
      <point x="105" y="76"/>
      <point x="36" y="76" type="curve" smooth="yes"/>
      <point x="24" y="76" type="line"/>
    </contour>
  </outline>
</glyph>
<glyph name="emcyr" format="2">
  <advance width="680"/>
  <unicode hex="043C"/>
  <outline>
    <contour>
      <point x="345" y="159" type="line"/>
      <point x="178" y="500" type="line"/>
      <point x="76" y="500" type="line"/>
      <point x="76" y="0" type="line"/>
      <point x="154" y="0" type="line"/>
      <point x="154" y="388" type="line"/>
      <point x="147" y="394" type="line"/>
      <point x="308" y="69" type="line"/>
      <point x="372" y="69" type="line"/>
      <point x="533" y="394" type="line"/>
      <point x="526" y="388" type="line"/>
      <point x="526" y="0" type="line"/>
      <point x="604" y="0" type="line"/>
      <point x="604" y="500" type="line"/>
      <point x="504" y="500" type="line"/>
      <point x="337" y="159" type="line"/>
    </contour>
  </outline>
</glyph>
<glyph name="encyr" format="2">
  <advance width="572"/>
  <unicode hex="043D"/>
  <outline>
    <contour>
      <point x="496" y="500" type="line"/>
      <point x="496" y="0" type="line"/>
      <point x="416" y="0" type="line"/>
      <point x="416" y="228" type="line"/>
      <point x="156" y="228" type="line"/>
      <point x="156" y="0" type="line"/>
      <point x="76" y="0" type="line"/>
      <point x="76" y="500" type="line"/>
      <point x="156" y="500" type="line"/>
      <point x="156" y="302" type="line"/>
      <point x="416" y="302" type="line"/>
      <point x="416" y="500" type="line"/>
    </contour>
  </outline>
</glyph>
<glyph name="pecyr" format="2">
  <advance width="572"/>
  <unicode hex="043F"/>
  <outline>
    <contour>
      <point x="76" y="500" type="line"/>
      <point x="496" y="500" type="line"/>
      <point x="496" y="0" type="line"/>
      <point x="416" y="0" type="line"/>
      <point x="416" y="426" type="line"/>
      <point x="156" y="426" type="line"/>
      <point x="156" y="0" type="line"/>
      <point x="76" y="0" type="line"/>
    </contour>
  </outline>
</glyph>
<glyph name="tecyr" format="2">
  <advance width="464"/>
  <unicode hex="0442"/>
  <outline>
    <contour>
      <point x="444" y="500" type="line"/>
      <point x="444" y="426" type="line"/>
      <point x="272" y="426" type="line"/>
      <point x="272" y="0" type="line"/>
      <point x="192" y="0" type="line"/>
      <point x="192" y="426" type="line"/>
      <point x="20" y="426" type="line"/>
      <point x="20" y="500" type="line"/>
    </contour>
  </outline>
</glyph>
<glyph name="efcyr" format="2">
  <advance width="695"/>
  <unicode hex="0444"/>
  <outline>
    <contour>
      <point x="308" y="722" type="line"/>
      <point x="387" y="722" type="line"/>
      <point x="387" y="513" type="line"/>
      <point x="547" y="508"/>
      <point x="649" y="396"/>
      <point x="649" y="250" type="curve" smooth="yes"/>
      <point x="649" y="104"/>
      <point x="547" y="-8"/>
      <point x="387" y="-13" type="curve"/>
      <point x="387" y="-200" type="line"/>
      <point x="308" y="-200" type="line"/>
      <point x="308" y="-13" type="line"/>
      <point x="148" y="-8"/>
      <point x="46" y="104"/>
      <point x="46" y="250" type="curve" smooth="yes"/>
      <point x="46" y="396"/>
      <point x="148" y="508"/>
      <point x="308" y="513" type="curve"/>
    </contour>
    <contour>
      <point x="387" y="62" type="line"/>
      <point x="494" y="65"/>
      <point x="569" y="140"/>
      <point x="569" y="250" type="curve" smooth="yes"/>
      <point x="569" y="360"/>
      <point x="494" y="435"/>
      <point x="387" y="438" type="curve"/>
    </contour>
    <contour>
      <point x="308" y="62" type="curve"/>
      <point x="308" y="438" type="line"/>
      <point x="201" y="435"/>
      <point x="126" y="360"/>
      <point x="126" y="250" type="curve" smooth="yes"/>
      <point x="126" y="140"/>
      <point x="201" y="65"/>
    </contour>
  </outline>
</glyph>
<glyph name="tsecyr" format="2">
  <advance width="598"/>
  <unicode hex="0446"/>
  <outline>
    <contour>
      <point x="76" y="0" type="line"/>
      <point x="76" y="500" type="line"/>
      <point x="157" y="500" type="line"/>
      <point x="157" y="75" type="line"/>
      <point x="411" y="75" type="line"/>
      <point x="411" y="500" type="line"/>
      <point x="492" y="500" type="line"/>
      <point x="492" y="75" type="line"/>
      <point x="570" y="75" type="line"/>
      <point x="570" y="-130" type="line"/>
      <point x="490" y="-130" type="line"/>
      <point x="490" y="0" type="line"/>
    </contour>
  </outline>
</glyph>
<glyph name="checyr" format="2">
  <advance width="548"/>
  <unicode hex="0447"/>
  <outline>
    <contour>
      <point x="411" y="325" type="line"/>
      <point x="390" y="279"/>
      <point x="323" y="246"/>
      <point x="254" y="246" type="curve" smooth="yes"/>
      <point x="182" y="246"/>
      <point x="134" y="282"/>
      <point x="134" y="386" type="curve" smooth="yes"/>
      <point x="134" y="500" type="line"/>
      <point x="54" y="500" type="line"/>
      <point x="54" y="367" type="line" smooth="yes"/>
      <point x="54" y="249"/>
      <point x="117" y="174"/>
      <point x="244" y="174" type="curve" smooth="yes"/>
      <point x="314" y="174"/>
      <point x="373" y="197"/>
      <point x="411" y="236" type="curve"/>
    </contour>
    <contour>
      <point x="472" y="0" type="line"/>
      <point x="472" y="500" type="line"/>
      <point x="392" y="500" type="line"/>
      <point x="392" y="0" type="line"/>
    </contour>
  </outline>
</glyph>
<glyph name="shacyr" format="2">
  <advance width="756"/>
  <unicode hex="0448"/>
  <outline>
    <contour>
      <point x="76" y="0" type="line"/>
      <point x="76" y="500" type="line"/>
      <point x="156" y="500" type="line"/>
      <point x="156" y="74" type="line"/>
      <point x="338" y="74" type="line"/>
      <point x="338" y="500" type="line"/>
      <point x="418" y="500" type="line"/>
      <point x="418" y="74" type="line"/>
      <point x="600" y="74" type="line"/>
      <point x="600" y="500" type="line"/>
      <point x="680" y="500" type="line"/>
      <point x="680" y="0" type="line"/>
    </contour>
  </outline>
</glyph>
<glyph name="shchacyr" format="2">
  <advance width="786"/>
  <unicode hex="0449"/>
  <outline>
    <contour>
      <point x="76" y="0" type="line"/>
      <point x="76" y="500" type="line"/>
      <point x="156" y="500" type="line"/>
      <point x="156" y="74" type="line"/>
      <point x="338" y="74" type="line"/>
      <point x="338" y="500" type="line"/>
      <point x="418" y="500" type="line"/>
      <point x="418" y="74" type="line"/>
      <point x="600" y="74" type="line"/>
      <point x="600" y="500" type="line"/>
      <point x="680" y="500" type="line"/>
      <point x="680" y="74" type="line"/>
      <point x="758" y="74" type="line"/>
      <point x="758" y="-130" type="line"/>
      <point x="684" y="-130" type="line"/>
      <point x="684" y="0" type="line"/>
    </contour>
  </outline>
</glyph>
<glyph name="hardcyr" format="2">
  <advance width="580"/>
  <unicode hex="044A"/>
  <outline>
    <contour>
      <point x="234" y="500" type="line"/>
      <point x="234" y="332" type="line"/>
      <point x="362" y="332" type="line" smooth="yes"/>
      <point x="466" y="332"/>
      <point x="536" y="265"/>
      <point x="536" y="166" type="curve" smooth="yes"/>
      <point x="536" y="69"/>
      <point x="466" y="0"/>
      <point x="363" y="0" type="curve" smooth="yes"/>
      <point x="153" y="0" type="line"/>
      <point x="153" y="425" type="line"/>
      <point x="20" y="425" type="line"/>
      <point x="20" y="500" type="line"/>
    </contour>
    <contour>
      <point x="234" y="73" type="line"/>
      <point x="352" y="73" type="line" smooth="yes"/>
      <point x="415" y="73"/>
      <point x="454" y="110"/>
      <point x="454" y="167" type="curve" smooth="yes"/>
      <point x="454" y="223"/>
      <point x="415" y="259"/>
      <point x="352" y="259" type="curve" smooth="yes"/>
      <point x="234" y="259" type="line"/>
    </contour>
  </outline>
</glyph>
<glyph name="ylongcyr" format="2">
  <advance width="728"/>
  <unicode hex="044B"/>
  <outline>
    <contour>
      <point x="560" y="500" type="line"/>
      <point x="640" y="500" type="line"/>
      <point x="640" y="0" type="line"/>
      <point x="560" y="0" type="line"/>
    </contour>
    <contour>
      <point x="164" y="72" type="line"/>
      <point x="294" y="72" type="line" smooth="yes"/>
      <point x="357" y="72"/>
      <point x="396" y="112"/>
      <point x="396" y="169" type="curve" smooth="yes"/>
      <point x="396" y="224"/>
      <point x="357" y="263"/>
      <point x="294" y="263" type="curve" smooth="yes"/>
      <point x="164" y="263" type="line"/>
    </contour>
    <contour>
      <point x="302" y="0" type="curve" smooth="yes"/>
      <point x="88" y="0" type="line"/>
      <point x="88" y="500" type="line"/>
      <point x="164" y="500" type="line"/>
      <point x="164" y="335" type="line"/>
      <point x="300" y="335" type="line" smooth="yes"/>
      <point x="404" y="335"/>
      <point x="474" y="267"/>
      <point x="474" y="168" type="curve" smooth="yes"/>
      <point x="474" y="70"/>
      <point x="405" y="0"/>
    </contour>
  </outline>
</glyph>
<glyph name="softcyr" format="2">
  <advance width="503"/>
  <unicode hex="044C"/>
  <outline>
    <contour>
      <point x="157" y="73" type="line"/>
      <point x="275" y="73" type="line" smooth="yes"/>
      <point x="338" y="73"/>
      <point x="377" y="111"/>
      <point x="377" y="167" type="curve" smooth="yes"/>
      <point x="377" y="222"/>
      <point x="338" y="259"/>
      <point x="275" y="259" type="curve" smooth="yes"/>
      <point x="157" y="259" type="line"/>
    </contour>
    <contour>
      <point x="286" y="0" type="curve" smooth="yes"/>
      <point x="76" y="0" type="line"/>
      <point x="76" y="500" type="line"/>
      <point x="157" y="500" type="line"/>
      <point x="157" y="332" type="line"/>
      <point x="285" y="332" type="line" smooth="yes"/>
      <point x="389" y="332"/>
      <point x="459" y="264"/>
      <point x="459" y="166" type="curve" smooth="yes"/>
      <point x="459" y="70"/>
      <point x="390" y="0"/>
    </contour>
  </outline>
</glyph>
<glyph name="ereversedcyr" format="2">
  <advance width="561"/>
  <unicode hex="044D"/>
  <outline>
    <contour>
      <point x="171" y="216" type="line"/>
      <point x="477" y="216" type="line"/>
      <point x="477" y="288" type="line"/>
      <point x="171" y="288" type="line"/>
    </contour>
    <contour>
      <point x="515" y="250" type="curve" smooth="yes"/>
      <point x="515" y="402"/>
      <point x="411" y="514"/>
      <point x="257" y="514" type="curve" smooth="yes"/>
      <point x="159" y="514"/>
      <point x="83" y="469"/>
      <point x="40" y="386" type="curve"/>
      <point x="109" y="347" type="line"/>
      <point x="139" y="407"/>
      <point x="189" y="438"/>
      <point x="255" y="438" type="curve" smooth="yes"/>
      <point x="362" y="438"/>
      <point x="433" y="358"/>
      <point x="433" y="250" type="curve" smooth="yes"/>
      <point x="433" y="142"/>
      <point x="362" y="62"/>
      <point x="256" y="62" type="curve" smooth="yes"/>
      <point x="189" y="62"/>
      <point x="137" y="94"/>
      <point x="108" y="158" type="curve"/>
      <point x="38" y="120" type="line"/>
      <point x="81" y="33"/>
      <point x="158" y="-14"/>
      <point x="257" y="-14" type="curve" smooth="yes"/>
      <point x="411" y="-14"/>
      <point x="515" y="98"/>
    </contour>
  </outline>
</glyph>
<glyph name="yucyr" format="2">
  <advance width="827"/>
  <unicode hex="044E"/>
  <outline>
    <contour>
      <point x="312" y="215" type="line"/>
      <point x="168" y="215" type="line"/>
      <point x="168" y="0" type="line"/>
      <point x="88" y="0" type="line"/>
      <point x="88" y="500" type="line"/>
      <point x="168" y="500" type="line"/>
      <point x="168" y="289" type="line"/>
      <point x="312" y="289" type="line"/>
    </contour>
    <contour>
      <point x="528" y="-14" type="curve" smooth="yes"/>
      <point x="380" y="-14"/>
      <point x="275" y="100"/>
      <point x="275" y="250" type="curve" smooth="yes"/>
      <point x="275" y="400"/>
      <point x="380" y="514"/>
      <point x="528" y="514" type="curve" smooth="yes"/>
      <point x="676" y="514"/>
      <point x="781" y="400"/>
      <point x="781" y="250" type="curve" smooth="yes"/>
      <point x="781" y="100"/>
      <point x="676" y="-14"/>
    </contour>
    <contour>
      <point x="526" y="62" type="curve" smooth="yes"/>
      <point x="625" y="62"/>
      <point x="699" y="142"/>
      <point x="699" y="250" type="curve" smooth="yes"/>
      <point x="699" y="358"/>
      <point x="625" y="438"/>
      <point x="526" y="438" type="curve" smooth="yes"/>
      <point x="427" y="438"/>
      <point x="353" y="358"/>
      <point x="353" y="250" type="curve" smooth="yes"/>
      <point x="353" y="142"/>
      <point x="427" y="62"/>
    </contour>
  </outline>
</glyph>
<glyph name="yacyr" format="2">
  <advance width="505"/>
  <unicode hex="044F"/>
  <outline>
    <contour>
      <point x="254" y="207" type="line"/>
      <point x="118" y="0" type="line"/>
      <point x="25" y="0" type="line"/>
      <point x="164" y="211" type="line"/>
    </contour>
    <contour>
      <point x="349" y="427" type="line"/>
      <point x="220" y="427" type="line" smooth="yes"/>
      <point x="157" y="427"/>
      <point x="118" y="389"/>
      <point x="118" y="336" type="curve" smooth="yes"/>
      <point x="118" y="283"/>
      <point x="157" y="246"/>
      <point x="220" y="246" type="curve" smooth="yes"/>
      <point x="349" y="246" type="line"/>
    </contour>
    <contour>
      <point x="212" y="500" type="curve" smooth="yes"/>
      <point x="429" y="500" type="line"/>
      <point x="429" y="0" type="line"/>
      <point x="349" y="0" type="line"/>
      <point x="349" y="173" type="line"/>
      <point x="212" y="173" type="line" smooth="yes"/>
      <point x="108" y="173"/>
      <point x="38" y="240"/>
      <point x="38" y="336" type="curve" smooth="yes"/>
      <point x="38" y="433"/>
      <point x="108" y="500"/>
    </contour>
  </outline>
</glyph>
<glyph name="djecyr" format="2">
  <advance width="604"/>
  <unicode hex="0452"/>
  <outline>
    <contour>
      <point x="108" y="0" type="line"/>
      <point x="188" y="0" type="line"/>
      <point x="188" y="700" type="line"/>
      <point x="108" y="700" type="line"/>
    </contour>
    <contour>
      <point x="454" y="0" type="line" smooth="yes"/>
      <point x="454" y="-96"/>
      <point x="429" y="-128"/>
      <point x="357" y="-128" type="curve" smooth="yes"/>
      <point x="337" y="-128" type="line"/>
      <point x="337" y="-206" type="line"/>
      <point x="366" y="-206" type="line" smooth="yes"/>
      <point x="478" y="-206"/>
      <point x="534" y="-141"/>
      <point x="534" y="-12" type="curve" smooth="yes"/>
      <point x="534" y="288" type="line" smooth="yes"/>
      <point x="534" y="417"/>
      <point x="461" y="500"/>
      <point x="344" y="500" type="curve" smooth="yes"/>
      <point x="262" y="500"/>
      <point x="205" y="460"/>
      <point x="176" y="379" type="curve"/>
      <point x="188" y="267" type="line"/>
      <point x="188" y="360"/>
      <point x="246" y="425"/>
      <point x="331" y="425" type="curve" smooth="yes"/>
      <point x="410" y="425"/>
      <point x="454" y="368"/>
      <point x="454" y="267" type="curve" smooth="yes"/>
    </contour>
    <contour>
      <point x="30" y="619" type="line"/>
      <point x="30" y="553" type="line"/>
      <point x="356" y="553" type="line"/>
      <point x="356" y="619" type="line"/>
    </contour>
  </outline>
</glyph>
<glyph name="eukrcyr" format="2">
  <advance width="560"/>
  <unicode hex="0454"/>
  <outline>
    <contour>
      <point x="390" y="217" type="line"/>
      <point x="390" y="287" type="line"/>
      <point x="84" y="287" type="line"/>
      <point x="84" y="217" type="line"/>
    </contour>
    <contour>
      <point x="304" y="-14" type="curve" smooth="yes"/>
      <point x="402" y="-14"/>
      <point x="477" y="32"/>
      <point x="520" y="116" type="curve"/>
      <point x="456" y="153" type="line"/>
      <point x="424" y="93"/>
      <point x="369" y="60"/>
      <point x="302" y="60" type="curve" smooth="yes"/>
      <point x="199" y="60"/>
      <point x="126" y="138"/>
      <point x="126" y="250" type="curve" smooth="yes"/>
      <point x="126" y="362"/>
      <point x="199" y="440"/>
      <point x="302" y="440" type="curve" smooth="yes"/>
      <point x="369" y="440"/>
      <point x="424" y="407"/>
      <point x="456" y="347" type="curve"/>
      <point x="520" y="384" type="line"/>
      <point x="477" y="468"/>
      <point x="402" y="514"/>
      <point x="304" y="514" type="curve" smooth="yes"/>
      <point x="151" y="514"/>
      <point x="46" y="402"/>
      <point x="46" y="250" type="curve" smooth="yes"/>
      <point x="46" y="98"/>
      <point x="151" y="-14"/>
    </contour>
  </outline>
</glyph>
<glyph name="yukrcyr" format="2">
  <advance width="232"/>
  <unicode hex="0457"/>
  <outline>
    <contour>
      <point x="76" y="500" type="line"/>
      <point x="156" y="500" type="line"/>
      <point x="156" y="0" type="line"/>
      <point x="76" y="0" type="line"/>
    </contour>
    <contour>
      <point x="-25" y="664" type="curve" smooth="yes"/>
      <point x="-25" y="694"/>
      <point x="-1" y="718"/>
      <point x="29" y="718" type="curve" smooth="yes"/>
      <point x="59" y="718"/>
      <point x="83" y="694"/>
      <point x="83" y="664" type="curve" smooth="yes"/>
      <point x="83" y="634"/>
      <point x="59" y="610"/>
      <point x="29" y="610" type="curve" smooth="yes"/>
      <point x="-1" y="610"/>
      <point x="-25" y="634"/>
    </contour>
    <contour>
      <point x="149" y="664" type="curve" smooth="yes"/>
      <point x="149" y="694"/>
      <point x="173" y="718"/>
      <point x="203" y="718" type="curve" smooth="yes"/>
      <point x="233" y="718"/>
      <point x="257" y="694"/>
      <point x="257" y="664" type="curve" smooth="yes"/>
      <point x="257" y="634"/>
      <point x="233" y="610"/>
      <point x="203" y="610" type="curve" smooth="yes"/>
      <point x="173" y="610"/>
      <point x="149" y="634"/>
    </contour>
  </outline>
</glyph>
<glyph name="ljecyr" format="2">
  <advance width="824"/>
  <unicode hex="0459"/>
  <outline>
    <contour>
      <point x="24" y="-6" type="line"/>
      <point x="44" y="-6" type="line" smooth="yes"/>
      <point x="158" y="-6"/>
      <point x="199" y="71"/>
      <point x="199" y="294" type="curve" smooth="yes"/>
      <point x="199" y="426" type="line"/>
      <point x="399" y="426" type="line"/>
      <point x="399" y="0" type="line"/>
      <point x="605" y="0" type="line" smooth="yes"/>
      <point x="709" y="0"/>
      <point x="778" y="70"/>
      <point x="778" y="168" type="curve" smooth="yes"/>
      <point x="778" y="267"/>
      <point x="708" y="335"/>
      <point x="604" y="335" type="curve" smooth="yes"/>
      <point x="475" y="335" type="line"/>
      <point x="475" y="500" type="line"/>
      <point x="125" y="500" type="line"/>
      <point x="125" y="315" type="line" smooth="yes"/>
      <point x="125" y="127"/>
      <point x="104" y="72"/>
      <point x="36" y="72" type="curve" smooth="yes"/>
      <point x="24" y="72" type="line"/>
    </contour>
    <contour>
      <point x="475" y="72" type="line"/>
      <point x="475" y="263" type="line"/>
      <point x="598" y="263" type="line" smooth="yes"/>
      <point x="661" y="263"/>
      <point x="700" y="224"/>
      <point x="700" y="169" type="curve" smooth="yes"/>
      <point x="700" y="112"/>
      <point x="661" y="72"/>
      <point x="598" y="72" type="curve" smooth="yes"/>
    </contour>
  </outline>
</glyph>
<glyph name="njecyr" format="2">
  <advance width="845"/>
  <unicode hex="045A"/>
  <outline>
    <contour>
      <point x="420" y="500" type="line"/>
      <point x="496" y="500" type="line"/>
      <point x="496" y="323" type="line"/>
      <point x="633" y="323" type="line" smooth="yes"/>
      <point x="730" y="323"/>
      <point x="799" y="256"/>
      <point x="799" y="162" type="curve" smooth="yes"/>
      <point x="799" y="68"/>
      <point x="730" y="0"/>
      <point x="633" y="0" type="curve" smooth="yes"/>
      <point x="420" y="0" type="line"/>
      <point x="420" y="251" type="line"/>
      <point x="168" y="251" type="line"/>
      <point x="168" y="0" type="line"/>
      <point x="88" y="0" type="line"/>
      <point x="88" y="500" type="line"/>
      <point x="168" y="500" type="line"/>
      <point x="168" y="323" type="line"/>
      <point x="420" y="323" type="line"/>
    </contour>
    <contour>
      <point x="496" y="72" type="line"/>
      <point x="626" y="72" type="line" smooth="yes"/>
      <point x="682" y="72"/>
      <point x="721" y="111"/>
      <point x="721" y="163" type="curve" smooth="yes"/>
      <point x="721" y="215"/>
      <point x="682" y="251"/>
      <point x="626" y="251" type="curve" smooth="yes"/>
      <point x="496" y="251" type="line"/>
    </contour>
  </outline>
</glyph>
<glyph name="tshecyr" format="2">
  <advance width="618"/>
  <unicode hex="045B"/>
  <outline>
    <contour>
      <point x="110" y="0" type="line"/>
      <point x="190" y="0" type="line"/>
      <point x="190" y="700" type="line"/>
      <point x="110" y="700" type="line"/>
    </contour>
    <contour>
      <point x="456" y="0" type="line"/>
      <point x="536" y="0" type="line"/>
      <point x="536" y="288" type="line" smooth="yes"/>
      <point x="536" y="417"/>
      <point x="463" y="500"/>
      <point x="346" y="500" type="curve" smooth="yes"/>
      <point x="264" y="500"/>
      <point x="207" y="460"/>
      <point x="178" y="379" type="curve"/>
      <point x="190" y="267" type="line"/>
      <point x="190" y="360"/>
      <point x="248" y="425"/>
      <point x="333" y="425" type="curve" smooth="yes"/>
      <point x="412" y="425"/>
      <point x="456" y="368"/>
      <point x="456" y="267" type="curve" smooth="yes"/>
    </contour>
    <contour>
      <point x="32" y="619" type="line"/>
      <point x="32" y="553" type="line"/>
      <point x="358" y="553" type="line"/>
      <point x="358" y="619" type="line"/>
    </contour>
  </outline>
</glyph>
<glyph name="dzhecyr" format="2">
  <advance width="596"/>
  <unicode hex="045F"/>
  <outline>
    <contour>
      <point x="88" y="0" type="line"/>
      <point x="88" y="500" type="line"/>
      <point x="168" y="500" type="line"/>
      <point x="168" y="74" type="line"/>
      <point x="428" y="74" type="line"/>
      <point x="428" y="500" type="line"/>
      <point x="508" y="500" type="line"/>
      <point x="508" y="0" type="line"/>
      <point x="335" y="0" type="line"/>
      <point x="335" y="-130" type="line"/>
      <point x="261" y="-130" type="line"/>
      <point x="261" y="0" type="line"/>
    </contour>
  </outline>
</glyph>
